<svg version="1.1" xmlns="http://www.w3.org/2000/svg" viewBox="0 0 324.48932676518916 194.66666666666663" width="324.48932676518916" height="194.66666666666663">
  <!-- svg-source:excalidraw -->
  
  <defs>
    <style>
      @font-face {
        font-family: "Virgil";
        src: url("https://excalidraw.com/Virgil.woff2");
      }
      @font-face {
        font-family: "Cascadia";
        src: url("https://excalidraw.com/Cascadia.woff2");
      }
    </style>
  </defs>
  <rect x="0" y="0" width="324.48932676518916" height="194.66666666666663" fill="#ffffff"></rect><g stroke-linecap="round" transform="translate(10 10) rotate(0 54.744663382594354 84.83333333333337)"><path d="M-3.9 -2 L105.93 -1.79 L111.13 171.95 L3.79 168.3" stroke="none" stroke-width="0" fill="#fbf425"></path><path d="M-1.79 -2 C26.1 1.73, 50.3 2.21, 113.12 -2.42 M1.72 -1.43 C32.62 -2.82, 67.76 -0.4, 109.02 0.19 M110.95 1.91 C106.23 36.17, 107.48 68.2, 110.98 166.48 M107.57 -1.13 C109.62 44.02, 112.29 92.16, 108.13 171.56 M110.97 166.49 C78.69 165.05, 59.39 169.06, -1.17 166.97 M107.89 170.96 C83.18 165.71, 59.39 166.22, 1.87 169.65 M1.61 166.01 C0.47 105.22, -1.64 33.05, -0.58 3.29 M0.3 167.92 C1.37 121.71, 4.02 79.57, 1.94 1.66" stroke="#b2ad19" stroke-width="2" fill="none"></path></g><g stroke-linecap="round" transform="translate(51.78981937602475 28.38752052545169) rotate(0 16.298029556650135 20.477011494252878)"><path d="M-0.56 11.43 C-0.56 11.43, -0.56 11.43, -0.56 11.43 M-0.56 11.43 C-0.56 11.43, -0.56 11.43, -0.56 11.43 M2.53 26.72 C7.13 23.08, 2.14 14.55, 9.79 5.83 M-0.46 23.97 C6.34 15.81, 8.72 11.27, 15.32 6.11 M3 33.13 C14.46 19.1, 16.07 12.09, 25.1 6.09 M3.98 30.56 C10.76 21.93, 16.56 16.22, 25.35 5.27 M9.96 39.07 C14.33 27.84, 28.27 14.91, 31.34 10.33 M7.24 37.67 C14.66 31.2, 18.78 25.26, 33.21 11.42 M13.14 40.07 C22.68 38.89, 28.02 35.38, 34.6 16.14 M17.29 38.93 C23.13 30.66, 31.88 22.65, 35.92 19.18" stroke="#0000" stroke-width="1" fill="none"></path><path d="M20.05 2.24 C23.11 2.9, 25.55 4.61, 27.88 8.05 C30.2 11.49, 33.63 18.78, 34.01 22.89 C34.4 26.99, 33.03 29.83, 30.19 32.67 C27.35 35.5, 20.86 38.76, 16.98 39.9 C13.09 41.04, 9.66 41.62, 6.89 39.48 C4.12 37.35, 1.61 31.76, 0.36 27.1 C-0.9 22.44, -1.92 15.52, -0.65 11.53 C0.62 7.54, 3.8 4.83, 7.97 3.18 C12.15 1.53, 21.24 1.26, 24.4 1.62 C27.55 1.98, 27.44 4.84, 26.91 5.35 M3.37 3.28 C5.41 -0.37, 9.76 -2.07, 13 -1.65 C16.23 -1.22, 19.5 3.41, 22.8 5.84 C26.1 8.27, 30.93 9.35, 32.8 12.92 C34.66 16.49, 35.09 23.15, 33.99 27.27 C32.9 31.39, 29.66 35.85, 26.22 37.62 C22.78 39.4, 17.73 39.26, 13.37 37.93 C9.01 36.61, 1.85 32.79, 0.08 29.67 C-1.7 26.54, 2.1 23.44, 2.72 19.19 C3.33 14.93, 3.76 6.68, 3.77 4.14 C3.78 1.59, 2.88 3.72, 2.77 3.9" stroke="#000000" stroke-width="2" fill="none"></path></g><g stroke-linecap="round"><g transform="translate(68.2641390749609 70.7283501335719) rotate(0 -1.0394733873547466 19.262483528550547)"><path d="M-1.4 0.57 C-1.63 6.88, -2.82 30.13, -3.04 36.59 M3.04 -1.59 C2.62 5.3, -3.92 33.99, -5.12 40.11" stroke="#000000" stroke-width="2" fill="none"></path></g></g><g stroke-linecap="round"><g transform="translate(35.624901857709574 146.2848865004812) rotate(0 13.249982080893233 -21.923943024439353)"><path d="M0.57 0.3 C5.62 -6.05, 23.86 -32.46, 29.06 -39.48 M-2.56 -2.01 C2.21 -9.13, 21.07 -37.88, 26.72 -44.15" stroke="#000000" stroke-width="2" fill="none"></path></g></g><g stroke-linecap="round"><g transform="translate(83.6001574364418 145.11422862289874) rotate(0 -10.090158532384976 -20.27837883047681)"><path d="M0.3 -0.19 C-2.57 -6.41, -15.05 -30.28, -18.59 -36.74 M-2.98 -2.76 C-6.04 -9.76, -18.48 -34.89, -20.48 -40.37" stroke="#000000" stroke-width="2" fill="none"></path></g></g><g stroke-linecap="round"><g transform="translate(67.38516458348931 70.09706925030605) rotate(0 -12.20567808226474 9.378439910572354)"><path d="M-0.19 0.64 C-4.18 3.51, -19.14 14.1, -23.37 17.53 M-3.74 -1.49 C-7.92 1.69, -20.32 17.2, -24.22 20.24" stroke="#000000" stroke-width="2" fill="none"></path></g></g><g stroke-linecap="round"><g transform="translate(72.60445841286764 68.21516936009311) rotate(0 9.858764734564147 20.382584252922697)"><path d="M0.64 2.54 C3.37 8.49, 13.41 29.63, 16.7 35.48 M-2.46 1.46 C1.16 7.93, 18.5 33.97, 22.18 39.31" stroke="#000000" stroke-width="2" fill="none"></path></g></g><g transform="translate(19.611658456485202 158.77175697865277) rotate(0 43.04351395730714 10.447454844006558)"><text x="43.04351395730706" y="14.894909688013136" font-family="Virgil, Segoe UI Emoji" font-size="16.715927750410508px" fill="#000000" text-anchor="middle" style="white-space: pre;" direction="ltr">Użytkownik</text></g><g stroke-linecap="round" transform="translate(205.00000000000045 14.999999999999886) rotate(0 54.744663382594354 84.83333333333337)"><path d="M2.55 1.31 L108.38 -3.12 L111.12 172.99 L-2.92 166.89" stroke="none" stroke-width="0" fill="#fbf425"></path><path d="M-0.44 -2.71 C36.88 -4.09, 83.96 -1.39, 112.61 1.24 M0.17 -0.22 C30.99 1.08, 61.28 -1.88, 107.5 0.48 M108.46 3.36 C105.56 51.69, 106.21 98.78, 110.89 169.04 M107.93 0.04 C114.24 54.85, 110.81 108.65, 111.05 169.58 M110.04 168.24 C66.13 170.09, 22.02 170.42, -3.87 166.88 M110.29 167.75 C74.03 168.67, 37.88 170.4, -0.12 171.55 M-0.97 171.69 C4.15 127.51, 3.94 77.85, 3.2 3.75 M-1.02 168.39 C-1.57 107.61, 1.16 47.81, -0.55 0.43" stroke="#b2ad19" stroke-width="2" fill="none"></path></g><g transform="translate(220.65517241379393 137.77175697865357) rotate(0 41 21)"><text x="41" y="15" font-family="Virgil, Segoe UI Emoji" font-size="16.715927750410508px" fill="#000000" text-anchor="middle" style="white-space: pre;" direction="ltr">Zdażenie </text><text x="41" y="36" font-family="Virgil, Segoe UI Emoji" font-size="16.715927750410508px" fill="#000000" text-anchor="middle" style="white-space: pre;" direction="ltr">czasowe</text></g><g stroke-linecap="round" transform="translate(217.99466338259526 42.04761904761892) rotate(0 41.875 39.375)"><path d="M63.2 4.86 C70.27 7.91, 77.72 17.36, 81.25 24.25 C84.78 31.15, 86.17 39.22, 84.4 46.23 C82.63 53.24, 76.79 61.2, 70.63 66.31 C64.47 71.42, 55.35 75.24, 47.42 76.88 C39.49 78.52, 29.88 79.35, 23.05 76.14 C16.22 72.94, 10.18 64.36, 6.46 57.66 C2.74 50.97, -0.12 43.52, 0.73 35.97 C1.57 28.42, 6.42 18.07, 11.52 12.36 C16.62 6.66, 23.27 3.51, 31.33 1.73 C39.4 -0.05, 52.85 -0.29, 59.91 1.67 C66.96 3.63, 69.88 8.52, 73.66 13.49 C77.44 18.45, 82.81 30.53, 82.58 31.46 M51.16 -1.25 C58.57 0.29, 69.1 8.99, 74.45 15.61 C79.79 22.23, 82.81 30.91, 83.24 38.48 C83.67 46.05, 81.5 54.96, 77 61.05 C72.5 67.13, 63.45 71.74, 56.22 74.97 C48.99 78.2, 41.23 82.48, 33.64 80.44 C26.05 78.39, 16.6 69.15, 10.68 62.69 C4.75 56.24, -0.81 48.67, -1.92 41.72 C-3.03 34.76, -0.77 27.29, 4 20.96 C8.76 14.63, 19.63 7.16, 26.66 3.76 C33.7 0.35, 42.15 1.19, 46.19 0.54 C50.23 -0.12, 50.06 -0.8, 50.91 -0.18 C51.75 0.44, 50.86 3.52, 51.24 4.26" stroke="none" stroke-width="0" fill="#fab005"></path><path d="M11.31 14.74 C15.44 8.75, 23.31 2.27, 30.99 0.27 C38.68 -1.74, 49.85 -0.07, 57.42 2.71 C64.99 5.49, 71.71 10.94, 76.41 16.95 C81.11 22.97, 85.98 31.45, 85.63 38.8 C85.28 46.14, 79.4 54.72, 74.31 61.03 C69.21 67.33, 62.83 74.15, 55.09 76.64 C47.35 79.13, 35.74 77.97, 27.87 75.98 C20 73.99, 12.66 70.39, 7.88 64.7 C3.09 59.02, -0.65 49.63, -0.86 41.85 C-1.08 34.07, 4.12 23.22, 6.56 18 C9 12.77, 11.92 11.76, 13.78 10.47 C15.64 9.19, 17.62 10, 17.74 10.27 M40.19 -0.91 C47.85 -1.37, 61.87 2.68, 69.22 7.65 C76.56 12.62, 81.76 21.6, 84.29 28.92 C86.81 36.25, 87.38 44.76, 84.35 51.59 C81.32 58.42, 73.14 65.77, 66.1 69.92 C59.06 74.08, 50.14 76.61, 42.1 76.5 C34.06 76.39, 24.77 73.01, 17.86 69.26 C10.96 65.51, 3.77 60.56, 0.68 54 C-2.41 47.44, -3.23 37.85, -0.67 29.92 C1.9 21.98, 9.72 11.69, 16.06 6.41 C22.41 1.13, 33.46 -0.81, 37.43 -1.75 C41.39 -2.7, 38.97 -0.18, 39.82 0.72 C40.68 1.61, 42.25 3.37, 42.58 3.62" stroke="#000000" stroke-width="2" fill="none"></path></g><g stroke-linecap="round"><g transform="translate(257.77244116037264 42.714285714285666) rotate(0 0.6956225540488958 16.659208202250312)"><path d="M-2.25 -2.45 C-1.59 3.27, 2.74 26.39, 3.64 32.44 M1.73 2.39 C2.28 8.72, 2.7 31.36, 2.84 35.77" stroke="#000000" stroke-width="2" fill="none"></path></g></g><g stroke-linecap="round"><g transform="translate(279.77244116037264 89.71428571428567) rotate(0 -10.341250854432474 -6.502428265847271)"><path d="M-2.45 2.64 C-5.39 1.05, -16.94 -8.99, -19.56 -11.82 M1.42 1.6 C-1.78 -0.55, -18.62 -13.47, -22.1 -15.64" stroke="#000000" stroke-width="2" fill="none"></path></g></g><g stroke-linecap="round"><g transform="translate(235.77244116037264 57.714285714285666) rotate(0 4.905111305229184 1.7678147267177735)"><path d="M2.64 -0.56 C4.55 0.99, 8.51 6.01, 9.18 6.87 M0.63 -3.33 C2.56 -2.44, 7.46 0.62, 8.13 2.33" stroke="#000000" stroke-width="2" fill="none"></path></g></g><g stroke-linecap="round"><g transform="translate(224.77244116037264 95.71428571428567) rotate(0 4.279708096422382 -2.0884440038353205)"><path d="M-0.56 2.18 C1.99 0.68, 11.01 -5.17, 12.87 -6.36 M-4.31 0.9 C-1.83 1.05, 9.05 -1.12, 11.1 -2.92" stroke="#000000" stroke-width="2" fill="none"></path></g></g><g stroke-linecap="round"><g transform="translate(251.77244116037264 118.71428571428567) rotate(0 0.6263273254510295 -8.280509134754539)"><path d="M2.18 0.87 C2.02 -1.94, 1.5 -14.66, 1.64 -17.43 M-0.08 -1.13 C-0.89 -3.54, -1.11 -12.67, -0.79 -14.57" stroke="#000000" stroke-width="2" fill="none"></path></g></g><g stroke-linecap="round"><g transform="translate(285.77244116037264 110.71428571428567) rotate(0 -8.780509134754539 -6.8779986989870565)"><path d="M0.87 -0.36 C-2.11 -2.21, -15.49 -7.3, -18.43 -8.95 M-2.11 -3.02 C-4.1 -5.94, -10.08 -12.67, -12.8 -13.4" stroke="#000000" stroke-width="2" fill="none"></path></g></g><g stroke-linecap="round"><g transform="translate(296.77244116037264 74.71428571428567) rotate(0 -8.991669050939208 3.283242105133837)"><path d="M-0.36 -1.43 C-3.38 -0.87, -13.13 3.44, -15.95 4.24 M-4 3.97 C-7.5 4.96, -15.08 7.64, -17.62 7.99" stroke="#000000" stroke-width="2" fill="none"></path></g></g><g stroke-linecap="round"><g transform="translate(276.77244116037264 50.714285714285666) rotate(0 -1.4401867017149925 9.147721515595919)"><path d="M-1.43 1.05 C-2.2 3.72, -3.23 12.75, -3.76 15.69 M2.99 -0.86 C1.79 2.31, -4.24 16.58, -5.87 19.15" stroke="#000000" stroke-width="2" fill="none"></path></g></g></svg>