<svg version="1.1" xmlns="http://www.w3.org/2000/svg" viewBox="0 0 151 223" width="151" height="223">
  <!-- svg-source:excalidraw -->
  
  <defs>
    <style>
      @font-face {
        font-family: "Virgil";
        src: url("https://excalidraw.com/Virgil.woff2");
      }
      @font-face {
        font-family: "Cascadia";
        src: url("https://excalidraw.com/Cascadia.woff2");
      }
    </style>
  </defs>
  <rect x="0" y="0" width="151" height="223" fill="#ffffff"></rect><g stroke-linecap="round" transform="translate(10 10) rotate(0 65.5 101.5)"><path d="M-1.41 -0.97 L129.9 -2.32 L134.38 205 L2.02 205.28" stroke="none" stroke-width="0" fill="#fbf425"></path><path d="M-2.56 0.38 C50.54 3.94, 101.52 -2.21, 130.78 -1.64 M1.54 0.27 C49.13 -1.06, 97.33 0.35, 130.86 0.81 M132.8 2.06 C132.41 46.36, 133.51 90.51, 131.89 200.54 M129.83 0.06 C133.53 76.96, 134.62 158.54, 130.83 201.41 M133.1 204.26 C86.19 198.14, 45.01 199.48, -0.75 201.14 M132.91 201.83 C82.32 200.01, 34.23 200.28, 0.61 201.21 M1.3 203.56 C-0.94 137.99, 4.01 65.49, -0.08 0.25 M1.18 202.58 C-0.58 159.12, 2.64 117.4, 1.62 -0.41" stroke="#b2ad19" stroke-width="2" fill="none"></path></g><g stroke-linecap="round" transform="translate(60 32) rotate(0 19.5 24.5)"><path d="M7.01 6.09 C7.01 6.09, 7.01 6.09, 7.01 6.09 M7.01 6.09 C7.01 6.09, 7.01 6.09, 7.01 6.09 M5.75 24.76 C7.08 15.66, 10.34 12.16, 18.6 5.66 M6 21.74 C11.85 15.69, 16.42 8.31, 19.22 3.35 M7.43 29.23 C11.29 23.92, 14.42 19.85, 26.82 1.69 M6.52 32.22 C12.75 26.09, 17.87 16.02, 27.72 6.27 M6.49 39.13 C21.06 31.17, 28.77 19.88, 34.7 12.35 M7.27 38.97 C17.16 31.55, 25.56 18.35, 34.68 7.86 M10.77 46.03 C18.54 41.8, 26.51 31.45, 39.38 13.61 M13.02 45.83 C21.91 40.98, 28.8 30.78, 42.5 15.76 M27.63 51.38 C28.92 37.05, 40.37 31.09, 45.8 22.83 M26.01 46.34 C32.34 38.58, 40.3 30.53, 44.88 21.32" stroke="#0000" stroke-width="1" fill="none"></path><path d="M31.8 4.78 C35.04 7.71, 39.27 12.79, 40.2 18.34 C41.13 23.9, 39.63 33.29, 37.36 38.11 C35.09 42.94, 30.64 45.93, 26.59 47.3 C22.55 48.67, 16.82 48.09, 13.09 46.34 C9.36 44.59, 6.22 41.37, 4.22 36.78 C2.21 32.19, 0.65 23.87, 1.08 18.8 C1.5 13.73, 3.55 9.31, 6.76 6.37 C9.98 3.43, 14.89 -1.26, 20.34 1.15 C25.8 3.56, 36.55 14.91, 39.48 20.86 C42.41 26.8, 38.29 37.16, 37.91 36.81 M32.47 8.85 C34.61 11.58, 37.54 16.13, 38 21.73 C38.47 27.33, 37.84 38.42, 35.27 42.46 C32.71 46.5, 26.7 44.98, 22.61 45.96 C18.51 46.93, 14.75 50.24, 10.72 48.32 C6.7 46.41, -0.11 39.98, -1.54 34.46 C-2.98 28.93, 0.55 20.23, 2.12 15.17 C3.69 10.11, 4.57 6.65, 7.89 4.09 C11.2 1.54, 17.83 -1.3, 22.02 -0.19 C26.22 0.92, 30.72 9.57, 33.04 10.75 C35.36 11.93, 35.48 7.25, 35.94 6.89" stroke="#000000" stroke-width="2" fill="none"></path></g><g stroke-linecap="round"><g transform="translate(80 83) rotate(0 -2.2213317304849625 23.962968652695423)"><path d="M1.93 1.94 C0.82 9.12, -5.19 36.48, -6.37 43.85 M-0.46 0.53 C-0.74 8.1, -0.08 40.52, -1.26 47.39" stroke="#000000" stroke-width="2" fill="none"></path></g></g><g stroke-linecap="round"><g transform="translate(41 173) rotate(0 15.738731154799439 -24.93425273366273)"><path d="M-2.37 -0.15 C2.95 -8.12, 28.02 -38.1, 33.85 -45.86 M1.53 -2.7 C6.2 -11.61, 24.89 -41.57, 30.99 -49.72" stroke="#000000" stroke-width="2" fill="none"></path></g></g><g stroke-linecap="round"><g transform="translate(98 172) rotate(0 -10.978028671070945 -23.973300156071787)"><path d="M-1.15 2.14 C-4.98 -5.46, -22.1 -37.62, -25.38 -45.75 M3.42 0.83 C0.66 -7.6, -16.12 -42.73, -20.27 -50.08" stroke="#000000" stroke-width="2" fill="none"></path></g></g><g stroke-linecap="round"><g transform="translate(79 82) rotate(0 -14.195218282192968 13.338300264328694)"><path d="M-2.38 1.25 C-7 4.79, -24.04 19.73, -28.85 23.38 M1.52 -0.54 C-3.17 3.33, -24.14 22.74, -29.91 27.22" stroke="#000000" stroke-width="2" fill="none"></path></g></g><g stroke-linecap="round"><g transform="translate(85 80) rotate(0 10.831302746012796 21.990633295029397)"><path d="M2.15 0.38 C6.18 7.2, 18.77 34.86, 21.78 42.15 M-0.12 -1.88 C3.73 5.32, 15.05 38.92, 19.43 45.86" stroke="#000000" stroke-width="2" fill="none"></path></g></g><g transform="translate(38 188) rotate(0 35 12.5)"><text x="35" y="18" font-family="Virgil, Segoe UI Emoji" font-size="20px" fill="#000000" text-anchor="middle" style="white-space: pre;" direction="ltr">AKTOR</text></g></svg>