<svg version="1.1" xmlns="http://www.w3.org/2000/svg" viewBox="0 0 1332.2080101011072 821.5806891692275" width="1332.2080101011072" height="821.5806891692275">
  <!-- svg-source:excalidraw -->
  
  <defs>
    <style>
      @font-face {
        font-family: "Virgil";
        src: url("https://excalidraw.com/Virgil.woff2");
      }
      @font-face {
        font-family: "Cascadia";
        src: url("https://excalidraw.com/Cascadia.woff2");
      }
    </style>
  </defs>
  <rect x="0" y="0" width="1332.2080101011072" height="821.5806891692275" fill="#ffffff"></rect><g stroke-linecap="round" transform="translate(154.49463035330064 106.87655780588489) rotate(342.9971473612426 211.96568710701797 83.70063109455288)"><path d="M-3.87 -1.39 L423.77 1.39 L424.88 168.7 L3.8 167.75" stroke="none" stroke-width="0" fill="#e6c310"></path><path d="M1.93 -1.94 C93.93 1.28, 187.92 0.28, 422.98 1.69 M0.2 0.68 C137.57 -3.71, 274.93 -2.92, 424.47 -0.32 M427.69 -1.09 C423.7 55.58, 422.94 110.17, 423.33 170.94 M423.01 0.22 C420 65.15, 420.02 132.51, 425.81 166.64 M423.75 167.86 C284.2 171.02, 140.9 168.52, 1 167.27 M424.15 167.35 C314.39 166.22, 204.71 166.38, 0.25 166.4 M-0.92 165.39 C4.87 129.58, -0.83 86.98, -2.53 -3.34 M-1.59 167.95 C-2.65 119.62, 0.58 75.9, 1.14 -1.19" stroke="#99820a" stroke-width="2" fill="none"></path></g><g transform="translate(268.84920634920763 127.52163334488205) rotate(341.01434330681053 57 22.5)"><text x="57" y="32" font-family="Virgil, Segoe UI Emoji" font-size="36px" fill="#000000" text-anchor="middle" style="white-space: pre;" direction="ltr">Pomiar</text></g><g transform="translate(245.30416451055953 163.76046979081093) rotate(341.065305896788 115.5 25)"><text x="115.5" y="18" font-family="Virgil, Segoe UI Emoji" font-size="20px" fill="#000000" text-anchor="middle" style="white-space: pre;" direction="ltr">Jednokrotne zmierzenie </text><text x="115.5" y="43" font-family="Virgil, Segoe UI Emoji" font-size="20px" fill="#000000" text-anchor="middle" style="white-space: pre;" direction="ltr">temperatury w pokoju</text></g><g stroke-linecap="round" transform="translate(777.1930430517139 92.98766891699574) rotate(385.45860276284384 211.96568710701797 83.70063109455288)"><path d="M2.01 -0.54 L423.54 -1.29 L427.54 169.88 L-3.28 169.95" stroke="none" stroke-width="0" fill="#e6c310"></path><path d="M1.57 -0.56 C127.05 -2.45, 250.34 -1.08, 425.3 1.85 M0.45 0.72 C86.68 3.48, 175.26 2.54, 423.36 -1.02 M425.56 0.18 C425.49 60.12, 423.8 113.98, 420.17 163.89 M425.67 -1.19 C421.18 43.59, 421.76 85.82, 423.26 168.65 M425.32 166.94 C322.99 162.46, 222.09 165.99, -2.05 166.51 M422.88 167.57 C306.46 169.51, 190.05 169.88, 0.9 167.03 M-2.49 166.66 C0.94 107.7, 3.95 39.29, -1.93 -0.94 M0.21 167.76 C-0.52 122.57, 2.32 79.01, 1.73 -0.5" stroke="#99820a" stroke-width="2" fill="none"></path></g><g transform="translate(917.0774426529013 96.8528625674071) rotate(383.4757987084117 69.5 22.5)"><text x="69.5" y="32" font-family="Virgil, Segoe UI Emoji" font-size="36px" fill="#000000" text-anchor="middle" style="white-space: pre;" direction="ltr">Badanie</text></g><g transform="translate(785.845427288772 155.21578499168209) rotate(383.52676129838915 195.5 37.5)"><text x="195.5" y="18" font-family="Virgil, Segoe UI Emoji" font-size="20px" fill="#000000" text-anchor="middle" style="white-space: pre;" direction="ltr">Badanie składa się z 10 pomiarów </text><text x="195.5" y="43" font-family="Virgil, Segoe UI Emoji" font-size="20px" fill="#000000" text-anchor="middle" style="white-space: pre;" direction="ltr">i zawiera w sobie informacje na temat </text><text x="195.5" y="68" font-family="Virgil, Segoe UI Emoji" font-size="20px" fill="#000000" text-anchor="middle" style="white-space: pre;" direction="ltr">średniej, mediany i błędu standardowego</text></g><g stroke-linecap="round" transform="translate(623.6428571428582 343.6803635036123) rotate(0 86.5 91.5)"><path d="M0.96 -3.3 L172.37 2.96 L173.76 185.26 L-1.84 182.57" stroke="none" stroke-width="0" fill="#ff8300"></path><path d="M2.7 -2.21 C61.34 1.5, 115 2.41, 170.4 1.16 M0.84 0.47 C52.43 -0.89, 101.83 -3.58, 173.76 -0.17 M172.31 3.92 C173.99 65.2, 174.91 134.12, 170.16 186.26 M173.91 -0.77 C171.45 67.89, 173.63 133.18, 174.79 183.82 M171.48 183.49 C107.55 183.39, 47.33 176.62, 0.86 183.13 M171.05 183.39 C124.02 178.71, 77.65 182.49, 1.57 181.58 M-0.06 186.23 C-5.04 114.38, 0.06 40.14, 2.87 -1.22 M-1.4 184.15 C-2.22 130.87, 0 79.01, -0.72 -1" stroke="#cc6800" stroke-width="2" fill="none"></path></g><g transform="translate(627.4495599165061 386.11023696700113) rotate(6.650200316659098 84 52.5)"><text x="84" y="25" font-family="Virgil, Segoe UI Emoji" font-size="28px" fill="#000000" text-anchor="middle" style="white-space: pre;" direction="ltr">Zmierzono </text><text x="84" y="60" font-family="Virgil, Segoe UI Emoji" font-size="28px" fill="#000000" text-anchor="middle" style="white-space: pre;" direction="ltr">temperaturę</text><text x="84" y="95" font-family="Virgil, Segoe UI Emoji" font-size="28px" fill="#000000" text-anchor="middle" style="white-space: pre;" direction="ltr">pokoju</text></g><g stroke-linecap="round" transform="translate(1143.4580230241345 346.9422682655178) rotate(0 86.5 91.5)"><path d="M-2.44 3.58 L174.94 -2.24 L175.96 179.91 L-1.21 184.69" stroke="none" stroke-width="0" fill="#ff8300"></path><path d="M-3.28 -1.8 C62.43 2.64, 124.62 4.05, 174.53 -1.55 M0.73 1.02 C64.6 2.59, 132.25 2.12, 173.26 -1.69 M174.16 1.04 C169.32 48.4, 173.33 99.59, 172.94 181.08 M174.93 0.32 C174.95 68.54, 173.42 140.37, 173.38 181.69 M171.6 180.25 C114.36 189.31, 62.11 185.69, -3.82 182.99 M174.76 183.02 C131.62 187.11, 85.89 186.84, -0.08 183.19 M-1.69 181.56 C-4.5 109.63, 0.98 42.52, -0.19 3.58 M0.87 184.72 C-2.16 133.97, 1.12 84.41, 0.54 -0.07" stroke="#cc6800" stroke-width="2" fill="none"></path></g><g transform="translate(1148.6932972263542 376.5149988717635) rotate(6.650200316659098 84 52.5)"><text x="84" y="25" font-family="Virgil, Segoe UI Emoji" font-size="28px" fill="#000000" text-anchor="middle" style="white-space: pre;" direction="ltr">Zmniejszono</text><text x="84" y="60" font-family="Virgil, Segoe UI Emoji" font-size="28px" fill="#000000" text-anchor="middle" style="white-space: pre;" direction="ltr">temperaturę</text><text x="84" y="95" font-family="Virgil, Segoe UI Emoji" font-size="28px" fill="#000000" text-anchor="middle" style="white-space: pre;" direction="ltr">na grzejniku</text></g><g stroke-linecap="round" transform="translate(676.237387526234 447.9184587417093) rotate(0 160.62779580828055 164.3288970941855)"><path d="M162.62 -0.33 L320.89 168.76 L158.96 326.81 L2.42 168.08" stroke="none" stroke-width="0" fill="#e000b1" fill-rule="evenodd"></path><path d="M163.21 2.36 C194.24 36.29, 228.38 71.49, 319.39 162.19 M161.47 -0.82 C193.25 36.72, 228.77 70.31, 319.99 165.62 M321.62 167.9 C258.75 225.76, 207.75 284.7, 161.48 327.72 M322.24 164.19 C283.59 198.75, 251.13 235.49, 159.94 330.03 M162.41 330.36 C114.8 275.67, 60.94 226.6, -0.13 164.71 M160.56 330.05 C127.4 292.76, 93.5 256.6, 0.45 164.41 M-0.21 165.48 C60 100.71, 124.02 41.39, 160.8 0.2 M-0.86 165.74 C49.79 112.39, 98.24 63.01, 161.09 0.5" stroke="#ad0088" stroke-width="2" fill="none"></path></g><g transform="translate(734.7130493659272 528.9696253821161) rotate(0 104.90196078431364 74.30555555555551)"><text x="104.90196078431363" y="20.722222222222207" font-family="Virgil, Segoe UI Emoji" font-size="23.90534488085497px" fill="#000000" text-anchor="middle" style="white-space: pre;" direction="ltr">Czy wysyłać </text><text x="104.90196078431363" y="50.444444444444414" font-family="Virgil, Segoe UI Emoji" font-size="23.90534488085497px" fill="#000000" text-anchor="middle" style="white-space: pre;" direction="ltr">każde badanie </text><text x="104.90196078431363" y="80.16666666666663" font-family="Virgil, Segoe UI Emoji" font-size="23.90534488085497px" fill="#000000" text-anchor="middle" style="white-space: pre;" direction="ltr">temperatury </text><text x="104.90196078431363" y="109.88888888888883" font-family="Virgil, Segoe UI Emoji" font-size="23.90534488085497px" fill="#000000" text-anchor="middle" style="white-space: pre;" direction="ltr">do backendu?</text><text x="104.90196078431363" y="139.61111111111103" font-family="Virgil, Segoe UI Emoji" font-size="23.90534488085497px" fill="#000000" text-anchor="middle" style="white-space: pre;" direction="ltr">[transfer danych]</text></g><g stroke-linecap="round" transform="translate(975.038870858386 482.92289498085654) rotate(0 160.62779580828055 164.3288970941855)"><path d="M164.96 0.82 L321.27 164.67 L157.5 325.94 L-2.78 164.54" stroke="none" stroke-width="0" fill="#e000b1" fill-rule="evenodd"></path><path d="M159.78 -1.11 C223.99 56.17, 283.09 116.96, 321.67 162.52 M159.54 0.88 C216.38 56.29, 273.84 114.07, 322.57 164.7 M320.26 162.73 C290.07 201.58, 252.92 234.81, 161.55 331.28 M320.12 165.85 C280.16 203.91, 239.78 244.59, 162.15 330.01 M158.4 325.26 C124.14 293.37, 91.52 254.12, 1.92 165.33 M161.1 327.99 C109.01 280.47, 57.11 227.62, -1.65 164.88 M0.03 162.39 C45.94 116.25, 101.14 61.94, 163.78 -2.12 M0.2 163.61 C57.05 106.23, 115.87 49.03, 159.5 -0.72" stroke="#ad0088" stroke-width="2" fill="none"></path></g><g transform="translate(1029.6811993647464 588.9740616212634) rotate(0 111.34166666666658 58.294066317626516)"><text x="111.34166666666661" y="20.14703315881325" font-family="Virgil, Segoe UI Emoji" font-size="23.317626527050596px" fill="#000000" text-anchor="middle" style="white-space: pre;" direction="ltr">Całkowita blokada </text><text x="111.34166666666661" y="49.2940663176265" font-family="Virgil, Segoe UI Emoji" font-size="23.317626527050596px" fill="#000000" text-anchor="middle" style="white-space: pre;" direction="ltr">grzejnika? Co z </text><text x="111.34166666666661" y="78.44109947643975" font-family="Virgil, Segoe UI Emoji" font-size="23.317626527050596px" fill="#000000" text-anchor="middle" style="white-space: pre;" direction="ltr">zabezpieczeniem </text><text x="111.34166666666661" y="107.588132635253" font-family="Virgil, Segoe UI Emoji" font-size="23.317626527050596px" fill="#000000" text-anchor="middle" style="white-space: pre;" direction="ltr">antyzamarzeniowym</text></g><g stroke-linecap="round" transform="translate(10 349.08512540837523) rotate(0 92.33333333333337 91.5)"><path d="M2.11 -2.83 L182.77 2.49 L184.28 179.8 L0.45 183.78" stroke="none" stroke-width="0" fill="#fcd1eb"></path><path d="M0.79 2.48 C41.44 -4.25, 87.14 -0.16, 182.91 2.16 M1.35 1.42 C72.2 4.32, 140.18 2.47, 186.62 0.66 M181.22 -3.6 C186.45 61.24, 180.59 120.05, 182.47 184.69 M183.82 0.47 C184.56 47.28, 183.26 95.84, 183.65 181.91 M183.08 179.86 C146.34 186.71, 106.16 183.73, -1.27 179.67 M186.08 181.09 C126.22 182.9, 66.43 183.82, -1.05 183.06 M3.75 179.44 C1.56 138.2, 0.54 85.07, 2.05 1.99 M-0.62 182.32 C-3.61 139, -3.06 92.66, 1.44 -1.68" stroke="#af91a3" stroke-width="2" fill="none"></path></g><g transform="translate(40.551881085617424 423.93085828326764) rotate(355.2533665234956 61.5 17.5)"><text x="61.5" y="25" font-family="Virgil, Segoe UI Emoji" font-size="28px" fill="#000000" text-anchor="middle" style="white-space: pre;" direction="ltr">Facebook</text></g><g stroke-linecap="round" transform="translate(207.85996389301806 345.75179207504175) rotate(0 86.5 91.5)"><path d="M-2.91 0.13 L171.6 -2.98 L169.88 179.81 L-0.56 185.44" stroke="none" stroke-width="0" fill="#ff8300"></path><path d="M0.57 -0.25 C50.72 0.39, 102.94 -6.77, 169.42 0.57 M-0.69 -0.15 C47.59 -0.27, 95.56 1.55, 173.43 1.75 M170.75 -0.67 C173.87 63.65, 173.55 126.17, 176.64 181.01 M171.72 -1.21 C172.55 45.05, 171.42 87.43, 173.93 184.24 M172.15 180.28 C135.04 181.35, 92.81 178.3, -1.94 184.47 M174.6 184.28 C127.54 182.37, 81.34 182.17, 1.69 184.53 M-3.1 183.57 C-1.64 119.39, 5.46 57.77, -3.91 -1.26 M-1.3 183 C3.08 141.93, 3.03 105.73, 1.67 -1.95" stroke="#cc6800" stroke-width="2" fill="none"></path></g><g transform="translate(217.193297226352 401.29941112266056) rotate(6.650200316659098 79.5 35)"><text x="79.5" y="25" font-family="Virgil, Segoe UI Emoji" font-size="28px" fill="#000000" text-anchor="middle" style="white-space: pre;" direction="ltr">Zalogowano</text><text x="79.5" y="60" font-family="Virgil, Segoe UI Emoji" font-size="28px" fill="#000000" text-anchor="middle" style="white-space: pre;" direction="ltr">użytkownika</text></g><g stroke-linecap="round" transform="translate(867.1456781787338 339.0851254083748) rotate(0 86.5 91.5)"><path d="M-1.84 2.49 L170.75 0.49 L174.7 184.78 L2.86 185.85" stroke="none" stroke-width="0" fill="#ff8300"></path><path d="M-2.21 1.35 C43.55 -5.8, 96.83 -6.06, 172.64 1.24 M1.83 1.34 C52.96 -4.51, 105.09 -2.82, 171.21 -1.44 M169.41 3.47 C172.23 55.42, 170.72 108.57, 171.47 184.6 M173.59 0.25 C175.59 69.64, 175.18 141.32, 173.75 183.7 M176.32 182.22 C139.5 182.67, 100.27 182.08, -2.28 184.72 M173.63 183.99 C125.47 185.63, 78.67 184.84, -1.53 183.03 M3.84 179.81 C-2.48 119.79, 1.94 55.42, 3.99 0.48 M-0.66 181.19 C-3.66 117.37, -1.4 55.21, -0.73 1.21" stroke="#cc6800" stroke-width="2" fill="none"></path></g><g transform="translate(850.3543218212671 368.5401104303904) rotate(6.650200316659098 104 70)"><text x="104" y="25" font-family="Virgil, Segoe UI Emoji" font-size="28px" fill="#000000" text-anchor="middle" style="white-space: pre;" direction="ltr">Wysłano</text><text x="104" y="60" font-family="Virgil, Segoe UI Emoji" font-size="28px" fill="#000000" text-anchor="middle" style="white-space: pre;" direction="ltr">powiadomienie</text><text x="104" y="95" font-family="Virgil, Segoe UI Emoji" font-size="28px" fill="#000000" text-anchor="middle" style="white-space: pre;" direction="ltr">o zbyt wysokiej</text><text x="104" y="130" font-family="Virgil, Segoe UI Emoji" font-size="28px" fill="#000000" text-anchor="middle" style="white-space: pre;" direction="ltr">temperaturze</text></g><g stroke-linecap="round" transform="translate(415.8333333333327 342.41845874170826) rotate(0 86.5 91.5)"><path d="M1.1 3.1 L176.44 0.17 L171.27 182.88 L-1.13 184" stroke="none" stroke-width="0" fill="#ff8300"></path><path d="M-1.19 -3.44 C37.98 -5.13, 80.51 -0.92, 169.65 1.77 M2 0.94 C41.45 -2.99, 79.98 -3.53, 171.84 0.57 M174.28 -1.58 C175.66 68.58, 170.22 141.2, 176.63 185 M171.09 -0.63 C170.05 68.47, 171.81 141.07, 173.13 184.17 M176.29 186.76 C121.57 187.1, 73.67 180.82, 1.58 180.06 M172.16 181.09 C128.89 182.03, 85.93 183.12, 0.65 183.78 M-2.38 181.07 C-3.66 133.88, 0.33 88.61, 2.81 1.97 M1.83 184.34 C-4.27 128.25, -1.86 75.48, 1.59 0.03" stroke="#cc6800" stroke-width="2" fill="none"></path></g><g transform="translate(423.28007221396086 361.06391995419995) rotate(6.650200316659098 84.00000000000003 70)"><text x="84" y="25" font-family="Virgil, Segoe UI Emoji" font-size="28px" fill="#000000" text-anchor="middle" style="white-space: pre;" direction="ltr">Użytkownik</text><text x="84" y="60" font-family="Virgil, Segoe UI Emoji" font-size="28px" fill="#000000" text-anchor="middle" style="white-space: pre;" direction="ltr">ustawił</text><text x="84" y="95" font-family="Virgil, Segoe UI Emoji" font-size="28px" fill="#000000" text-anchor="middle" style="white-space: pre;" direction="ltr">temperaturę</text><text x="84" y="130" font-family="Virgil, Segoe UI Emoji" font-size="28px" fill="#000000" text-anchor="middle" style="white-space: pre;" direction="ltr">docelową</text></g></svg>