<svg version="1.1" xmlns="http://www.w3.org/2000/svg" viewBox="0 0 193 260" width="193" height="260">
  <!-- svg-source:excalidraw -->
  
  <defs>
    <style>
      @font-face {
        font-family: "Virgil";
        src: url("https://excalidraw.com/Virgil.woff2");
      }
      @font-face {
        font-family: "Cascadia";
        src: url("https://excalidraw.com/Cascadia.woff2");
      }
    </style>
  </defs>
  <rect x="0" y="0" width="193" height="260" fill="#ffffff"></rect><g stroke-linecap="round" transform="translate(10 67) rotate(0 86.5 91.5)"><path d="M0.76 1.47 L170.55 0.84 L171.09 181.97 L-0.22 180.24" stroke="none" stroke-width="0" fill="#1ea4fd"></path><path d="M1.61 -3.29 C40.93 1.26, 84.18 2.54, 174.73 2.41 M-1.37 1.74 C66.43 0.85, 128.1 -0.79, 172.34 -1.84 M169.44 1.29 C179.17 56.35, 177.8 121.21, 171.72 180.52 M172.07 1.34 C173.16 58.39, 173.87 118.51, 172.37 181.91 M169.41 184.23 C125.39 185.72, 82.22 184.68, -2.57 185.4 M173.14 181.24 C107.64 183.04, 44.88 182.46, -1.96 182.1 M-0.91 181.59 C-2.1 111.97, -3.45 46.52, 2 2.02 M1.78 184.33 C-2.11 118.22, -4.42 53.41, -1.76 1.9" stroke="#1472b0" stroke-width="2" fill="none"></path></g><g transform="translate(14.5 10) rotate(0 82 17.5)"><text x="82" y="25" font-family="Virgil, Segoe UI Emoji" font-size="28px" fill="#000000" text-anchor="middle" style="white-space: pre;" direction="ltr">POLECENIE</text></g><g transform="translate(45 41.5) rotate(0 50 12.5)"><text x="50" y="18" font-family="Virgil, Segoe UI Emoji" font-size="20px" fill="#000000" text-anchor="middle" style="white-space: pre;" direction="ltr">COMMAND</text></g><g transform="translate(44.6666666666672 134.83333333333337) rotate(0 48 17.5)"><text x="48" y="25" font-family="Virgil, Segoe UI Emoji" font-size="28px" fill="#000000" text-anchor="middle" style="white-space: pre;" direction="ltr">Zamiar</text></g></svg>