<svg version="1.1" xmlns="http://www.w3.org/2000/svg" viewBox="0 0 1062.6944444444434 206.38095238095195" width="1062.6944444444434" height="206.38095238095195">
  <!-- svg-source:excalidraw -->
  
  <defs>
    <style>
      @font-face {
        font-family: "Virgil";
        src: url("https://excalidraw.com/Virgil.woff2");
      }
      @font-face {
        font-family: "Cascadia";
        src: url("https://excalidraw.com/Cascadia.woff2");
      }
    </style>
  </defs>
  <rect x="0" y="0" width="1062.6944444444434" height="206.38095238095195" fill="#ffffff"></rect><g stroke-linecap="round" transform="translate(10 10.333333333333826) rotate(0 86.5 91.5)"><path d="M-1.69 -2.85 L171.09 -2.54 L175.54 180.11 L3.58 185.43" stroke="none" stroke-width="0" fill="#1ea4fd"></path><path d="M-1.04 -0.52 C63.14 -1.25, 119.18 -0.96, 171.25 -3.15 M-1.72 1.49 C41.45 -1.02, 82.05 -0.43, 171.38 0.11 M175.72 -1.82 C178.48 70.91, 172.36 147.37, 169.82 183.27 M172.91 -0.23 C175.87 61.59, 174.57 123.27, 173.32 184.26 M170.01 185.42 C132.47 180.37, 83.88 181.06, 0.74 184.35 M173.07 181.13 C130.01 186.41, 86.78 186.48, 0.62 183.09 M-3.11 186.86 C2.01 138.28, -0.88 88.47, -3.79 -1.47 M-0.68 184.94 C3.22 114.56, 2.76 48.55, 0.41 -1.08" stroke="#1472b0" stroke-width="2" fill="none"></path></g><g transform="translate(15.666666666667425 78.16666666666731) rotate(0 77 17.5)"><text x="77" y="25" font-family="Virgil, Segoe UI Emoji" font-size="28px" fill="#000000" text-anchor="middle" style="white-space: pre;" direction="ltr">Zaloguj się</text></g><g stroke-linecap="round" transform="translate(225.67361111111086 12.000000000000455) rotate(0 86.5 91.5)"><path d="M-3.65 3.06 L172.99 -0.8 L170.94 184.24 L-0.09 183.29" stroke="none" stroke-width="0" fill="#1ea4fd"></path><path d="M2.93 2.59 C50.68 0.83, 109.95 -1.99, 173.53 -1.85 M-1.16 -0.82 C44.63 2.04, 91.34 4.42, 174.19 1.98 M171.89 3.72 C168.82 52.94, 175.8 105.37, 171.8 180.87 M174.86 -0.6 C170.97 68.27, 168.8 135.25, 174.81 181.5 M173.47 180.34 C116.05 181.15, 60.34 184.55, 1.23 181.07 M171.47 183.82 C139.33 183.79, 105.25 182.75, -0.64 183 M-0.81 186.93 C-1.71 118.3, -0.83 54.12, -3.62 -0.74 M1.54 183.53 C0.78 145.16, 1.86 102.6, -1.47 0.7" stroke="#1472b0" stroke-width="2" fill="none"></path></g><g transform="translate(227.84027777777783 79.83333333333394) rotate(0 80.5 35)"><text x="80.5" y="25" font-family="Virgil, Segoe UI Emoji" font-size="28px" fill="#000000" text-anchor="middle" style="white-space: pre;" direction="ltr">Zarejestruj</text><text x="80.5" y="60" font-family="Virgil, Segoe UI Emoji" font-size="28px" fill="#000000" text-anchor="middle" style="white-space: pre;" direction="ltr">się</text></g><g stroke-linecap="round" transform="translate(446.6805555555543 10) rotate(0 86.5 91.5)"><path d="M2.39 -2.48 L173.73 -2.48 L171.84 186.25 L1.04 179.36" stroke="none" stroke-width="0" fill="#1ea4fd"></path><path d="M-1.74 -2.86 C43.8 1.86, 92.42 6.23, 170.1 -1.08 M1.68 -0.43 C40.07 2.96, 80.48 3.51, 171.66 1.8 M171.17 -1.89 C171.26 43.54, 173.47 85.81, 169.54 186.91 M173.86 -0.21 C172.72 53.51, 173.17 102.2, 172.58 181.22 M171.69 182.22 C136.45 182.59, 91.89 179.07, -2.42 180.4 M174.99 183.49 C121.22 184.2, 69.43 181.57, 0.08 181.19 M0.69 186.21 C4.17 122.31, -0.02 59.92, -0.34 -0.44 M-0.66 184.35 C-1.57 137.66, -2.37 95.82, -1.65 0.01" stroke="#1472b0" stroke-width="2" fill="none"></path></g><g transform="translate(441.3472222222217 31.83333333333303) rotate(0 90 70)"><text x="90" y="25" font-family="Virgil, Segoe UI Emoji" font-size="28px" fill="#000000" text-anchor="middle" style="white-space: pre;" direction="ltr">Ustaw </text><text x="90" y="60" font-family="Virgil, Segoe UI Emoji" font-size="28px" fill="#000000" text-anchor="middle" style="white-space: pre;" direction="ltr">temperaturę</text><text x="90" y="95" font-family="Virgil, Segoe UI Emoji" font-size="28px" fill="#000000" text-anchor="middle" style="white-space: pre;" direction="ltr">w </text><text x="90" y="130" font-family="Virgil, Segoe UI Emoji" font-size="28px" fill="#000000" text-anchor="middle" style="white-space: pre;" direction="ltr">pomieszczeniu</text></g><g stroke-linecap="round" transform="translate(664.0208333333326 11.88095238095218) rotate(0 86.5 91.5)"><path d="M2.81 3.94 L175.37 -2.08 L169.49 179.51 L2.17 179.62" stroke="none" stroke-width="0" fill="#1ea4fd"></path><path d="M0.43 -2.93 C46.34 0.72, 98.31 -0.24, 173.82 0.75 M0.6 -1.78 C44.46 -0.54, 89.16 0.45, 174.46 1.91 M170.3 3.22 C174.66 52.29, 170.78 96.98, 171.44 186.69 M173.75 0.56 C175.59 70.45, 175.42 145.13, 171.98 181.28 M170.11 179.59 C123.17 186.33, 77.19 185.35, -1.3 180.98 M174.01 184.48 C103.78 183.95, 37.6 183.12, -0.95 181.73 M-1.48 182.36 C2.69 129.76, -2.7 73.68, 3.43 -2.31 M1.63 184.79 C-0.77 138.36, -0.62 95.17, 1.71 0.26" stroke="#1472b0" stroke-width="2" fill="none"></path></g><g transform="translate(664.6874999999986 59.71428571428521) rotate(0 84 35)"><text x="84" y="25" font-family="Virgil, Segoe UI Emoji" font-size="28px" fill="#000000" text-anchor="middle" style="white-space: pre;" direction="ltr">Zmierz</text><text x="84" y="60" font-family="Virgil, Segoe UI Emoji" font-size="28px" fill="#000000" text-anchor="middle" style="white-space: pre;" direction="ltr">temperaturę</text></g><g stroke-linecap="round" transform="translate(879.6944444444434 12.547619047618923) rotate(0 86.5 91.5)"><path d="M-3.58 -2.59 L172.1 3.38 L171.6 181.78 L2.23 179.29" stroke="none" stroke-width="0" fill="#1ea4fd"></path><path d="M3.39 -0.44 C58.57 3.69, 113.52 2.42, 172.54 -0.9 M-1.86 1.49 C64.03 2.03, 128.08 3.03, 173.16 1.47 M174.6 -2.68 C169.19 42.61, 171.55 77.84, 170.22 184.05 M173.33 0.05 C172.63 40.71, 171.49 77.99, 173.09 182.22 M175.54 183.49 C118.11 184.52, 70.31 185.16, -1.55 185.06 M171.36 184.32 C110.81 182.27, 45.03 185.56, -0.81 182.97 M3.9 180.81 C-0.09 125.22, -0.75 70.26, 0.31 -1.48 M0.9 184.88 C-3.4 135.76, -2.86 85.92, 1.8 -1.38" stroke="#1472b0" stroke-width="2" fill="none"></path></g><g transform="translate(883.8611111111095 21.380952380951953) rotate(0 80.5 87.5)"><text x="80.5" y="25" font-family="Virgil, Segoe UI Emoji" font-size="28px" fill="#000000" text-anchor="middle" style="white-space: pre;" direction="ltr">Sprawdź</text><text x="80.5" y="60" font-family="Virgil, Segoe UI Emoji" font-size="28px" fill="#000000" text-anchor="middle" style="white-space: pre;" direction="ltr">czy temp.</text><text x="80.5" y="95" font-family="Virgil, Segoe UI Emoji" font-size="28px" fill="#000000" text-anchor="middle" style="white-space: pre;" direction="ltr">mieści się </text><text x="80.5" y="130" font-family="Virgil, Segoe UI Emoji" font-size="28px" fill="#000000" text-anchor="middle" style="white-space: pre;" direction="ltr">w zadanych</text><text x="80.5" y="165" font-family="Virgil, Segoe UI Emoji" font-size="28px" fill="#000000" text-anchor="middle" style="white-space: pre;" direction="ltr">wartościach</text></g></svg>