<svg version="1.1" xmlns="http://www.w3.org/2000/svg" viewBox="0 0 933.4277286248187 374.26881007490783" width="933.4277286248187" height="240">
  <!-- svg-source:excalidraw -->
  
  <defs>
    <style>
      @font-face {
        font-family: "Virgil";
        src: url("https://excalidraw.com/Virgil.woff2");
      }
      @font-face {
        font-family: "Cascadia";
        src: url("https://excalidraw.com/Cascadia.woff2");
      }
    </style>
  </defs>
  <rect x="0" y="0" width="933.4277286248187" height="374.26881007490783" fill="#ffffff"></rect><g stroke-linecap="round" transform="translate(25.21070318736588 138.54322447255134) rotate(342.9971473612426 211.96568710701797 83.70063109455285)"><path d="M-3.87 -1.39 L423.77 1.39 L424.88 168.7 L3.8 167.75" stroke="none" stroke-width="0" fill="#e6c310"></path><path d="M1.93 -1.94 C93.93 1.28, 187.92 0.28, 422.98 1.69 M0.2 0.68 C137.57 -3.71, 274.93 -2.92, 424.47 -0.32 M427.69 -1.09 C423.7 55.58, 422.94 110.17, 423.33 170.94 M423.01 0.22 C420 65.15, 420.02 132.51, 425.81 166.64 M423.75 167.86 C284.2 171.02, 140.9 168.52, 1 167.27 M424.15 167.35 C314.39 166.22, 204.71 166.38, 0.25 166.4 M-0.92 165.39 C4.87 129.58, -0.83 86.98, -2.53 -3.34 M-1.59 167.95 C-2.65 119.62, 0.58 75.9, 1.14 -1.19" stroke="#99820a" stroke-width="2" fill="none"></path></g><g transform="translate(139.56527918327288 159.18830001154862) rotate(341.01434330681053 57 22.5)"><text x="57" y="32" font-family="Virgil, Segoe UI Emoji" font-size="36px" fill="#000000" text-anchor="middle" style="white-space: pre;" direction="ltr">Pomiar</text></g><g transform="translate(38.99885013013454 205.46675861563665) rotate(341.065305896788 188.5 12.5)"><text x="0" y="18" font-family="Virgil, Segoe UI Emoji" font-size="20px" fill="#000000" text-anchor="start" style="white-space: pre;" direction="ltr">Jedno krotne zmierzenie długości drzwi</text></g><g stroke-linecap="round" transform="translate(484.09959207625525 92.98766891699574) rotate(385.45860276284384 211.96568710701797 83.70063109455288)"><path d="M2.01 -0.54 L423.54 -1.29 L427.54 169.88 L-3.28 169.95" stroke="none" stroke-width="0" fill="#e6c310"></path><path d="M1.57 -0.56 C127.05 -2.45, 250.34 -1.08, 425.3 1.85 M0.45 0.72 C86.68 3.48, 175.26 2.54, 423.36 -1.02 M425.56 0.18 C425.49 60.12, 423.8 113.98, 420.17 163.89 M425.67 -1.19 C421.18 43.59, 421.76 85.82, 423.26 168.65 M425.32 166.94 C322.99 162.46, 222.09 165.99, -2.05 166.51 M422.88 167.57 C306.46 169.51, 190.05 169.88, 0.9 167.03 M-2.49 166.66 C0.94 107.7, 3.95 39.29, -1.93 -0.94 M0.21 167.76 C-0.52 122.57, 2.32 79.01, 1.73 -0.5" stroke="#99820a" stroke-width="2" fill="none"></path></g><g transform="translate(623.9839916774426 96.85286256740721) rotate(383.4757987084117 69.5 22.5)"><text x="69.5" y="32" font-family="Virgil, Segoe UI Emoji" font-size="36px" fill="#000000" text-anchor="middle" style="white-space: pre;" direction="ltr">Badanie</text></g><g transform="translate(492.75197631331343 155.21578499168209) rotate(383.52676129838915 195.5 37.5)"><text x="195.5" y="18" font-family="Virgil, Segoe UI Emoji" font-size="20px" fill="#000000" text-anchor="middle" style="white-space: pre;" direction="ltr">Badanie składa się z 10 pomiarów </text><text x="195.5" y="43" font-family="Virgil, Segoe UI Emoji" font-size="20px" fill="#000000" text-anchor="middle" style="white-space: pre;" direction="ltr">i zawiera w sobie informacje na temat </text><text x="195.5" y="68" font-family="Virgil, Segoe UI Emoji" font-size="20px" fill="#000000" text-anchor="middle" style="white-space: pre;" direction="ltr">średniej, mediany i błędu standardowego</text></g></svg>