<svg version="1.1" xmlns="http://www.w3.org/2000/svg" viewBox="0 0 743.6064963926872 206.16666666666606" width="743.6064963926872" height="206.16666666666606">
  <!-- svg-source:excalidraw -->
  
  <defs>
    <style>
      @font-face {
        font-family: "Virgil";
        src: url("https://excalidraw.com/Virgil.woff2");
      }
      @font-face {
        font-family: "Cascadia";
        src: url("https://excalidraw.com/Cascadia.woff2");
      }
    </style>
  </defs>
  <rect x="0" y="0" width="743.6064963926872" height="206.16666666666606" fill="#ffffff"></rect><g stroke-linecap="round" transform="translate(11.708010101105174 13.16666666666606) rotate(0 86.5 91.5)"><path d="M0.96 -3.3 L172.37 2.96 L173.76 185.26 L-1.84 182.57" stroke="none" stroke-width="0" fill="#ff8300"></path><path d="M2.7 -2.21 C61.34 1.5, 115 2.41, 170.4 1.16 M0.84 0.47 C52.43 -0.89, 101.83 -3.58, 173.76 -0.17 M172.31 3.92 C173.99 65.2, 174.91 134.12, 170.16 186.26 M173.91 -0.77 C171.45 67.89, 173.63 133.18, 174.79 183.82 M171.48 183.49 C107.55 183.39, 47.33 176.62, 0.86 183.13 M171.05 183.39 C124.02 178.71, 77.65 182.49, 1.57 181.58 M-0.06 186.23 C-5.04 114.38, 0.06 40.14, 2.87 -1.22 M-1.4 184.15 C-2.22 130.87, 0 79.01, -0.72 -1" stroke="#cc6800" stroke-width="2" fill="none"></path></g><g transform="translate(15.514712874753059 55.596540130054905) rotate(6.650200316659098 84 52.5)"><text x="84" y="25" font-family="Virgil, Segoe UI Emoji" font-size="28px" fill="#000000" text-anchor="middle" style="white-space: pre;" direction="ltr">Zmierzono </text><text x="84" y="60" font-family="Virgil, Segoe UI Emoji" font-size="28px" fill="#000000" text-anchor="middle" style="white-space: pre;" direction="ltr">temperaturę</text><text x="84" y="95" font-family="Virgil, Segoe UI Emoji" font-size="28px" fill="#000000" text-anchor="middle" style="white-space: pre;" direction="ltr">pokoju</text></g><g stroke-linecap="round" transform="translate(285.6870216131713 10) rotate(0 86.5 91.5)"><path d="M-1.84 2.49 L170.75 0.49 L174.7 184.78 L2.86 185.85" stroke="none" stroke-width="0" fill="#ff8300"></path><path d="M-2.21 1.35 C43.55 -5.8, 96.83 -6.06, 172.64 1.24 M1.83 1.34 C52.96 -4.51, 105.09 -2.82, 171.21 -1.44 M169.41 3.47 C172.23 55.42, 170.72 108.57, 171.47 184.6 M173.59 0.25 C175.59 69.64, 175.18 141.32, 173.75 183.7 M176.32 182.22 C139.5 182.67, 100.27 182.08, -2.28 184.72 M173.63 183.99 C125.47 185.63, 78.67 184.84, -1.53 183.03 M3.84 179.81 C-2.48 119.79, 1.94 55.42, 3.99 0.48 M-0.66 181.19 C-3.66 117.37, -1.4 55.21, -0.73 1.21" stroke="#cc6800" stroke-width="2" fill="none"></path></g><g transform="translate(268.89566525570467 39.45498502201565) rotate(6.650200316659098 104 70)"><text x="104" y="25" font-family="Virgil, Segoe UI Emoji" font-size="28px" fill="#000000" text-anchor="middle" style="white-space: pre;" direction="ltr">Wysłano</text><text x="104" y="60" font-family="Virgil, Segoe UI Emoji" font-size="28px" fill="#000000" text-anchor="middle" style="white-space: pre;" direction="ltr">powiadomienie</text><text x="104" y="95" font-family="Virgil, Segoe UI Emoji" font-size="28px" fill="#000000" text-anchor="middle" style="white-space: pre;" direction="ltr">o zbyt wysokiej</text><text x="104" y="130" font-family="Virgil, Segoe UI Emoji" font-size="28px" fill="#000000" text-anchor="middle" style="white-space: pre;" direction="ltr">temperaturze</text></g><g stroke-linecap="round" transform="translate(554.8565093157144 10) rotate(0 86.5 91.5)"><path d="M-2.44 3.58 L174.94 -2.24 L175.96 179.91 L-1.21 184.69" stroke="none" stroke-width="0" fill="#ff8300"></path><path d="M-3.28 -1.8 C62.43 2.64, 124.62 4.05, 174.53 -1.55 M0.73 1.02 C64.6 2.59, 132.25 2.12, 173.26 -1.69 M174.16 1.04 C169.32 48.4, 173.33 99.59, 172.94 181.08 M174.93 0.32 C174.95 68.54, 173.42 140.37, 173.38 181.69 M171.6 180.25 C114.36 189.31, 62.11 185.69, -3.82 182.99 M174.76 183.02 C131.62 187.11, 85.89 186.84, -0.08 183.19 M-1.69 181.56 C-4.5 109.63, 0.98 42.52, -0.19 3.58 M0.87 184.72 C-2.16 133.97, 1.12 84.41, 0.54 -0.07" stroke="#cc6800" stroke-width="2" fill="none"></path></g><g transform="translate(560.0917835179341 39.57273060624573) rotate(6.650200316659098 84 52.5)"><text x="84" y="25" font-family="Virgil, Segoe UI Emoji" font-size="28px" fill="#000000" text-anchor="middle" style="white-space: pre;" direction="ltr">Zmniejszono</text><text x="84" y="60" font-family="Virgil, Segoe UI Emoji" font-size="28px" fill="#000000" text-anchor="middle" style="white-space: pre;" direction="ltr">temperaturę</text><text x="84" y="95" font-family="Virgil, Segoe UI Emoji" font-size="28px" fill="#000000" text-anchor="middle" style="white-space: pre;" direction="ltr">na grzejniku</text></g></svg>