<svg version="1.1" xmlns="http://www.w3.org/2000/svg" viewBox="0 0 1014.3480462080892 211.3333333333336" width="1014.3480462080892" height="211.3333333333336">
  <!-- svg-source:excalidraw -->
  
  <defs>
    <style>
      @font-face {
        font-family: "Virgil";
        src: url("https://excalidraw.com/Virgil.woff2");
      }
      @font-face {
        font-family: "Cascadia";
        src: url("https://excalidraw.com/Cascadia.woff2");
      }
    </style>
  </defs>
  <rect x="0" y="0" width="1014.3480462080892" height="211.3333333333336" fill="#ffffff"></rect><g stroke-linecap="round" transform="translate(425.7828932498402 16.261904761904134) rotate(0 86.5 91.5)"><path d="M0.96 -3.3 L172.37 2.96 L173.76 185.26 L-1.84 182.57" stroke="none" stroke-width="0" fill="#ff8300"></path><path d="M2.7 -2.21 C61.34 1.5, 115 2.41, 170.4 1.16 M0.84 0.47 C52.43 -0.89, 101.83 -3.58, 173.76 -0.17 M172.31 3.92 C173.99 65.2, 174.91 134.12, 170.16 186.26 M173.91 -0.77 C171.45 67.89, 173.63 133.18, 174.79 183.82 M171.48 183.49 C107.55 183.39, 47.33 176.62, 0.86 183.13 M171.05 183.39 C124.02 178.71, 77.65 182.49, 1.57 181.58 M-0.06 186.23 C-5.04 114.38, 0.06 40.14, 2.87 -1.22 M-1.4 184.15 C-2.22 130.87, 0 79.01, -0.72 -1" stroke="#cc6800" stroke-width="2" fill="none"></path></g><g transform="translate(429.58959602348807 58.69177822529298) rotate(6.650200316659098 84 52.5)"><text x="84" y="25" font-family="Virgil, Segoe UI Emoji" font-size="28px" fill="#000000" text-anchor="middle" style="white-space: pre;" direction="ltr">Zmierzono </text><text x="84" y="60" font-family="Virgil, Segoe UI Emoji" font-size="28px" fill="#000000" text-anchor="middle" style="white-space: pre;" direction="ltr">temperaturę</text><text x="84" y="95" font-family="Virgil, Segoe UI Emoji" font-size="28px" fill="#000000" text-anchor="middle" style="white-space: pre;" direction="ltr">pokoju</text></g><g stroke-linecap="round" transform="translate(825.5980591311164 12.85714285714289) rotate(0 86.5 91.5)"><path d="M-2.44 3.58 L174.94 -2.24 L175.96 179.91 L-1.21 184.69" stroke="none" stroke-width="0" fill="#ff8300"></path><path d="M-3.28 -1.8 C62.43 2.64, 124.62 4.05, 174.53 -1.55 M0.73 1.02 C64.6 2.59, 132.25 2.12, 173.26 -1.69 M174.16 1.04 C169.32 48.4, 173.33 99.59, 172.94 181.08 M174.93 0.32 C174.95 68.54, 173.42 140.37, 173.38 181.69 M171.6 180.25 C114.36 189.31, 62.11 185.69, -3.82 182.99 M174.76 183.02 C131.62 187.11, 85.89 186.84, -0.08 183.19 M-1.69 181.56 C-4.5 109.63, 0.98 42.52, -0.19 3.58 M0.87 184.72 C-2.16 133.97, 1.12 84.41, 0.54 -0.07" stroke="#cc6800" stroke-width="2" fill="none"></path></g><g transform="translate(830.8333333333361 42.42987346338862) rotate(6.650200316659098 84 52.5)"><text x="84" y="25" font-family="Virgil, Segoe UI Emoji" font-size="28px" fill="#000000" text-anchor="middle" style="white-space: pre;" direction="ltr">Zmniejszono</text><text x="84" y="60" font-family="Virgil, Segoe UI Emoji" font-size="28px" fill="#000000" text-anchor="middle" style="white-space: pre;" direction="ltr">temperaturę</text><text x="84" y="95" font-family="Virgil, Segoe UI Emoji" font-size="28px" fill="#000000" text-anchor="middle" style="white-space: pre;" direction="ltr">na grzejniku</text></g><g stroke-linecap="round" transform="translate(10 18.3333333333336) rotate(0 86.5 91.5)"><path d="M-2.91 0.13 L171.6 -2.98 L169.88 179.81 L-0.56 185.44" stroke="none" stroke-width="0" fill="#ff8300"></path><path d="M0.57 -0.25 C50.72 0.39, 102.94 -6.77, 169.42 0.57 M-0.69 -0.15 C47.59 -0.27, 95.56 1.55, 173.43 1.75 M170.75 -0.67 C173.87 63.65, 173.55 126.17, 176.64 181.01 M171.72 -1.21 C172.55 45.05, 171.42 87.43, 173.93 184.24 M172.15 180.28 C135.04 181.35, 92.81 178.3, -1.94 184.47 M174.6 184.28 C127.54 182.37, 81.34 182.17, 1.69 184.53 M-3.1 183.57 C-1.64 119.39, 5.46 57.77, -3.91 -1.26 M-1.3 183 C3.08 141.93, 3.03 105.73, 1.67 -1.95" stroke="#cc6800" stroke-width="2" fill="none"></path></g><g transform="translate(19.33333333333394 73.88095238095241) rotate(6.650200316659098 79.5 35)"><text x="79.5" y="25" font-family="Virgil, Segoe UI Emoji" font-size="28px" fill="#000000" text-anchor="middle" style="white-space: pre;" direction="ltr">Zalogowano</text><text x="79.5" y="60" font-family="Virgil, Segoe UI Emoji" font-size="28px" fill="#000000" text-anchor="middle" style="white-space: pre;" direction="ltr">użytkownika</text></g><g stroke-linecap="round" transform="translate(617.6190476190491 10) rotate(0 86.5 91.5)"><path d="M-1.84 2.49 L170.75 0.49 L174.7 184.78 L2.86 185.85" stroke="none" stroke-width="0" fill="#ff8300"></path><path d="M-2.21 1.35 C43.55 -5.8, 96.83 -6.06, 172.64 1.24 M1.83 1.34 C52.96 -4.51, 105.09 -2.82, 171.21 -1.44 M169.41 3.47 C172.23 55.42, 170.72 108.57, 171.47 184.6 M173.59 0.25 C175.59 69.64, 175.18 141.32, 173.75 183.7 M176.32 182.22 C139.5 182.67, 100.27 182.08, -2.28 184.72 M173.63 183.99 C125.47 185.63, 78.67 184.84, -1.53 183.03 M3.84 179.81 C-2.48 119.79, 1.94 55.42, 3.99 0.48 M-0.66 181.19 C-3.66 117.37, -1.4 55.21, -0.73 1.21" stroke="#cc6800" stroke-width="2" fill="none"></path></g><g transform="translate(600.8276912615825 39.45498502201565) rotate(6.650200316659098 104.00000000000006 70)"><text x="104" y="25" font-family="Virgil, Segoe UI Emoji" font-size="28px" fill="#000000" text-anchor="middle" style="white-space: pre;" direction="ltr">Wysłano</text><text x="104" y="60" font-family="Virgil, Segoe UI Emoji" font-size="28px" fill="#000000" text-anchor="middle" style="white-space: pre;" direction="ltr">powiadomienie</text><text x="104" y="95" font-family="Virgil, Segoe UI Emoji" font-size="28px" fill="#000000" text-anchor="middle" style="white-space: pre;" direction="ltr">o zbyt wysokiej</text><text x="104" y="130" font-family="Virgil, Segoe UI Emoji" font-size="28px" fill="#000000" text-anchor="middle" style="white-space: pre;" direction="ltr">temperaturze</text></g><g stroke-linecap="round" transform="translate(217.97336944031463 15.000000000000114) rotate(0 86.5 91.5)"><path d="M1.1 3.1 L176.44 0.17 L171.27 182.88 L-1.13 184" stroke="none" stroke-width="0" fill="#ff8300"></path><path d="M-1.19 -3.44 C37.98 -5.13, 80.51 -0.92, 169.65 1.77 M2 0.94 C41.45 -2.99, 79.98 -3.53, 171.84 0.57 M174.28 -1.58 C175.66 68.58, 170.22 141.2, 176.63 185 M171.09 -0.63 C170.05 68.47, 171.81 141.07, 173.13 184.17 M176.29 186.76 C121.57 187.1, 73.67 180.82, 1.58 180.06 M172.16 181.09 C128.89 182.03, 85.93 183.12, 0.65 183.78 M-2.38 181.07 C-3.66 133.88, 0.33 88.61, 2.81 1.97 M1.83 184.34 C-4.27 128.25, -1.86 75.48, 1.59 0.03" stroke="#cc6800" stroke-width="2" fill="none"></path></g><g transform="translate(225.4201083209428 33.645461212491796) rotate(6.650200316659098 84.00000000000003 70)"><text x="84" y="25" font-family="Virgil, Segoe UI Emoji" font-size="28px" fill="#000000" text-anchor="middle" style="white-space: pre;" direction="ltr">Użytkownik</text><text x="84" y="60" font-family="Virgil, Segoe UI Emoji" font-size="28px" fill="#000000" text-anchor="middle" style="white-space: pre;" direction="ltr">ustawił</text><text x="84" y="95" font-family="Virgil, Segoe UI Emoji" font-size="28px" fill="#000000" text-anchor="middle" style="white-space: pre;" direction="ltr">temperaturę</text><text x="84" y="130" font-family="Virgil, Segoe UI Emoji" font-size="28px" fill="#000000" text-anchor="middle" style="white-space: pre;" direction="ltr">docelową</text></g></svg>