<svg version="1.1" xmlns="http://www.w3.org/2000/svg" viewBox="0 0 184.29878048780483 235" width="184.29878048780483" height="235">
  <!-- svg-source:excalidraw -->
  
  <defs>
    <style>
      @font-face {
        font-family: "Virgil";
        src: url("https://excalidraw.com/Virgil.woff2");
      }
      @font-face {
        font-family: "Cascadia";
        src: url("https://excalidraw.com/Cascadia.woff2");
      }
    </style>
  </defs>
  <rect x="0" y="0" width="184.29878048780483" height="235" fill="#ffffff"></rect><g stroke-linecap="round" transform="translate(10 55) rotate(0 82.14939024390242 85)"><path d="M15.43 35.94 C15.43 35.94, 15.43 35.94, 15.43 35.94 M15.43 35.94 C15.43 35.94, 15.43 35.94, 15.43 35.94 M6.95 62.91 C12.75 48.58, 20.24 40.2, 40.8 19.66 M7.21 59.89 C20.15 45.15, 32.08 29.31, 41.42 17.35 M5.36 71.15 C15.7 57.39, 26.06 45.01, 58.86 4.37 M4.45 74.15 C19.36 57.2, 33.35 36.91, 59.76 8.95 M3.1 82.56 C29.91 60.61, 50.04 35.03, 71.33 9.75 M3.88 82.4 C27.12 60.04, 49.01 31.32, 71.31 5.25 M2.79 94.75 C20.16 78.04, 38.38 55.9, 82.57 3.46 M5.04 94.55 C26.64 75.58, 46.21 50.79, 85.69 5.61 M9.81 111.42 C32.11 72.42, 64.13 42.81, 96.21 4.37 M8.19 106.37 C38.47 73.49, 68.92 39.58, 95.29 2.87 M7.34 119.42 C43.93 72.89, 79.04 34.82, 107.49 10.06 M10.89 115.06 C41.61 76.36, 77.13 35.88, 105.09 5.3 M16.17 126.56 C45.52 83.88, 81.18 41.64, 115.36 14.68 M13.29 123.52 C48.13 84.06, 81.84 42.18, 110.24 9.08 M16.88 133.78 C49.93 95.71, 82.31 49.71, 119.65 13.33 M17.82 131.04 C50.88 91.28, 82.75 52.08, 118.79 13.03 M22.93 142.93 C51.72 105.86, 78.84 76.17, 127.41 19.75 M19.75 139.61 C40.38 115.58, 63.46 88.34, 127.47 18.95 M29.53 142.98 C62.16 102.73, 97.55 55.7, 131.83 22.86 M25.63 146.62 C63.27 104.4, 101.95 59.78, 134.16 22.52 M28.85 152.12 C52.13 125.11, 74.1 104.49, 141.96 29.23 M33.91 149.38 C74.42 100.77, 118.62 51.36, 141.06 26.37 M37.5 157.4 C77.71 113.24, 113.97 69.16, 142.34 31.31 M40 155.41 C66.01 120.38, 95.98 91.17, 143.85 30.77 M47.64 163.79 C71.55 127.85, 103.26 94.42, 154.72 33.98 M44.81 161.85 C85.38 117.16, 123.62 74.1, 150.9 38.69 M49.91 163.18 C88.23 122.71, 124.05 80.67, 157.67 46.78 M51.24 167.05 C90.25 122.3, 125.63 80.34, 156.39 42.51 M56.43 167.32 C86.94 136.98, 122.94 96.28, 162.98 47.91 M60.65 169.99 C90.35 136.39, 120.16 102.79, 162.22 50.56 M72.58 172.66 C106.14 129.79, 134.62 98.12, 165.89 56.96 M70.13 169.62 C93.41 142.09, 118.61 112.89, 165.7 62.29 M75.21 173.57 C112.49 126.83, 146.86 87.79, 170.82 69.9 M76.24 172.55 C105.95 139.8, 131.64 108.06, 166.82 69.84 M83.67 171.28 C109.66 148.45, 135.99 120.03, 172.4 78.42 M87.52 172.54 C107.24 153.18, 125.21 129.95, 170.75 75.8 M96.8 172.69 C119.07 143.88, 140.48 128.09, 171.16 94.1 M98.98 171.78 C118.14 147.94, 136.25 126.26, 169.06 91.93 M111.96 163.85 C133.42 145.33, 145.51 125.31, 159.76 113.67 M116.64 164.87 C132.43 148.49, 144.8 131.7, 163.42 110.9" stroke="#228be6" stroke-width="1" fill="none"></path><path d="M58.03 3.68 C68.1 -0.82, 82.25 -0.16, 93.31 1.71 C104.37 3.59, 114.53 8.87, 124.39 14.94 C134.25 21, 145.8 28.56, 152.46 38.08 C159.12 47.6, 163.11 60.02, 164.34 72.07 C165.58 84.11, 163.47 98.76, 159.86 110.33 C156.25 121.91, 150.19 132.55, 142.69 141.51 C135.19 150.48, 124.87 159.52, 114.84 164.11 C104.82 168.71, 94.05 169.43, 82.55 169.09 C71.05 168.75, 56.28 166.74, 45.83 162.07 C35.39 157.41, 26.79 150.47, 19.87 141.1 C12.95 131.73, 7.48 117.63, 4.33 105.86 C1.18 94.08, -0.9 82.13, 0.97 70.45 C2.84 58.77, 9 45.21, 15.55 35.79 C22.11 26.37, 26.99 19.75, 40.32 13.94 C53.65 8.13, 80.8 0.63, 95.54 0.94 C110.28 1.24, 128.77 14.35, 128.76 15.75 M115.14 8.33 C126.32 11.79, 136.86 20.31, 144.72 29.19 C152.57 38.07, 158.84 50.43, 162.29 61.62 C165.74 72.81, 167.49 84.53, 165.42 96.33 C163.35 108.14, 155.77 122.1, 149.88 132.46 C143.98 142.81, 139.57 152.36, 130.05 158.47 C120.52 164.58, 104.64 168.19, 92.74 169.11 C80.84 170.03, 69.19 166.87, 58.66 163.99 C48.13 161.1, 38.12 159.46, 29.55 151.78 C20.98 144.1, 12.02 128.59, 7.26 117.9 C2.49 107.22, 1.39 98.81, 0.97 87.69 C0.55 76.56, -0.01 62.5, 4.75 51.15 C9.51 39.8, 20.72 27.43, 29.54 19.59 C38.35 11.75, 46.95 7.3, 57.64 4.11 C68.33 0.91, 84.46 -0.37, 93.69 0.41 C102.91 1.2, 109.35 7.85, 112.99 8.82 C116.63 9.79, 115.37 5.53, 115.54 6.21" stroke="#2b8a3e" stroke-width="2" fill="none"></path></g><g stroke-linecap="round" transform="translate(89 65) rotate(0 30 29.5)"><path d="M36.43 1.77 C42.45 2.78, 52.5 5.91, 56.57 11.14 C60.65 16.37, 61.95 26.77, 60.89 33.16 C59.84 39.54, 54.94 45.24, 50.24 49.44 C45.54 53.64, 39.06 57.85, 32.69 58.35 C26.32 58.86, 17.12 55.88, 12.04 52.47 C6.97 49.06, 3.99 43.55, 2.24 37.9 C0.5 32.24, -0.83 24.53, 1.56 18.53 C3.95 12.54, 10.18 4.8, 16.58 1.95 C22.97 -0.91, 35.6 0.99, 39.95 1.4 C44.3 1.81, 42.96 3.75, 42.66 4.42 M19.51 0.11 C25.15 -2.24, 35.79 1.44, 41.36 3.76 C46.93 6.08, 49.83 9.47, 52.92 14.06 C56 18.64, 60.54 24.98, 59.87 31.27 C59.2 37.56, 53.41 47.3, 48.88 51.8 C44.35 56.31, 39.47 58.39, 32.71 58.29 C25.96 58.19, 13.29 54.88, 8.35 51.21 C3.41 47.54, 3.39 42.35, 3.06 36.26 C2.73 30.18, 3.88 20.53, 6.37 14.7 C8.85 8.88, 15.97 3.62, 17.99 1.31 C20 -1, 17.66 0.02, 18.44 0.85" stroke="none" stroke-width="0" fill="#40c057"></path><path d="M43.82 4.22 C49.15 6.92, 53.15 14.24, 55.83 19.78 C58.52 25.33, 61.4 31.87, 59.94 37.48 C58.48 43.1, 52.88 49.74, 47.08 53.48 C41.28 57.23, 31.86 60.52, 25.12 59.94 C18.39 59.37, 11 54.62, 6.67 50.03 C2.34 45.45, -0.96 38.97, -0.85 32.42 C-0.74 25.87, 3.51 15.96, 7.34 10.71 C11.17 5.46, 14.35 0.62, 22.13 0.91 C29.91 1.2, 47.74 9.2, 54.02 12.47 C60.31 15.74, 60.35 20.6, 59.85 20.54 M53.03 8.58 C58.1 12.25, 59.58 19.82, 59.59 26.42 C59.6 33.01, 56.65 42.71, 53.09 48.15 C49.52 53.58, 44.48 57.65, 38.21 59.02 C31.94 60.4, 21.2 58.89, 15.48 56.4 C9.76 53.91, 6.02 49.52, 3.87 44.09 C1.71 38.66, 0.88 29.84, 2.58 23.82 C4.27 17.8, 8.86 11.78, 14.04 7.95 C19.23 4.11, 27.92 0.34, 33.69 0.81 C39.46 1.28, 45.46 9.06, 48.66 10.79 C51.86 12.51, 53.22 11.23, 52.89 11.17" stroke="#2b8a3e" stroke-width="2" fill="none"></path></g><g stroke-linecap="round" transform="translate(19 138) rotate(0 23.5 33.5)"><path d="M23.01 -1.66 C28.21 -2.74, 34.13 2.38, 37.88 6.54 C41.63 10.71, 44.26 16.62, 45.51 23.34 C46.77 30.06, 47.46 40.27, 45.41 46.85 C43.37 53.43, 37.64 59.44, 33.22 62.82 C28.81 66.2, 23.98 68.46, 18.93 67.13 C13.88 65.8, 6.24 60.99, 2.91 54.84 C-0.43 48.69, -1.55 37.8, -1.09 30.21 C-0.63 22.63, -1.28 12.3, 5.66 9.33 C12.6 6.35, 34.17 6.87, 40.56 12.38 C46.95 17.88, 44.28 41.96, 44 42.36 M33.64 4.4 C37.69 6.73, 39.13 11.63, 41.33 17.09 C43.52 22.54, 47.45 30.04, 46.79 37.14 C46.14 44.23, 41 54.78, 37.39 59.64 C33.78 64.5, 30.51 66.65, 25.15 66.29 C19.78 65.94, 8.94 61.93, 5.21 57.51 C1.48 53.1, 2.63 46.76, 2.77 39.79 C2.9 32.81, 4.03 22.11, 6.02 15.67 C8.01 9.22, 10.54 3.68, 14.71 1.14 C18.87 -1.4, 27.76 -0.09, 31.01 0.44 C34.26 0.97, 33.95 3.21, 34.21 4.31" stroke="none" stroke-width="0" fill="#40c057"></path><path d="M21.76 1.66 C26.75 0.97, 35.69 2.91, 39.99 7.13 C44.28 11.35, 47.08 19.58, 47.54 26.98 C48 34.38, 45.64 45.13, 42.74 51.56 C39.85 57.99, 34.87 63.08, 30.16 65.56 C25.45 68.05, 18.8 69.19, 14.48 66.47 C10.17 63.74, 6.86 55.68, 4.3 49.22 C1.73 42.76, -1.7 34.41, -0.91 27.73 C-0.11 21.05, 2.66 13.16, 9.06 9.12 C15.45 5.09, 31.62 1.94, 37.47 3.51 C43.32 5.08, 44.36 18.07, 44.18 18.54 M33.42 3.45 C37.16 6.32, 40.94 15.23, 43.02 21.94 C45.11 28.65, 47.37 37.2, 45.92 43.71 C44.47 50.22, 38.31 56.91, 34.31 61.02 C30.32 65.13, 26.28 68.81, 21.97 68.35 C17.66 67.89, 11.79 63.25, 8.44 58.25 C5.09 53.24, 2.26 45.55, 1.88 38.3 C1.5 31.05, 3.86 20.53, 6.15 14.75 C8.43 8.98, 10.58 5.16, 15.59 3.67 C20.6 2.19, 33.58 5.8, 36.23 5.85 C38.88 5.91, 32.24 4.38, 31.48 4" stroke="#2b8a3e" stroke-width="2" fill="none"></path></g><g stroke-linecap="round" transform="translate(70 77) rotate(0 15 16)"><path d="M20.82 1.46 C23.38 2.4, 25.56 3.68, 27.15 6.41 C28.75 9.13, 30.81 14.36, 30.37 17.8 C29.94 21.24, 26.84 24.49, 24.56 27.06 C22.29 29.63, 20.11 32.64, 16.72 33.2 C13.33 33.76, 7.14 32.87, 4.21 30.43 C1.28 27.99, -0.29 22.35, -0.87 18.56 C-1.45 14.77, -0.86 10.5, 0.73 7.69 C2.32 4.88, 5.54 2.64, 8.68 1.72 C11.83 0.8, 17.38 1.84, 19.61 2.15 C21.83 2.45, 21.72 3.34, 22.04 3.53 M3.33 3.12 C5.39 0.2, 12.55 -2.84, 16.04 -2.61 C19.54 -2.38, 21.66 1.85, 24.3 4.52 C26.94 7.18, 31.81 10.25, 31.86 13.4 C31.92 16.55, 26.29 20.27, 24.61 23.41 C22.93 26.55, 23.94 31.14, 21.8 32.24 C19.67 33.34, 15.34 31.65, 11.8 30.02 C8.26 28.4, 2.59 25.72, 0.55 22.49 C-1.48 19.25, -1.76 13.58, -0.43 10.61 C0.9 7.64, 7.19 5.6, 8.55 4.69 C9.9 3.78, 7.61 5.04, 7.71 5.16" stroke="none" stroke-width="0" fill="#ffffffff"></path><path d="M23.04 0.91 C26.31 1.77, 28.78 5.35, 29.66 8.83 C30.54 12.3, 29.59 18.27, 28.31 21.78 C27.03 25.29, 24.61 27.97, 21.96 29.91 C19.3 31.85, 15.15 34.07, 12.37 33.43 C9.59 32.79, 7.55 28.79, 5.28 26.07 C3.01 23.35, -0.97 20.15, -1.26 17.11 C-1.55 14.07, 1.19 10.88, 3.56 7.82 C5.92 4.75, 8.94 -1.06, 12.94 -1.27 C16.93 -1.48, 24.48 4.05, 27.53 6.56 C30.57 9.06, 31.26 13.23, 31.22 13.77 M15.15 2.43 C18.21 2.84, 23.83 4.32, 25.9 6.46 C27.96 8.6, 27.24 11.79, 27.52 15.26 C27.81 18.74, 28.88 24.37, 27.61 27.31 C26.34 30.26, 22.86 32.09, 19.9 32.94 C16.93 33.78, 12.65 34.07, 9.82 32.38 C6.98 30.69, 4.73 25.91, 2.87 22.8 C1.01 19.69, -2.46 16.69, -1.34 13.73 C-0.22 10.77, 6.85 7.28, 9.58 5.03 C12.32 2.79, 13.99 1.48, 15.06 0.25 C16.13 -0.97, 15.56 -2.92, 15.99 -2.3" stroke="#f0f0f0" stroke-width="2" fill="none"></path></g><g stroke-linecap="round" transform="translate(53 163) rotate(0 15 16)"><path d="M2.55 4.89 C4.2 2, 9.25 0.43, 12.44 -0.23 C15.63 -0.88, 18.72 -0.96, 21.68 0.95 C24.65 2.86, 29.23 7.57, 30.25 11.23 C31.27 14.88, 29.23 19.92, 27.81 22.88 C26.4 25.83, 24.44 27.57, 21.77 28.95 C19.1 30.34, 14.93 31.45, 11.8 31.17 C8.68 30.9, 5.28 29.64, 3.01 27.3 C0.75 24.97, -4 21.54, -1.78 17.16 C0.43 12.77, 11.12 2.11, 16.3 0.98 C21.49 -0.15, 29.45 10.02, 29.32 10.35 M25.33 1.56 C28 3.65, 28.19 10.35, 28.9 14.07 C29.62 17.8, 31.68 21.24, 29.63 23.88 C27.58 26.52, 19.57 28.6, 16.59 29.9 C13.6 31.21, 13.77 32.91, 11.74 31.71 C9.71 30.51, 6.49 26.03, 4.41 22.72 C2.34 19.4, -0.81 15.35, -0.71 11.83 C-0.6 8.3, 1.88 3.3, 5.03 1.58 C8.18 -0.14, 14.57 0.79, 18.17 1.51 C21.77 2.23, 25.14 5.27, 26.64 5.9 C28.13 6.53, 27.13 5.06, 27.15 5.31" stroke="none" stroke-width="0" fill="#ffffffff"></path><path d="M26.94 4.35 C28.75 6.94, 29.15 12.83, 28.93 16.49 C28.71 20.14, 27.55 23.5, 25.62 26.28 C23.69 29.06, 20.08 32.66, 17.36 33.16 C14.63 33.66, 12.19 31.09, 9.27 29.28 C6.35 27.48, 1.19 25.09, -0.14 22.31 C-1.47 19.52, -0.13 16.15, 1.28 12.56 C2.69 8.98, 5.74 3.01, 8.33 0.81 C10.93 -1.4, 13.47 -1.36, 16.86 -0.68 C20.24 0, 26.68 3.14, 28.65 4.88 C30.62 6.63, 29.08 9.37, 28.67 9.79 M15.6 1.23 C18.56 0.81, 20.27 1.81, 22.78 4.2 C25.29 6.59, 29.56 11.95, 30.65 15.59 C31.73 19.23, 30.87 23.05, 29.29 26.04 C27.71 29.03, 24.24 32.62, 21.17 33.53 C18.1 34.43, 14.48 32.74, 10.87 31.47 C7.27 30.19, 0.88 28.61, -0.44 25.86 C-1.75 23.1, 2.23 18.7, 2.97 14.94 C3.72 11.19, 2.05 6.26, 4.02 3.31 C6 0.36, 12.71 -2.62, 14.81 -2.74 C16.92 -2.87, 16.52 2.28, 16.63 2.56" stroke="#f0f0f0" stroke-width="2" fill="none"></path></g><g stroke-linecap="round" transform="translate(122 108) rotate(0 15 16)"><path d="M20.2 0.22 C23.21 1.09, 25.53 3.41, 27.36 6.62 C29.19 9.82, 31.82 15.59, 31.19 19.46 C30.55 23.33, 26.38 27.84, 23.57 29.82 C20.76 31.81, 17.48 31.68, 14.33 31.37 C11.18 31.05, 7.12 29.83, 4.65 27.92 C2.18 26.01, 0.27 23.05, -0.5 19.91 C-1.28 16.77, -1.55 12.07, -0.02 9.08 C1.5 6.09, 4.26 2.66, 8.66 1.98 C13.06 1.31, 23.19 3.29, 26.36 5.03 C29.54 6.77, 27.76 12.57, 27.71 12.41 M13.7 0.18 C17.05 0.23, 24.18 0.93, 26.36 2.82 C28.54 4.71, 26.06 7.89, 26.77 11.53 C27.48 15.16, 31.22 21.5, 30.62 24.62 C30.01 27.74, 26.73 29.26, 23.15 30.23 C19.56 31.19, 12.75 31.7, 9.12 30.42 C5.49 29.15, 2.42 25.12, 1.35 22.56 C0.28 20, 1.83 17.88, 2.71 15.07 C3.58 12.25, 4.26 8.04, 6.62 5.68 C8.99 3.32, 15.12 1.44, 16.91 0.88 C18.69 0.32, 17.56 2.07, 17.35 2.32" stroke="none" stroke-width="0" fill="#ffffffff"></path><path d="M8.12 2.44 C10.5 1.21, 15.04 0.18, 18.14 1.24 C21.24 2.31, 24.56 6.22, 26.72 8.86 C28.87 11.5, 31.55 13.91, 31.08 17.08 C30.62 20.26, 26.38 25.2, 23.92 27.92 C21.46 30.63, 19.1 33.5, 16.33 33.36 C13.57 33.22, 10.01 29.5, 7.33 27.06 C4.65 24.62, 0.96 22.08, 0.27 18.74 C-0.42 15.4, -1.05 9.23, 3.18 7 C7.4 4.77, 21.24 3.27, 25.64 5.37 C30.03 7.47, 29.84 19.87, 29.54 19.61 M22.88 4.3 C25.39 6.45, 29.61 12.09, 30.66 15.73 C31.72 19.38, 30.82 23.19, 29.21 26.16 C27.61 29.13, 24.12 32.7, 21.04 33.57 C17.96 34.45, 14.34 32.72, 10.75 31.41 C7.16 30.1, 0.79 28.49, -0.5 25.73 C-1.79 22.96, 2.23 18.55, 3 14.8 C3.78 11.05, 2.14 6.15, 4.13 3.22 C6.13 0.3, 11.28 -3.3, 14.95 -2.73 C18.63 -2.17, 24.53 5.85, 26.18 6.63 C27.83 7.42, 25.01 1.72, 24.86 1.98" stroke="#f0f0f0" stroke-width="2" fill="none"></path></g><g stroke-linecap="round" transform="translate(24 114) rotate(0 15 16)"><path d="M5.91 2.05 C8.42 0.29, 14.48 0.51, 17.51 1.25 C20.53 1.99, 22.18 4.4, 24.06 6.5 C25.94 8.59, 28.39 10.85, 28.76 13.83 C29.13 16.81, 28.03 21.36, 26.27 24.39 C24.51 27.42, 21.4 30.89, 18.19 32.03 C14.98 33.16, 9.91 32.56, 6.99 31.18 C4.08 29.8, 1.68 26.87, 0.72 23.72 C-0.25 20.58, -0.48 16.02, 1.2 12.31 C2.88 8.61, 7.69 3.74, 10.79 1.51 C13.89 -0.72, 19.54 -1.15, 19.79 -1.07 M5.43 5.08 C6.9 2.19, 6.13 -0.75, 9.37 -1.09 C12.62 -1.43, 21.16 1.22, 24.89 3.02 C28.63 4.83, 31.25 6.82, 31.78 9.76 C32.31 12.7, 29.74 17.61, 28.07 20.66 C26.39 23.72, 23.92 25.97, 21.74 28.07 C19.57 30.18, 17.79 33.27, 15.01 33.27 C12.23 33.27, 7.2 30.78, 5.08 28.06 C2.95 25.34, 2.06 20.35, 2.23 16.97 C2.41 13.59, 5.73 9.48, 6.13 7.78 C6.52 6.09, 5.29 6.71, 4.61 6.81" stroke="none" stroke-width="0" fill="#ffffffff"></path><path d="M7.56 1.95 C10.29 0.48, 14.68 1.45, 18.19 2.14 C21.69 2.83, 26.85 3.48, 28.6 6.09 C30.34 8.7, 29.07 14, 28.64 17.79 C28.22 21.58, 27.91 26.76, 26.05 28.84 C24.2 30.92, 20.82 30.37, 17.5 30.26 C14.18 30.15, 8.72 30.17, 6.13 28.17 C3.54 26.16, 2.61 21.17, 1.99 18.24 C1.36 15.31, -0.28 13.61, 2.38 10.59 C5.04 7.57, 14.1 1.26, 17.95 0.1 C21.8 -1.06, 25.31 3.37, 25.47 3.63 M21.64 2.79 C25.23 4.12, 28.47 6.89, 30.1 10.06 C31.73 13.24, 32.14 18.6, 31.42 21.85 C30.7 25.09, 28.98 27.42, 25.77 29.54 C22.55 31.67, 15.2 34.48, 12.13 34.59 C9.06 34.71, 9.66 33.01, 7.33 30.25 C5 27.49, -0.88 22.32, -1.86 18.03 C-2.84 13.73, -0.78 7.02, 1.44 4.5 C3.66 1.97, 8.28 3.89, 11.47 2.91 C14.67 1.93, 18.89 -1.6, 20.6 -1.39 C22.31 -1.18, 22.24 3.23, 21.74 4.18" stroke="#f0f0f0" stroke-width="2" fill="none"></path></g><g stroke-linecap="round" transform="translate(105 192) rotate(0 13 12)"><path d="M10.67 1.69 C12.98 1.33, 14.62 2.19, 16.76 2.92 C18.89 3.64, 22.18 4.17, 23.48 6.04 C24.77 7.91, 25.14 11.45, 24.54 14.16 C23.94 16.86, 22.24 20.53, 19.89 22.27 C17.53 24.01, 13.15 24.72, 10.39 24.59 C7.62 24.47, 4.88 23.34, 3.29 21.52 C1.69 19.69, 1.21 16.14, 0.81 13.65 C0.41 11.15, -1.81 9.09, 0.89 6.56 C3.59 4.02, 13.66 -0.96, 17 -1.56 C20.34 -2.16, 21.51 2.58, 20.93 2.97 M10.84 -1.33 C13.57 -1.06, 21.44 2.33, 24.4 4.21 C27.37 6.09, 28.89 7.66, 28.62 9.94 C28.36 12.22, 24.92 15.91, 22.79 17.88 C20.67 19.85, 17.95 20.66, 15.88 21.76 C13.81 22.87, 12.53 24.96, 10.36 24.51 C8.2 24.06, 4.18 21.48, 2.89 19.08 C1.59 16.67, 1.75 12.55, 2.59 10.09 C3.43 7.64, 5.91 5.9, 7.93 4.36 C9.94 2.82, 14.15 1.26, 14.7 0.84 C15.25 0.43, 11.83 1.32, 11.22 1.86" stroke="none" stroke-width="0" fill="#12b886"></path><path d="M19.36 3.57 C22.06 4.56, 25.98 5.51, 26.69 7.76 C27.4 10, 24.84 14.31, 23.61 17.04 C22.38 19.77, 21.37 23.33, 19.32 24.15 C17.26 24.97, 14.1 22.94, 11.28 21.96 C8.46 20.97, 4.02 20.34, 2.4 18.26 C0.77 16.18, 1.2 11.67, 1.55 9.5 C1.91 7.32, 2.8 6.82, 4.52 5.23 C6.24 3.63, 8.84 0.34, 11.88 -0.09 C14.91 -0.51, 20.42 1.62, 22.73 2.68 C25.03 3.73, 25.77 6.19, 25.73 6.26 M14.22 1.31 C17.03 1.18, 20.57 3.25, 22.77 4.74 C24.98 6.22, 27.52 7.63, 27.47 10.21 C27.41 12.79, 23.6 17.63, 22.44 20.21 C21.28 22.79, 23.06 25.13, 20.5 25.68 C17.93 26.23, 10.31 25.21, 7.06 23.53 C3.81 21.86, 2.02 17.45, 1 15.63 C-0.01 13.81, 0.46 15.12, 0.95 12.59 C1.45 10.06, 1.89 2.1, 3.98 0.44 C6.07 -1.22, 12.5 2.38, 13.47 2.61 C14.44 2.84, 9.78 2.22, 9.79 1.82" stroke="#2b8a3e" stroke-width="2" fill="none"></path></g><g stroke-linecap="round" transform="translate(109 167) rotate(0 11 12.5)"><path d="M4.62 3.24 C6.15 1.65, 10.03 -0.48, 12.38 -0.29 C14.73 -0.1, 17.27 2.02, 18.74 4.38 C20.2 6.73, 21.41 10.96, 21.15 13.85 C20.9 16.74, 18.81 19.72, 17.2 21.7 C15.59 23.69, 13.44 25.49, 11.52 25.75 C9.6 26, 7.73 24.66, 5.67 23.25 C3.61 21.84, -0.28 20.19, -0.83 17.27 C-1.37 14.36, 0.56 8.6, 2.39 5.75 C4.21 2.9, 8.44 1.09, 10.14 0.17 C11.84 -0.75, 12.55 -0.19, 12.59 0.21 M10.91 1.26 C14 0.63, 17.11 -0.29, 18.63 0.64 C20.15 1.56, 19.69 4.52, 20.04 6.81 C20.38 9.09, 20.79 11.39, 20.71 14.33 C20.64 17.27, 21.16 22.38, 19.59 24.43 C18.01 26.48, 13.64 27.04, 11.25 26.63 C8.86 26.22, 6.67 23.87, 5.24 21.97 C3.81 20.07, 3.05 17.93, 2.69 15.24 C2.33 12.56, 2.56 8.09, 3.09 5.87 C3.63 3.65, 5.45 2.35, 5.91 1.94 C6.37 1.54, 5.3 3.32, 5.86 3.44" stroke="none" stroke-width="0" fill="#12b886"></path><path d="M15.1 -0.46 C17.23 -0.17, 17.52 2.99, 18.76 5.57 C20 8.16, 22.31 12.68, 22.54 15.04 C22.76 17.39, 21.92 18.17, 20.13 19.69 C18.33 21.21, 14.12 23.92, 11.79 24.14 C9.47 24.36, 7.92 22.16, 6.17 21 C4.41 19.85, 2.06 19.54, 1.25 17.21 C0.45 14.88, 0.45 9.89, 1.33 7 C2.2 4.12, 3.69 0.78, 6.51 -0.11 C9.33 -1, 16.03 1.23, 18.23 1.67 C20.43 2.11, 20.08 2.25, 19.72 2.54 M18.12 3.77 C20.15 4.77, 22.81 6.17, 23.02 8.74 C23.22 11.3, 19.97 16.32, 19.35 19.16 C18.73 22, 21.27 24.8, 19.27 25.77 C17.27 26.74, 10.26 26.26, 7.34 24.96 C4.41 23.66, 2.8 19.62, 1.72 17.96 C0.64 16.29, 0.76 17.63, 0.83 14.97 C0.91 12.3, 0.65 4.01, 2.15 1.99 C3.65 -0.03, 7.94 2.65, 9.84 2.84 C11.75 3.03, 12.37 3.46, 13.59 3.13 C14.81 2.79, 17.1 0.76, 17.15 0.81" stroke="#2b8a3e" stroke-width="2" fill="none"></path></g><g stroke-linecap="round" transform="translate(129 181) rotate(0 9 8.5)"><path d="M12.92 0.87 C14.56 1.32, 16 3.59, 16.58 5.55 C17.15 7.51, 17.28 10.76, 16.37 12.63 C15.45 14.5, 12.81 15.96, 11.09 16.79 C9.36 17.61, 7.45 18.07, 6.01 17.56 C4.56 17.06, 3.61 15.17, 2.4 13.75 C1.19 12.33, -1.53 11.21, -1.26 9.04 C-0.98 6.87, 2.5 2.23, 4.06 0.76 C5.61 -0.72, 6.12 -0.58, 8.09 0.18 C10.05 0.94, 14.28 3.21, 15.83 5.3 C17.38 7.4, 17.3 12.92, 17.38 12.74 M7.8 0.16 C8.81 -0.97, 8.87 -0.74, 10.15 -0.47 C11.43 -0.19, 13.75 -0.06, 15.48 1.79 C17.2 3.64, 20.26 8.23, 20.51 10.62 C20.75 13.02, 18.36 14.94, 16.96 16.14 C15.57 17.34, 13.86 17.61, 12.14 17.84 C10.41 18.07, 8.42 18.56, 6.61 17.53 C4.8 16.5, 2.66 13.45, 1.26 11.63 C-0.13 9.81, -1.94 7.94, -1.75 6.61 C-1.55 5.29, 1.2 4.45, 2.45 3.7 C3.69 2.95, 5.54 2.35, 5.73 2.1" stroke="none" stroke-width="0" fill="#12b886"></path><path d="M13.98 2.58 C15.27 4.09, 17.89 7.5, 18.54 9 C19.18 10.5, 19.04 10.42, 17.85 11.56 C16.65 12.71, 13.2 15.35, 11.36 15.85 C9.53 16.35, 8.45 14.91, 6.86 14.56 C5.26 14.21, 2.85 15.14, 1.8 13.76 C0.75 12.38, 0.2 8.51, 0.54 6.28 C0.88 4.05, 2.06 1.44, 3.82 0.37 C5.59 -0.7, 8.81 -0.59, 11.16 -0.12 C13.51 0.35, 16.83 1.79, 17.92 3.18 C19.01 4.57, 17.81 7.71, 17.71 8.23 M14.54 1.53 C15.6 2.23, 14.13 5.55, 15.09 7.5 C16.04 9.45, 20.76 11.9, 20.28 13.25 C19.8 14.59, 14.39 15.39, 12.21 15.55 C10.04 15.71, 8.7 14, 7.25 14.2 C5.79 14.4, 4.74 18.01, 3.49 16.74 C2.24 15.48, -0.1 8.34, -0.25 6.59 C-0.4 4.85, 1.89 7.03, 2.58 6.25 C3.28 5.46, 2.07 2.94, 3.93 1.87 C5.78 0.8, 12.57 -0.15, 13.73 -0.17 C14.88 -0.19, 11.21 1.55, 10.84 1.75" stroke="#2b8a3e" stroke-width="2" fill="none"></path></g><g transform="translate(52 10) rotate(0 42 20)"><text x="42" y="14" font-family="Virgil, Segoe UI Emoji" font-size="16px" fill="#000000" text-anchor="middle" style="white-space: pre;" direction="ltr">świat </text><text x="42" y="34" font-family="Virgil, Segoe UI Emoji" font-size="16px" fill="#000000" text-anchor="middle" style="white-space: pre;" direction="ltr">zewnętrzny</text></g></svg>