<svg version="1.1" xmlns="http://www.w3.org/2000/svg" viewBox="0 0 713.3904082820463 351.9866912825571" width="713.3904082820463" height="242">
  <!-- svg-source:excalidraw -->
  
  <defs>
    <style>
      @font-face {
        font-family: "Virgil";
        src: url("https://excalidraw.com/Virgil.woff2");
      }
      @font-face {
        font-family: "Cascadia";
        src: url("https://excalidraw.com/Cascadia.woff2");
      }
    </style>
  </defs>
  <rect x="0" y="0" width="713.3904082820463" height="351.9866912825571" fill="#ffffff"></rect><g stroke-linecap="round" transform="translate(10 13.328897094186118) rotate(0 160.62779580828055 164.3288970941855)"><path d="M162.62 -0.33 L320.89 168.76 L158.96 326.81 L2.42 168.08" stroke="none" stroke-width="0" fill="#e000b1" fill-rule="evenodd"></path><path d="M163.21 2.36 C194.24 36.29, 228.38 71.49, 319.39 162.19 M161.47 -0.82 C193.25 36.72, 228.77 70.31, 319.99 165.62 M321.62 167.9 C258.75 225.76, 207.75 284.7, 161.48 327.72 M322.24 164.19 C283.59 198.75, 251.13 235.49, 159.94 330.03 M162.41 330.36 C114.8 275.67, 60.94 226.6, -0.13 164.71 M160.56 330.05 C127.4 292.76, 93.5 256.6, 0.45 164.41 M-0.21 165.48 C60 100.71, 124.02 41.39, 160.8 0.2 M-0.86 165.74 C49.79 112.39, 98.24 63.01, 161.09 0.5" stroke="#ad0088" stroke-width="2" fill="none"></path></g><g transform="translate(68.4756618396932 94.38006373459291) rotate(0 104.90196078431359 74.30555555555551)"><text x="104.90196078431363" y="20.722222222222207" font-family="Virgil, Segoe UI Emoji" font-size="23.90534488085497px" fill="#000000" text-anchor="middle" style="white-space: pre;" direction="ltr">Czy wysyłać </text><text x="104.90196078431363" y="50.444444444444414" font-family="Virgil, Segoe UI Emoji" font-size="23.90534488085497px" fill="#000000" text-anchor="middle" style="white-space: pre;" direction="ltr">każde badanie </text><text x="104.90196078431363" y="80.16666666666663" font-family="Virgil, Segoe UI Emoji" font-size="23.90534488085497px" fill="#000000" text-anchor="middle" style="white-space: pre;" direction="ltr">temperatury </text><text x="104.90196078431363" y="109.88888888888883" font-family="Virgil, Segoe UI Emoji" font-size="23.90534488085497px" fill="#000000" text-anchor="middle" style="white-space: pre;" direction="ltr">do backendu?</text><text x="104.90196078431363" y="139.61111111111103" font-family="Virgil, Segoe UI Emoji" font-size="23.90534488085497px" fill="#000000" text-anchor="middle" style="white-space: pre;" direction="ltr">[transfer danych]</text></g><g stroke-linecap="round" transform="translate(382.13481666548523 10) rotate(0 160.62779580828055 164.3288970941855)"><path d="M164.96 0.82 L321.27 164.67 L157.5 325.94 L-2.78 164.54" stroke="none" stroke-width="0" fill="#e000b1" fill-rule="evenodd"></path><path d="M159.78 -1.11 C223.99 56.17, 283.09 116.96, 321.67 162.52 M159.54 0.88 C216.38 56.29, 273.84 114.07, 322.57 164.7 M320.26 162.73 C290.07 201.58, 252.92 234.81, 161.55 331.28 M320.12 165.85 C280.16 203.91, 239.78 244.59, 162.15 330.01 M158.4 325.26 C124.14 293.37, 91.52 254.12, 1.92 165.33 M161.1 327.99 C109.01 280.47, 57.11 227.62, -1.65 164.88 M0.03 162.39 C45.94 116.25, 101.14 61.94, 163.78 -2.12 M0.2 163.61 C57.05 106.23, 115.87 49.03, 159.5 -0.72" stroke="#ad0088" stroke-width="2" fill="none"></path></g><g transform="translate(436.77714517184563 116.0511666404069) rotate(0 111.34166666666658 58.294066317626516)"><text x="111.34166666666661" y="20.14703315881325" font-family="Virgil, Segoe UI Emoji" font-size="23.317626527050596px" fill="#000000" text-anchor="middle" style="white-space: pre;" direction="ltr">Całkowita blokada </text><text x="111.34166666666661" y="49.2940663176265" font-family="Virgil, Segoe UI Emoji" font-size="23.317626527050596px" fill="#000000" text-anchor="middle" style="white-space: pre;" direction="ltr">grzejnika? Co z </text><text x="111.34166666666661" y="78.44109947643975" font-family="Virgil, Segoe UI Emoji" font-size="23.317626527050596px" fill="#000000" text-anchor="middle" style="white-space: pre;" direction="ltr">zabezpieczeniem </text><text x="111.34166666666661" y="107.588132635253" font-family="Virgil, Segoe UI Emoji" font-size="23.317626527050596px" fill="#000000" text-anchor="middle" style="white-space: pre;" direction="ltr">antyzamarzeniowym</text></g></svg>