<svg version="1.1" xmlns="http://www.w3.org/2000/svg" viewBox="0 0 437.46320944365357 242" width="437.46320944365357" height="242">
  <!-- svg-source:excalidraw -->
  
  <defs>
    <style>
      @font-face {
        font-family: "Virgil";
        src: url("https://excalidraw.com/Virgil.woff2");
      }
      @font-face {
        font-family: "Cascadia";
        src: url("https://excalidraw.com/Cascadia.woff2");
      }
    </style>
  </defs>
  <rect x="0" y="0" width="437.46320944365357" height="242" fill="#ffffff"></rect><g stroke-linecap="round" transform="translate(10 10) rotate(0 108.5 111)"><path d="M112.88 -2.18 L218.34 110.25 L111.99 220.57 L-1.68 109.6" stroke="none" stroke-width="0" fill="#e000b1" fill-rule="evenodd"></path><path d="M111.67 1.23 C151.19 36.63, 192.67 78.43, 220.81 112.76 M108.04 -0.52 C143.89 35.89, 178.97 74.2, 217.5 113.77 M220.79 111.51 C179.95 145.22, 150.25 185.43, 109.8 220.52 M217.05 113.54 C189.08 140.2, 165.05 168.59, 109.32 220.56 M111.28 218.72 C83.35 192.95, 58.97 167.1, 2.2 114.67 M109.83 222.99 C84.5 197.02, 61.05 172.94, -0.07 111.1 M3.4 114.71 C26.09 86.23, 54.59 55.74, 107.85 2.96 M-1.28 113.55 C39.68 69.47, 82.74 26.45, 107.13 -1.08" stroke="#ad0088" stroke-width="2" fill="none"></path></g><g transform="translate(169.34420183029306 32.4773726128808) rotate(359.60007180615315 129 17.5)"><text x="0" y="25" font-family="Virgil, Segoe UI Emoji" font-size="28px" fill="#000000" text-anchor="start" style="white-space: pre;" direction="ltr">GORĄCE MIEJSCE</text></g><g transform="translate(199.02920855859202 65.98719706902091) rotate(359.60007180615315 54 12.5)"><text x="0" y="18" font-family="Virgil, Segoe UI Emoji" font-size="20px" fill="#000000" text-anchor="start" style="white-space: pre;" direction="ltr">HOT SPOT</text></g><g transform="translate(27.16666666666697 88.83333333333348) rotate(0 97.5 35)"><text x="97.5" y="25" font-family="Virgil, Segoe UI Emoji" font-size="28px" fill="#ffffff" text-anchor="middle" style="white-space: pre;" direction="ltr">Tym zajmiemy </text><text x="97.5" y="60" font-family="Virgil, Segoe UI Emoji" font-size="28px" fill="#ffffff" text-anchor="middle" style="white-space: pre;" direction="ltr">się później</text></g></svg>