<svg version="1.1" xmlns="http://www.w3.org/2000/svg" viewBox="0 0 334 186.18829516539438" width="334" height="186.18829516539438">
  <!-- svg-source:excalidraw -->
  
  <defs>
    <style>
      @font-face {
        font-family: "Virgil";
        src: url("https://excalidraw.com/Virgil.woff2");
      }
      @font-face {
        font-family: "Cascadia";
        src: url("https://excalidraw.com/Cascadia.woff2");
      }
    </style>
  </defs>
  <rect x="0" y="0" width="334" height="186.18829516539438" fill="#ffffff"></rect><g stroke-linecap="round" transform="translate(10 10) rotate(0 157 83.09414758269719)"><path d="M-1.3 -2.3 C92.86 -1.77, 187.14 -2.29, 312.54 -1.41 M-1.36 -1.04 C106.43 -0.36, 211.37 -0.42, 314.9 -1.32 M316.07 -1.13 C312.93 46.31, 317.82 98.19, 315.26 170.11 M312.1 -1.41 C312.37 39.08, 313.58 77.11, 315.49 166.77 M316.63 164.97 C223.71 166.66, 139.78 165.13, 2.71 165.89 M313.39 166.2 C199.4 163.25, 85.2 163.84, 1.21 167.13 M1.3 164.66 C3.96 103.5, -0.15 36.46, -2.98 -2.77 M-1.36 167.97 C2.32 112.64, 4.45 57.04, 0.97 -0.71" stroke="#000000" stroke-width="2" fill="none"></path></g><g transform="translate(88.99999999999977 32.42748091603016) rotate(0 81 17.5)"><text x="81" y="25" font-family="Virgil, Segoe UI Emoji" font-size="28px" fill="#000000" text-anchor="middle" style="white-space: pre;" direction="ltr">Zaloguj się!</text></g><g transform="translate(145.66666666666652 68.92748091603062) rotate(0 24.666666666666742 52.857142857143)"><text x="24.666666666666753" y="73.71428571428605" font-family="Virgil, Segoe UI Emoji" font-size="84.57142857142884px" fill="#000000" text-anchor="middle" style="white-space: pre;" direction="ltr">F</text></g></svg>