<svg version="1.1" xmlns="http://www.w3.org/2000/svg" viewBox="0 0 334 219" width="334" height="219">
  <!-- svg-source:excalidraw -->
  
  <defs>
    <style>
      @font-face {
        font-family: "Virgil";
        src: url("https://excalidraw.com/Virgil.woff2");
      }
      @font-face {
        font-family: "Cascadia";
        src: url("https://excalidraw.com/Cascadia.woff2");
      }
    </style>
  </defs>
  <rect x="0" y="0" width="334" height="219" fill="#ffffff"></rect><g transform="translate(70.5 184) rotate(0 111.5 12.5)"><text x="111.5" y="18" font-family="Virgil, Segoe UI Emoji" font-size="20px" fill="#000000" text-anchor="middle" style="white-space: pre;" direction="ltr">RYSUNEK POGLĄDOWY</text></g><g stroke-linecap="round" transform="translate(10 10) rotate(0 157 83.09414758269719)"><path d="M-2.53 0.92 C105.37 -2.15, 207.3 1.32, 313.09 -1.76 M-0.66 0.95 C103.53 -0.2, 206.72 0, 313.56 -0.78 M310.41 1.23 C311.13 45.96, 314.08 89.22, 311.43 168.59 M314.14 -1.76 C310.38 62.29, 312.34 123.86, 312.04 165.29 M313.35 165.19 C193.32 169.43, 72.38 172.61, 1.42 167.62 M315.26 167.14 C202.34 167.89, 88.6 168.25, -1.25 167.54 M0.84 164.27 C-2.26 112.95, -3.98 57.34, -1.59 1 M0.78 168.08 C-1.18 100.49, -2.79 38.77, 0.21 0.4" stroke="#000000" stroke-width="2" fill="none"></path></g><g stroke-linecap="round" transform="translate(25.180661577609044 69.9236641221396) rotate(0 31.95928753180658 46.740458015267166)"><path d="M35.47 -3.63 C42.53 14.71, 48.43 24.62, 65 45.86 M33.2 -1.45 C42.46 11.63, 48.9 24.93, 63.25 46.17 M62.42 48.66 C53.99 63.18, 39.42 80.32, 34.96 89.9 M63.27 47.12 C55.79 59.81, 43.01 73.22, 33.64 94.1 M31.03 92.38 C17.4 78.49, 9.23 58.99, 2.28 49.98 M32.62 94.03 C18.94 79.67, 8.33 65.2, 0.38 47.74 M-1.03 46.78 C4.68 33.27, 13.48 25.87, 35.55 1.12 M-0.25 45.89 C8.25 32.78, 20.77 16.05, 31.26 -1.12" stroke="#000000" stroke-width="2" fill="none"></path></g><g stroke-linecap="round" transform="translate(32.371501272266414 20.38676844783322) rotate(0 27.165394402035645 25.16793893129767)"><path d="M36.15 0.67 C41.55 2.01, 46.65 6.07, 49.86 10.94 C53.06 15.81, 56.4 24.11, 55.4 29.92 C54.4 35.73, 48.61 42.52, 43.86 45.82 C39.11 49.11, 32.66 49.95, 26.9 49.7 C21.14 49.44, 13.83 47.43, 9.31 44.3 C4.78 41.18, 1.07 36.03, -0.24 30.97 C-1.56 25.9, -1.35 18.65, 1.41 13.93 C4.16 9.21, 8.66 3.68, 16.29 2.65 C23.91 1.61, 41.33 5.03, 47.15 7.73 C52.98 10.43, 51.43 18.89, 51.23 18.83 M25.6 0.19 C31.42 0.07, 41.93 1.72, 46.14 4.84 C50.35 7.96, 49.65 13.35, 50.87 18.91 C52.09 24.47, 55.3 33.36, 53.45 38.2 C51.59 43.03, 45.73 46.26, 39.72 47.94 C33.71 49.62, 23.48 50.18, 17.38 48.27 C11.28 46.36, 5.54 40.73, 3.12 36.49 C0.69 32.25, 1.57 27.59, 2.85 22.84 C4.12 18.08, 6.44 11.62, 10.77 7.96 C15.09 4.3, 25.72 1.79, 28.8 0.89 C31.89 -0.02, 29.46 2.1, 29.25 2.51" stroke="#000000" stroke-width="2" fill="none"></path></g><g stroke-linecap="round"><g transform="translate(117.02001347030591 43.72989559344717) rotate(0 86.31293404715257 -1.3915637525307716)"><path d="M0.88 -0.89 C29.52 -0.88, 141.03 1.36, 169.25 1.56 M-2.08 -3.85 C27.69 -4.86, 146.37 -4.2, 174.71 -3.05" stroke="#000000" stroke-width="4" fill="none"></path></g></g><g stroke-linecap="round"><g transform="translate(117.69994949983356 67.71879503191553) rotate(0 23.100371403813938 0.3549709954924083)"><path d="M-1.74 0.76 C6.11 0.68, 39.74 -1.37, 47.94 -1.32 M2.52 -1.3 C9.83 -0.86, 38.2 2.38, 45.26 2.03" stroke="#000000" stroke-width="1" fill="none"></path></g></g><g stroke-linecap="round"><g transform="translate(184.96252851314512 66.78586844819836) rotate(0 48.48619182391178 -1.7863518915802956)"><path d="M-0.8 -0.52 C15.78 -0.6, 80.85 0.79, 97.77 0.27 M3.96 -3.27 C20.21 -4.21, 78.85 -4, 94.83 -3.72" stroke="#000000" stroke-width="1" fill="none"></path></g></g><g stroke-linecap="round"><g transform="translate(117.65000616101042 87.73085555496016) rotate(0 80.88885070212166 0.3214024201983534)"><path d="M-1.3 1.87 C26.01 1.75, 135.52 -0.78, 163.08 -1.23 M3.19 0.42 C30.35 0.65, 135 1.14, 161.75 1.3" stroke="#000000" stroke-width="1" fill="none"></path></g></g><g stroke-linecap="round"><g transform="translate(118.43872337127505 113.97921366629157) rotate(0 82.81205027891804 -0.8930983077055998)"><path d="M1.68 -2.03 C29.65 -3.14, 139.6 -4.38, 166.47 -4.83 M-0.85 3.04 C27.1 2.09, 138.77 -1.17, 165.69 -2.09" stroke="#000000" stroke-width="1" fill="none"></path></g></g><g stroke-linecap="round" transform="translate(219.33333333333735 135.44020356234364) rotate(0 31.95928753180658 9.987277353689535)"><path d="M-2.34 -1.25 C20.83 -2.56, 44.38 0, 60.33 1.23 M0.31 -1.28 C17.99 1.02, 31.78 -0.51, 64.06 -1.76 M62.98 -3.92 C62.15 8.63, 65.17 14.31, 63 18.57 M65.6 1 C64.82 6.65, 65.3 11.6, 65.7 21.31 M66.05 16.45 C46.58 19.65, 23.1 16.44, 0.84 18.06 M62.51 19.18 C46.9 20.87, 29.43 19.63, 0.78 21.87 M3.52 20.39 C1.02 12.75, -2.01 6.92, 3.91 0.1 M1.67 20.72 C0.45 11.01, -1.31 3.18, -0.75 1.14" stroke="#000000" stroke-width="1" fill="none"></path></g><g transform="translate(240.50636132315844 135.44020356234364) rotate(0 10.786259541984691 9.987277353689535)"><text x="10.786259541984736" y="13.97455470737912" font-family="Virgil, Segoe UI Emoji" font-size="15.979643765903313px" fill="#000000" text-anchor="middle" style="white-space: pre;" direction="ltr">OK</text></g></svg>