<svg version="1.1" xmlns="http://www.w3.org/2000/svg" viewBox="0 0 883.554022667227 249.707517855258" width="883.554022667227" height="249.707517855258">
  <!-- svg-source:excalidraw -->
  
  <defs>
    <style>
      @font-face {
        font-family: "Virgil";
        src: url("https://excalidraw.com/Virgil.woff2");
      }
      @font-face {
        font-family: "Cascadia";
        src: url("https://excalidraw.com/Cascadia.woff2");
      }
    </style>
  </defs>
  <rect x="0" y="0" width="883.554022667227" height="249.707517855258" fill="#ffffff"></rect><g stroke-linecap="round" transform="translate(15.020174322845833 44.856759220670654) rotate(356.6335393365704 204.5 91.5)"><path d="M2.04 3.36 L406.45 -2.43 L405.89 186.2 L3.67 185.02" stroke="none" stroke-width="0" fill="#e7b8ff"></path><path d="M1.15 -1.38 C99.68 2.85, 194.51 -0.85, 408.29 0.74 M0.63 -0.57 C83.09 -1.74, 167.29 -0.79, 407.99 -0.57 M406.12 2.94 C406.54 67.17, 405.85 131.97, 410.95 180.89 M408.69 0.14 C411.94 54.11, 411.54 112.79, 410.26 184.03 M408.01 182.92 C309.43 184.9, 212.03 186.76, -1.68 180.96 M409.69 183.27 C278.15 184.53, 149.76 186.37, -0.48 182.29 M-1.51 180.31 C-0.47 112.92, 1.12 35.89, 0.64 -1.73 M0.78 182.59 C1.45 115.7, -0.55 49.85, 0.75 -0.15" stroke="#b893cc" stroke-width="2" fill="none"></path></g><g transform="translate(311.08543493441266 53.46978777770855) rotate(356.6335393365704 46.5 17.5)"><text x="46.5" y="25" font-family="Virgil, Segoe UI Emoji" font-size="28px" fill="#000000" text-anchor="middle" style="white-space: pre;" direction="ltr">gdy &lt;–</text></g><g transform="translate(45.95520976740136 181.24890754410762) rotate(356.6335393365704 41 17.5)"><text x="41" y="25" font-family="Virgil, Segoe UI Emoji" font-size="28px" fill="#000000" text-anchor="middle" style="white-space: pre;" direction="ltr">&lt;– to</text></g><g transform="translate(36.85926819724591 98.54788917065835) rotate(356.6335393365704 185 35)"><text x="185" y="25" font-family="Virgil, Segoe UI Emoji" font-size="28px" fill="#000000" text-anchor="middle" style="white-space: pre;" direction="ltr">gdy użytkownik nie istnieje </text><text x="185" y="60" font-family="Virgil, Segoe UI Emoji" font-size="28px" fill="#000000" text-anchor="middle" style="white-space: pre;" direction="ltr">to zaproponuj rejestrację</text></g><g stroke-linecap="round" transform="translate(458.35350765617886 24.856759220670767) rotate(4.236394799059029 204.5 91.5)"><path d="M-0.92 1.92 L409.77 1.49 L406.1 183.73 L-1.35 180.87" stroke="none" stroke-width="0" fill="#e7b8ff"></path><path d="M1.02 -0.99 C143.77 1.34, 287.54 3.49, 410.68 -1.68 M0.6 0.69 C85.11 -2.25, 168.73 -0.5, 409.9 -0.48 M412.75 -1.51 C409.78 39.5, 414.61 84.2, 406.33 183.64 M409.84 0.78 C410.9 47.96, 410.45 92.94, 408.74 183.75 M407.59 181.66 C287.68 188.56, 171.82 187.9, 1.19 185.11 M409.69 182.81 C321.71 181.26, 232.9 180.11, -1.01 182.35 M0.54 184.89 C-0.57 121.74, 1.8 64.58, -2.85 -0.51 M0.77 181.51 C2.12 123.48, 3.98 63.54, -0.03 0.61" stroke="#b893cc" stroke-width="2" fill="none"></path></g><g transform="translate(742.4278509356445 179.22299708753724) rotate(4.236394799059029 46.5 17.5)"><text x="46.5" y="25" font-family="Virgil, Segoe UI Emoji" font-size="28px" fill="#000000" text-anchor="middle" style="white-space: pre;" direction="ltr">gdy &lt;–</text></g><g transform="translate(479.3180904543851 154.98077229092866) rotate(4.236394799059029 41 17.5)"><text x="41" y="25" font-family="Virgil, Segoe UI Emoji" font-size="28px" fill="#000000" text-anchor="middle" style="white-space: pre;" direction="ltr">&lt;– to</text></g><g transform="translate(481.913734956619 67.35807481551893) rotate(4.236394799059029 190.5 35)"><text x="190.5" y="25" font-family="Virgil, Segoe UI Emoji" font-size="28px" fill="#000000" text-anchor="middle" style="white-space: pre;" direction="ltr">Kiedy temperatura w pokoju</text><text x="190.5" y="60" font-family="Virgil, Segoe UI Emoji" font-size="28px" fill="#000000" text-anchor="middle" style="white-space: pre;" direction="ltr">jest za wysoka</text></g></svg>