<svg version="1.1" xmlns="http://www.w3.org/2000/svg" viewBox="0 0 863.9999999999986 203" width="863.9999999999986" height="203">
  <!-- svg-source:excalidraw -->
  
  <defs>
    <style>
      @font-face {
        font-family: "Virgil";
        src: url("https://excalidraw.com/Virgil.woff2");
      }
      @font-face {
        font-family: "Cascadia";
        src: url("https://excalidraw.com/Cascadia.woff2");
      }
    </style>
  </defs>
  <rect x="0" y="0" width="863.9999999999986" height="203" fill="#ffffff"></rect><g stroke-linecap="round" transform="translate(10 10) rotate(0 204.5 91.5)"><path d="M1.18 -2.82 L408.95 -3.17 L408.77 185.73 L3.01 180.22" stroke="none" stroke-width="0" fill="#e7b8ff"></path><path d="M-0.72 -2.09 C144.04 3.11, 293.41 2.12, 408.61 0.27 M0.7 -0.9 C117.05 -2.96, 235.35 -1.67, 408.11 -0.77 M411.27 -1.4 C410.58 45.26, 409.4 86.59, 408.19 185.44 M410.24 -0.99 C407.39 47.31, 408.43 92.92, 409.23 183.2 M409.55 182.71 C280.34 184.35, 157.15 186.83, 1.37 183.97 M409 183.77 C311.48 184.53, 211.34 185.93, -0.81 182.85 M-2.37 186.48 C-1.01 120.84, -1.99 64.09, -0.07 -0.98 M1.56 182.63 C3.93 129.9, 3.07 76.35, -1.61 0.66" stroke="#b893cc" stroke-width="2" fill="none"></path></g><g transform="translate(309.66666666666697 26.833333333333258) rotate(0 46.5 17.5)"><text x="46.5" y="25" font-family="Virgil, Segoe UI Emoji" font-size="28px" fill="#000000" text-anchor="middle" style="white-space: pre;" direction="ltr">gdy &lt;–</text></g><g transform="translate(37.5 138.5) rotate(0 41 17.5)"><text x="41" y="25" font-family="Virgil, Segoe UI Emoji" font-size="28px" fill="#000000" text-anchor="middle" style="white-space: pre;" direction="ltr">&lt;– to</text></g><g transform="translate(32 63.83333333333303) rotate(0 185 35)"><text x="185" y="25" font-family="Virgil, Segoe UI Emoji" font-size="28px" fill="#000000" text-anchor="middle" style="white-space: pre;" direction="ltr">gdy użytkownik nie istnieje </text><text x="185" y="60" font-family="Virgil, Segoe UI Emoji" font-size="28px" fill="#000000" text-anchor="middle" style="white-space: pre;" direction="ltr">to zaproponuj rejestrację</text></g><g stroke-linecap="round" transform="translate(444.99999999999864 10) rotate(0 204.5 91.5)"><path d="M-0.56 0.39 L409.32 0.3 L411.77 186.37 L1.84 184.15" stroke="none" stroke-width="0" fill="#e7b8ff"></path><path d="M-1.54 0.88 C121.8 -4, 241.48 -1.4, 406.94 1.99 M-1.05 -0.39 C146.2 -2.79, 292.41 -3.6, 409.12 0.17 M406.87 -2.12 C412.6 40.28, 408.17 76.8, 411.23 182.83 M408.77 0.13 C411.17 59.16, 410.51 117.56, 409.78 182.81 M407.26 182.45 C327.47 182.75, 244.9 181.24, 0.36 182.59 M408.05 182.49 C317.59 180.01, 225.71 180.57, 0.79 183.17 M0.86 183.03 C3.3 146.09, 3.38 101.68, -1.97 1.11 M-0.32 182.96 C1.75 117.9, -0.06 52.84, 1.52 0.87" stroke="#b893cc" stroke-width="2" fill="none"></path></g><g transform="translate(734.6666666666647 154.83333333333303) rotate(0 46.5 17.5)"><text x="46.5" y="25" font-family="Virgil, Segoe UI Emoji" font-size="28px" fill="#000000" text-anchor="middle" style="white-space: pre;" direction="ltr">gdy &lt;–</text></g><g transform="translate(470.50000000000045 150.5) rotate(0 41 17.5)"><text x="41" y="25" font-family="Virgil, Segoe UI Emoji" font-size="28px" fill="#000000" text-anchor="middle" style="white-space: pre;" direction="ltr">&lt;– to</text></g><g transform="translate(475.49999999999864 51.83333333333303) rotate(0 182.5 35)"><text x="182.5" y="25" font-family="Virgil, Segoe UI Emoji" font-size="28px" fill="#000000" text-anchor="middle" style="white-space: pre;" direction="ltr">Jeśli temperatura zmieniła</text><text x="182.5" y="60" font-family="Virgil, Segoe UI Emoji" font-size="28px" fill="#000000" text-anchor="middle" style="white-space: pre;" direction="ltr">się, wyślij powiadomienie</text></g></svg>