<svg version="1.1" xmlns="http://www.w3.org/2000/svg" viewBox="0 0 2029.4113300492627 1122.966608340679" width="2029.4113300492627" height="1122.966608340679">
  <!-- svg-source:excalidraw -->
  
  <defs>
    <style>
      @font-face {
        font-family: "Virgil";
        src: url("https://excalidraw.com/Virgil.woff2");
      }
      @font-face {
        font-family: "Cascadia";
        src: url("https://excalidraw.com/Cascadia.woff2");
      }
    </style>
  </defs>
  <rect x="0" y="0" width="2029.4113300492627" height="1122.966608340679" fill="#ffffff"></rect><g stroke-linecap="round" transform="translate(1762.4320146895097 643.3281874369691) rotate(0 86.5 91.5)"><path d="M2.97 -1.08 L170.45 -1.26 L169.78 186.67 L-3.71 185.98" stroke="none" stroke-width="0" fill="#ff8300"></path><path d="M-2.8 -2.36 C32.68 0.79, 69.85 -0.3, 170.43 2.99 M-0.89 1.72 C41.28 0.98, 85.63 1.17, 173.69 0.27 M173.54 3.12 C171.98 64.02, 172.74 136.77, 176.96 183.07 M171.23 1.47 C170.26 41, 171.99 84.66, 173.19 181.43 M170.43 185.35 C124.34 183.25, 70.71 185.95, -0.38 183.58 M173.9 182.16 C118.24 181.45, 67.84 182.13, -0.83 183.34 M2.56 184.4 C1.73 120.06, 0.18 58.73, 3.64 -0.87 M-1.45 182 C1.68 113.57, 0.7 45.77, 1.13 -0.92" stroke="#cc6800" stroke-width="2" fill="none"></path></g><g transform="translate(1767.6672888917292 672.9009180432149) rotate(6.650200316659098 84 52.5)"><text x="84" y="25" font-family="Virgil, Segoe UI Emoji" font-size="28px" fill="#000000" text-anchor="middle" style="white-space: pre;" direction="ltr">Zmieniono</text><text x="84" y="60" font-family="Virgil, Segoe UI Emoji" font-size="28px" fill="#000000" text-anchor="middle" style="white-space: pre;" direction="ltr">temperaturę</text><text x="84" y="95" font-family="Virgil, Segoe UI Emoji" font-size="28px" fill="#000000" text-anchor="middle" style="white-space: pre;" direction="ltr">na grzejniku</text></g><g stroke-linecap="round" transform="translate(512.6322583080573 429.12314495821533) rotate(0 92.33333333333348 91.5)"><path d="M-0.59 -1.85 L184.76 0.56 L184.7 181.11 L2.01 184.48" stroke="none" stroke-width="0" fill="#fcd1eb"></path><path d="M-2.01 2.1 C55.4 1.45, 118.95 1.86, 181.36 -3.55 M0.08 1.87 C41.55 1.1, 80.62 2.97, 186.04 1.07 M181.17 -2.12 C186.07 66.33, 182.63 138.57, 183.62 183.38 M183.01 0.64 C182.91 67.1, 183.63 138.3, 184.78 182.75 M181.54 181.52 C120.43 179.77, 54.73 183.43, -1.58 179.71 M183.38 181.38 C116.64 183.91, 51.12 184.79, 1.68 183.63 M-3.41 182.68 C2.52 122.6, -0.51 58.31, -1.9 -0.51 M-0.58 183.05 C1.6 120.08, 1.15 57.58, 0.7 -1.2" stroke="#af91a3" stroke-width="2" fill="none"></path></g><g transform="translate(523.1322583080582 479.62314495821533) rotate(355.2533665234956 83 35)"><text x="83" y="25" font-family="Virgil, Segoe UI Emoji" font-size="28px" fill="#000000" text-anchor="middle" style="white-space: pre;" direction="ltr">Czujnik </text><text x="83" y="60" font-family="Virgil, Segoe UI Emoji" font-size="28px" fill="#000000" text-anchor="middle" style="white-space: pre;" direction="ltr">temperatury</text></g><g stroke-linecap="round" transform="translate(1834.7446633825957 804.6428571428605) rotate(0 92.33333333333348 91.5)"><path d="M3.58 2.35 L187.72 0.39 L185.49 186 L2.25 186.29" stroke="none" stroke-width="0" fill="#fcd1eb"></path><path d="M-1.13 2.84 C74.7 6.03, 141.28 4.7, 181.35 -1.46 M1.47 -0.89 C46.26 -0.96, 93.77 0.79, 183.4 0.15 M186.95 0.79 C180.65 66.64, 185.69 127.88, 181.32 179.88 M184.81 -0.21 C188.1 41.48, 185.57 83.95, 184.09 182.45 M185.58 185.04 C129.62 181.84, 69.32 181.31, 3.98 181.23 M185.97 184.93 C136.27 183.68, 84.08 182.38, -1.61 184.85 M0.54 181.94 C-4.92 138.9, -1.44 97.64, 0 3.36 M-1.48 183.63 C0.47 120.66, 2.54 60.02, 0.63 1.58" stroke="#af91a3" stroke-width="2" fill="none"></path></g><g transform="translate(1852.296544468214 879.4885900177532) rotate(355.2533665234956 74.5 17.5)"><text x="74.5" y="25" font-family="Virgil, Segoe UI Emoji" font-size="28px" fill="#000000" text-anchor="middle" style="white-space: pre;" direction="ltr">Termostat</text></g><g stroke-linecap="round" transform="translate(1549.2208538587865 430.2619047619088) rotate(0 92.33333333333348 91.5)"><path d="M3.27 -1.45 L180.97 -1.2 L185.98 183.71 L1.87 186.62" stroke="none" stroke-width="0" fill="#fcd1eb"></path><path d="M3.58 2.35 C59.93 -2.52, 114.58 0.09, 186.92 3.29 M-0.56 -1.92 C67.23 0.04, 136.16 -3.03, 182.72 1.81 M183.79 1.48 C180.84 61.01, 179.72 130.13, 187.62 180.81 M183.4 0.82 C183.76 65.96, 181.98 133.73, 186.08 182.12 M186.23 184.65 C124.98 182.26, 72.56 182.64, -0.91 180.69 M184.85 184.96 C125.59 184.04, 69.88 186.97, -1.52 183.71 M-2.12 184.71 C-0.22 133.92, -1.1 83.99, -1.21 -0.33 M1.41 181.43 C0.69 128.66, 1.13 70.77, 1.64 0.73" stroke="#af91a3" stroke-width="2" fill="none"></path></g><g transform="translate(1585.7727349444049 499.39335192251565) rotate(3.9781394656115285 55.5 17.5)"><text x="55.5" y="25" font-family="Virgil, Segoe UI Emoji" font-size="28px" fill="#000000" text-anchor="middle" style="white-space: pre;" direction="ltr">Backend</text></g><g stroke-linecap="round" transform="translate(983.1352886853429 150.92914364400258) rotate(342.9971473612426 211.96568710701786 83.70063109455288)"><path d="M-2.9 -1.99 L422.29 -1.78 L420.31 167.09 L2.26 165.55" stroke="none" stroke-width="0" fill="#e6c310"></path><path d="M-2.01 1.88 C106.09 0.25, 209.99 -2.94, 424.44 -0.65 M-0.07 -0.64 C97.1 3.19, 195.7 3.27, 423.02 -0.43 M423.05 2.98 C426.33 44.15, 427.36 88.35, 425.76 163.76 M422.08 -0.96 C427.22 54.46, 426.58 103.55, 423.33 168.82 M422.92 167.5 C335.14 163.95, 243.11 163.73, -2.04 166.8 M424.26 167.69 C324.98 170.7, 224.1 170.87, 0.84 167.47 M-3.56 169.2 C-0.8 107.99, 2.08 53.3, -3.74 -3.11 M-0.78 165.78 C-1.94 108.27, -1.61 47, -1.37 1.5" stroke="#99820a" stroke-width="2" fill="none"></path></g><g transform="translate(1097.4898646812499 171.57421918299997) rotate(341.01434330681053 57 22.5)"><text x="57" y="32" font-family="Virgil, Segoe UI Emoji" font-size="36px" fill="#000000" text-anchor="middle" style="white-space: pre;" direction="ltr">Pomiar</text></g><g transform="translate(1073.9448228426018 207.81305562892885) rotate(341.065305896788 115.5 25)"><text x="115.5" y="18" font-family="Virgil, Segoe UI Emoji" font-size="20px" fill="#000000" text-anchor="middle" style="white-space: pre;" direction="ltr">Jednokrotne zmierzenie </text><text x="115.5" y="43" font-family="Virgil, Segoe UI Emoji" font-size="20px" fill="#000000" text-anchor="middle" style="white-space: pre;" direction="ltr">temperatury w pokoju</text></g><g stroke-linecap="round" transform="translate(1487.8337013837563 124.04025475511344) rotate(385.45860276284384 211.96568710701786 83.70063109455288)"><path d="M-1.78 -3.62 L423.62 2.26 L422.08 170.37 L-1.08 164.85" stroke="none" stroke-width="0" fill="#e6c310"></path><path d="M1.27 -1.08 C84.79 -0.68, 172.76 -2.66, 422.69 -1.83 M-0.68 0.79 C123.61 0.61, 247.99 1.06, 424.84 -0.42 M425.3 0.55 C429.23 48.38, 422.79 93.64, 427.06 164.71 M425.91 0.03 C420.9 34.14, 423.74 67.72, 425.4 165.77 M424.13 165.75 C317.06 167.04, 209.63 167.73, 1.24 169 M423.83 167.55 C283.59 172.64, 143.19 172.27, -0.44 166.49 M-1.66 168.08 C-0.09 128.33, -4.61 99.31, 1.4 -1.69 M1.82 166.97 C4.2 122.37, 4.22 78.63, -1 -0.82" stroke="#99820a" stroke-width="2" fill="none"></path></g><g transform="translate(1627.7181009849455 127.90544840552502) rotate(383.4757987084117 69.5 22.5)"><text x="69.5" y="32" font-family="Virgil, Segoe UI Emoji" font-size="36px" fill="#000000" text-anchor="middle" style="white-space: pre;" direction="ltr">Badanie</text></g><g transform="translate(1496.4860856208152 186.2683708298) rotate(383.52676129838915 195.5 37.5)"><text x="195.5" y="18" font-family="Virgil, Segoe UI Emoji" font-size="20px" fill="#000000" text-anchor="middle" style="white-space: pre;" direction="ltr">Badanie składa się z 10 pomiarów </text><text x="195.5" y="43" font-family="Virgil, Segoe UI Emoji" font-size="20px" fill="#000000" text-anchor="middle" style="white-space: pre;" direction="ltr">i zawiera w sobie informacje na temat </text><text x="195.5" y="68" font-family="Virgil, Segoe UI Emoji" font-size="20px" fill="#000000" text-anchor="middle" style="white-space: pre;" direction="ltr">średniej, mediany i błędu standardowego</text></g><g stroke-linecap="round" transform="translate(712.616848808233 430.06628267506346) rotate(0 86.5 91.5)"><path d="M2.26 -1.85 L175.97 -1.08 L170.45 181.74 L-3.22 186.67" stroke="none" stroke-width="0" fill="#ff8300"></path><path d="M0.96 -1.24 C59.55 0.79, 121.24 2.87, 170.56 -1.37 M-1.74 -0.82 C39.89 3.69, 80.77 1.53, 174.49 -0.24 M174.83 -3.64 C174.04 64.3, 170.81 118.66, 171.07 184.34 M172.4 1.42 C171.29 74.48, 171.43 145.07, 173.09 183.75 M169.12 181.85 C116.92 185.31, 69.02 184.21, 1.11 186.94 M174.6 183.13 C123.63 182.39, 70.72 181.45, 0.9 181.9 M-3.74 179.89 C1.94 137.09, -2.31 86.8, -3.24 -1.53 M-1.37 184.5 C-0.66 110.45, -0.03 39.01, -1.81 -0.16" stroke="#cc6800" stroke-width="2" fill="none"></path></g><g transform="translate(716.4235515818809 472.4961561384524) rotate(6.650200316659098 84 52.5)"><text x="84" y="25" font-family="Virgil, Segoe UI Emoji" font-size="28px" fill="#000000" text-anchor="middle" style="white-space: pre;" direction="ltr">Zmierzono </text><text x="84" y="60" font-family="Virgil, Segoe UI Emoji" font-size="28px" fill="#000000" text-anchor="middle" style="white-space: pre;" direction="ltr">temperaturę</text><text x="84" y="95" font-family="Virgil, Segoe UI Emoji" font-size="28px" fill="#000000" text-anchor="middle" style="white-space: pre;" direction="ltr">pokoju</text></g><g stroke-linecap="round" transform="translate(1579.0128625237612 784.308814152308) rotate(0 160.62779580828055 164.3288970941855)"><path d="M157.78 3.67 L317.55 167.98 L160.68 331.64 L-0.87 165.94" stroke="none" stroke-width="0" fill="#e000b1" fill-rule="evenodd"></path><path d="M158.93 -1.16 C194.99 42.48, 233.84 76.73, 319.87 163.49 M162.27 -0.21 C222.34 64.53, 284.82 128.77, 319.71 165.23 M319.61 166.14 C262.16 224.41, 195.79 285.21, 163.42 325.64 M321.34 165.64 C259.32 223.44, 199.32 284.22, 160.51 327.57 M161.94 332.01 C100.79 271.28, 43.55 214.77, 0.23 166.53 M161.77 327.72 C121.14 284.26, 80.87 240.12, -1.32 166.09 M-2.75 163.7 C58.22 110.05, 111.61 53.18, 163.55 -2.47 M-1.54 164.87 C42.4 124.14, 82.99 83.18, 159.92 -0.54" stroke="#ad0088" stroke-width="2" fill="none"></path></g><g transform="translate(1633.6551910301223 890.3599807927147) rotate(0 111.3416666666667 58.2940663176265)"><text x="111.34166666666661" y="20.14703315881325" font-family="Virgil, Segoe UI Emoji" font-size="23.317626527050596px" fill="#000000" text-anchor="middle" style="white-space: pre;" direction="ltr">Całkowita blokada </text><text x="111.34166666666661" y="49.2940663176265" font-family="Virgil, Segoe UI Emoji" font-size="23.317626527050596px" fill="#000000" text-anchor="middle" style="white-space: pre;" direction="ltr">grzejnika? Co z </text><text x="111.34166666666661" y="78.44109947643975" font-family="Virgil, Segoe UI Emoji" font-size="23.317626527050596px" fill="#000000" text-anchor="middle" style="white-space: pre;" direction="ltr">zabezpieczeniem </text><text x="111.34166666666661" y="107.588132635253" font-family="Virgil, Segoe UI Emoji" font-size="23.317626527050596px" fill="#000000" text-anchor="middle" style="white-space: pre;" direction="ltr">antyzamarzeniowym</text></g><g stroke-linecap="round" transform="translate(1763.119669844109 438.47104457982596) rotate(0 86.5 91.5)"><path d="M-0.87 0.94 L172.46 2.93 L171.23 180.73 L1.86 181.68" stroke="none" stroke-width="0" fill="#ff8300"></path><path d="M-1.64 -1.78 C68.28 1.43, 128.8 5.99, 172.52 1.37 M-1.82 0.27 C55.83 -2.93, 106.68 -2.54, 173.67 1.98 M175.84 -3.55 C173.34 51.95, 168.49 110.62, 174.51 183.37 M172.43 -1.28 C174.13 42.07, 173.58 81.65, 174.97 182.81 M173.27 184.8 C116.92 182.3, 60.63 187.57, -2.2 181.34 M171.45 184.28 C118.88 178.91, 62.57 178.14, -0.76 184.82 M3.01 180.1 C-4.72 130.44, -4.51 77.55, -0.31 2.26 M-1.28 182.37 C-4.33 138.4, -4.57 91.61, -0.16 1.49" stroke="#cc6800" stroke-width="2" fill="none"></path></g><g transform="translate(1757.8016829269573 441.8082840176114) rotate(6.650200316659098 96.5 87.5)"><text x="96.5" y="25" font-family="Virgil, Segoe UI Emoji" font-size="28px" fill="#000000" text-anchor="middle" style="white-space: pre;" direction="ltr">Wysłano</text><text x="96.5" y="60" font-family="Virgil, Segoe UI Emoji" font-size="28px" fill="#000000" text-anchor="middle" style="white-space: pre;" direction="ltr">powiadomienie</text><text x="96.5" y="95" font-family="Virgil, Segoe UI Emoji" font-size="28px" fill="#000000" text-anchor="middle" style="white-space: pre;" direction="ltr">o </text><text x="96.5" y="130" font-family="Virgil, Segoe UI Emoji" font-size="28px" fill="#000000" text-anchor="middle" style="white-space: pre;" direction="ltr">nieodpowiedniej</text><text x="96.5" y="165" font-family="Virgil, Segoe UI Emoji" font-size="28px" fill="#000000" text-anchor="middle" style="white-space: pre;" direction="ltr">temperaturze</text></g><g stroke-linecap="round" transform="translate(774.4739916653743 99.80437791315944) rotate(0 86.5 91.5)"><path d="M-0.54 2.93 L171.23 -2.27 L174.86 181.68 L-2.21 184.56" stroke="none" stroke-width="0" fill="#ff8300"></path><path d="M3.44 -1.58 C36 4.52, 73.28 2.91, 173.55 2.8 M1.56 -1.35 C57.95 -1.43, 120.28 1.51, 173.03 -1.41 M175.93 -3.27 C173.68 49.56, 177.11 99.12, 169.86 182.95 M174.18 1.52 C172.57 37.69, 173.92 74.09, 173.29 183.13 M171.33 179.54 C103.73 186.36, 39.38 182.9, 0.68 184.41 M173.7 182.15 C136.51 183.6, 100.82 187.04, -0.44 184.49 M-1.99 181.35 C-4.53 137.01, -3.06 100.52, -1.85 2.97 M-1.61 184.84 C0.48 134.54, 2.18 84.58, -0.44 0.47" stroke="#cc6800" stroke-width="2" fill="none"></path></g><g transform="translate(781.9207305460031 118.44983912565112) rotate(6.650200316659098 84 70)"><text x="84" y="25" font-family="Virgil, Segoe UI Emoji" font-size="28px" fill="#000000" text-anchor="middle" style="white-space: pre;" direction="ltr">Użytkownik</text><text x="84" y="60" font-family="Virgil, Segoe UI Emoji" font-size="28px" fill="#000000" text-anchor="middle" style="white-space: pre;" direction="ltr">ustawił</text><text x="84" y="95" font-family="Virgil, Segoe UI Emoji" font-size="28px" fill="#000000" text-anchor="middle" style="white-space: pre;" direction="ltr">temperaturę</text><text x="84" y="130" font-family="Virgil, Segoe UI Emoji" font-size="28px" fill="#000000" text-anchor="middle" style="white-space: pre;" direction="ltr">docelową</text></g><g stroke-linecap="round" transform="translate(23 106.45238095238051) rotate(0 54.744663382594354 84.83333333333337)"><path d="M2.06 -2.55 L106.84 -1.18 L111.72 168.9 L-0.33 167.58" stroke="none" stroke-width="0" fill="#fbf425"></path><path d="M1.99 1.97 C40.09 1.46, 78.36 0.08, 109.38 2.15 M1.22 -1.85 C35.55 0.42, 74.21 1.29, 110.18 -1.08 M111.92 1.78 C109.59 39.1, 103.33 81.23, 110.49 165.76 M108.86 0.43 C108.97 53.56, 111.45 103.12, 109.48 169.21 M112.74 170.56 C77.26 168.51, 47.46 166, 3.69 168.42 M108.83 171.2 C71.5 171.13, 35.25 168.63, 1.52 168.34 M1.42 170.9 C1.65 122.13, -2.89 74.45, 3.97 -3.02 M1.25 169.35 C1.88 128.35, 3.24 88.11, 1.05 1.37" stroke="#b2ad19" stroke-width="2" fill="none"></path></g><g stroke-linecap="round" transform="translate(64.78981937602475 124.8399014778322) rotate(0 16.298029556650135 20.477011494252906)"><path d="M3.65 7.15 C3.65 7.15, 3.65 7.15, 3.65 7.15 M3.65 7.15 C3.65 7.15, 3.65 7.15, 3.65 7.15 M4.49 17.79 C9.11 18.51, 13.54 8.07, 15.57 1.41 M1.43 20.29 C6.71 15.65, 14.85 7.15, 19.1 2.24 M7.08 29.68 C12.84 23.02, 21.12 15.33, 27.91 2.5 M7.14 28.36 C14.27 21.83, 20.99 9.27, 26.23 3.68 M9.94 36.6 C19.82 32.88, 23.35 24.68, 30.07 11.47 M8.88 38.4 C16.69 25.67, 27.27 19.12, 33.35 9.83 M10.97 40.34 C24.49 31.47, 28.58 28.81, 36.45 19.98 M14.1 43.6 C23.82 35.55, 31.39 25.7, 37.9 17.16" stroke="#0000" stroke-width="1" fill="none"></path><path d="M15.02 0.07 C18.28 -0.29, 23.45 1.94, 26.45 4.26 C29.44 6.58, 31.98 10.21, 32.98 13.98 C33.97 17.76, 34.29 22.83, 32.43 26.9 C30.57 30.97, 25.21 36.09, 21.84 38.41 C18.47 40.72, 15.23 41.95, 12.22 40.79 C9.22 39.64, 6.09 35.37, 3.83 31.48 C1.57 27.59, -1.27 21.43, -1.35 17.43 C-1.43 13.44, -1.69 9.15, 3.34 7.52 C8.37 5.88, 24.03 5.31, 28.83 7.62 C33.63 9.93, 32.21 21.31, 32.11 21.38 M4.27 8.09 C6.02 3.91, 8.96 -0.81, 12.44 -1.66 C15.92 -2.5, 22.33 0.85, 25.17 3.04 C28 5.23, 28.4 7.78, 29.44 11.48 C30.49 15.18, 32.12 21.38, 31.43 25.25 C30.74 29.13, 27.61 32.02, 25.3 34.74 C23 37.46, 20.99 41.43, 17.61 41.57 C14.22 41.72, 7.6 39.01, 4.98 35.6 C2.36 32.2, 1.8 25.72, 1.9 21.13 C1.99 16.55, 5.18 10.43, 5.55 8.1 C5.92 5.76, 4.15 6.96, 4.12 7.14" stroke="#000000" stroke-width="2" fill="none"></path></g><g stroke-linecap="round"><g transform="translate(81.2641390749609 167.18073108595286) rotate(0 -0.8500449656860383 17.285745451446473)"><path d="M1.38 -0.3 C0.91 5.28, -1.05 28.73, -1.72 34.9 M-1.31 -2.93 C-2.11 2.84, -2.61 30.39, -3.08 37.51" stroke="#000000" stroke-width="2" fill="none"></path></g></g><g stroke-linecap="round"><g transform="translate(48.624901857709574 242.73726745286217) rotate(0 14.422884725356425 -21.245996933666618)"><path d="M-0.3 1.62 C4.03 -5.19, 22.46 -32.75, 27.37 -39.46 M-3.91 0.03 C1.19 -7.8, 27.55 -36.89, 32.76 -44.11" stroke="#000000" stroke-width="2" fill="none"></path></g></g><g stroke-linecap="round"><g transform="translate(96.6001574364418 241.56660957528015) rotate(0 -9.412212441612382 -18.041518769859465)"><path d="M1.62 -1.88 C-1.7 -8.39, -15.34 -33.31, -18.56 -39.36 M-0.94 3.27 C-4.71 -2.73, -17.48 -28.04, -20.44 -35.77" stroke="#000000" stroke-width="2" fill="none"></path></g></g><g stroke-linecap="round"><g transform="translate(80.38516458348931 166.549450202687) rotate(0 -12.982182784050565 9.638384652261038)"><path d="M-1.88 0.66 C-6.16 3.84, -22.16 17.39, -25.98 20.73 M2.3 -1.45 C-2.34 0.77, -23.54 13.64, -28.26 16.53" stroke="#000000" stroke-width="2" fill="none"></path></g></g><g stroke-linecap="round"><g transform="translate(85.60445841286764 164.66755031247408) rotate(0 8.73237982820524 16.81676939681813)"><path d="M0.66 -0.07 C3.7 6.28, 16.7 30.54, 19.89 36.22 M-2.43 -2.58 C0.23 3.08, 14.93 25.29, 18.47 31.81" stroke="#000000" stroke-width="2" fill="none"></path></g></g><g transform="translate(32.6116584564852 255.2241379310342) rotate(0 43.04351395730714 10.447454844006586)"><text x="43.04351395730706" y="14.894909688013136" font-family="Virgil, Segoe UI Emoji" font-size="16.715927750410508px" fill="#000000" text-anchor="middle" style="white-space: pre;" direction="ltr">Użytkownik</text></g><g stroke-linecap="round" transform="translate(159.2446633825948 101.78571428571422) rotate(0 86.5 91.5)"><path d="M2.17 3.09 L175.75 1.35 L175.49 182.15 L2.87 181.84" stroke="none" stroke-width="0" fill="#ade000"></path><path d="M-1.46 2.62 C55.14 -2.07, 106.24 2.22, 175.61 2.82 M1.2 0.42 C55.27 0.84, 114.11 -1.95, 171.71 -1.41 M175.28 -2.84 C168.33 45.76, 173.67 86.03, 171.76 185.1 M172.3 1.35 C177.27 71.99, 173.6 144.59, 171.99 182.87 M175.06 179.15 C108.44 178.55, 43.94 180.59, 0.36 186.2 M174.61 184.76 C118.51 180.58, 64.23 180.94, -0.51 184.66 M-2.76 181.29 C5.47 116.35, 1.82 50.95, 1.04 -1.55 M-0.74 183.3 C0.14 122.23, 1.67 62.26, -0.65 -0.91" stroke="#719300" stroke-width="2" fill="none"></path></g><g transform="translate(155.7446633825948 108.6190476190477) rotate(0 90 87.5)"><text x="90" y="25" font-family="Virgil, Segoe UI Emoji" font-size="28px" fill="#000000" text-anchor="middle" style="white-space: pre;" direction="ltr">Panel </text><text x="90" y="60" font-family="Virgil, Segoe UI Emoji" font-size="28px" fill="#000000" text-anchor="middle" style="white-space: pre;" direction="ltr">kontroli</text><text x="90" y="95" font-family="Virgil, Segoe UI Emoji" font-size="28px" fill="#000000" text-anchor="middle" style="white-space: pre;" direction="ltr">temperatury</text><text x="90" y="130" font-family="Virgil, Segoe UI Emoji" font-size="28px" fill="#000000" text-anchor="middle" style="white-space: pre;" direction="ltr">w </text><text x="90" y="165" font-family="Virgil, Segoe UI Emoji" font-size="28px" fill="#000000" text-anchor="middle" style="white-space: pre;" direction="ltr">pomieszczeniu</text></g><g stroke-linecap="round" transform="translate(365.2446633825948 95.78571428571445) rotate(0 86.5 91.5)"><path d="M2.39 -2.48 L173.73 -2.48 L171.84 186.25 L1.04 179.36" stroke="none" stroke-width="0" fill="#1ea4fd"></path><path d="M-1.74 -2.86 C43.8 1.86, 92.42 6.23, 170.1 -1.08 M1.68 -0.43 C40.07 2.96, 80.48 3.51, 171.66 1.8 M171.17 -1.89 C171.26 43.54, 173.47 85.81, 169.54 186.91 M173.86 -0.21 C172.72 53.51, 173.17 102.2, 172.58 181.22 M171.69 182.22 C136.45 182.59, 91.89 179.07, -2.42 180.4 M174.99 183.49 C121.22 184.2, 69.43 181.57, 0.08 181.19 M0.69 186.21 C4.17 122.31, -0.02 59.92, -0.34 -0.44 M-0.66 184.35 C-1.57 137.66, -2.37 95.82, -1.65 0.01" stroke="#1472b0" stroke-width="2" fill="none"></path></g><g transform="translate(359.91133004926223 117.61904761904748) rotate(0 90 70)"><text x="90" y="25" font-family="Virgil, Segoe UI Emoji" font-size="28px" fill="#000000" text-anchor="middle" style="white-space: pre;" direction="ltr">Ustaw </text><text x="90" y="60" font-family="Virgil, Segoe UI Emoji" font-size="28px" fill="#000000" text-anchor="middle" style="white-space: pre;" direction="ltr">temperaturę</text><text x="90" y="95" font-family="Virgil, Segoe UI Emoji" font-size="28px" fill="#000000" text-anchor="middle" style="white-space: pre;" direction="ltr">w </text><text x="90" y="130" font-family="Virgil, Segoe UI Emoji" font-size="28px" fill="#000000" text-anchor="middle" style="white-space: pre;" direction="ltr">pomieszczeniu</text></g><g stroke-linecap="round" transform="translate(563.4113300492618 95.78571428571422) rotate(0 92.33333333333348 91.5)"><path d="M-2.84 0.75 L186.58 -2.68 L186.12 183.03 L3.18 185.13" stroke="none" stroke-width="0" fill="#fcd1eb"></path><path d="M3.98 0.69 C64.17 -1.8, 135.2 5.9, 187.84 -0.74 M1.14 -0.02 C64.7 2.08, 130.1 1.29, 183.13 1.04 M181.1 0.72 C190.81 68.98, 187.54 135.8, 186.66 186.08 M185.91 -0.09 C184.13 56.03, 185.02 112.16, 184.35 184.49 M183.23 182.31 C139.56 184.08, 97.7 188.42, 3.11 182.64 M186.25 183.67 C141.61 181.6, 98.91 183.19, 0.39 183.03 M1.03 180.37 C4.57 130.22, -1.87 66.07, -2.89 3.91 M-1.29 183.2 C-2.26 115.74, -1.29 47.96, 1.31 1.91" stroke="#af91a3" stroke-width="2" fill="none"></path></g><g transform="translate(596.9632111348792 164.91716144632096) rotate(3.9781394656115285 58.5 17.5)"><text x="58.5" y="25" font-family="Virgil, Segoe UI Emoji" font-size="28px" fill="#000000" text-anchor="middle" style="white-space: pre;" direction="ltr">Frontend</text></g><g stroke-linecap="round" transform="translate(915.2446633825948 433.7857142857142) rotate(0 204.5 91.5)"><path d="M3.69 -2.53 L412.84 2.22 L412.17 182.77 L-2.82 184.89" stroke="none" stroke-width="0" fill="#e7b8ff"></path><path d="M-1.87 -0.34 C113.66 0.14, 226.7 -0.46, 410.95 0.11 M0.46 -0.96 C120.07 1.14, 240.67 2.96, 408.7 -0.69 M412.15 1.85 C407.75 61.19, 409.96 112.33, 412.69 181.07 M409.55 1.91 C407.56 63.32, 410.94 125.61, 407.76 183.01 M408.09 180.8 C275.24 184.47, 143.62 185.67, -1.57 184.63 M408.75 182.74 C302.46 179.3, 197.48 180.17, 0.96 183.95 M2.57 180.21 C2.14 125.03, 1.28 69.07, 1.43 2.98 M-0.78 184.11 C3.58 117.51, 4.23 51.12, 1.39 -0.13" stroke="#b893cc" stroke-width="2" fill="none"></path></g><g transform="translate(1204.9113300492618 578.6190476190475) rotate(0 46.5 17.5)"><text x="46.5" y="25" font-family="Virgil, Segoe UI Emoji" font-size="28px" fill="#000000" text-anchor="middle" style="white-space: pre;" direction="ltr">gdy &lt;–</text></g><g transform="translate(940.7446633825957 574.2857142857142) rotate(0 41 17.5)"><text x="41" y="25" font-family="Virgil, Segoe UI Emoji" font-size="28px" fill="#000000" text-anchor="middle" style="white-space: pre;" direction="ltr">&lt;– to</text></g><g transform="translate(937.7446633825948 475.61904761904725) rotate(0 190.5 35)"><text x="190.5" y="25" font-family="Virgil, Segoe UI Emoji" font-size="28px" fill="#000000" text-anchor="middle" style="white-space: pre;" direction="ltr">Kiedy temperatura w pokoju</text><text x="190.5" y="60" font-family="Virgil, Segoe UI Emoji" font-size="28px" fill="#000000" text-anchor="middle" style="white-space: pre;" direction="ltr">jest za wysoka</text></g><g stroke-linecap="round" transform="translate(10 436.45238095238096) rotate(0 54.744663382594354 84.83333333333337)"><path d="M-2.47 -2.85 L110.45 -0.62 L110.32 173.48 L-0.73 168.76" stroke="none" stroke-width="0" fill="#fbf425"></path><path d="M3.23 -1.9 C32.41 -0.84, 71.15 -2.65, 113.49 -2.16 M0.48 0.45 C36.75 0.4, 76.02 2.82, 109.24 0.94 M112.41 0.68 C115.4 45.62, 110.5 97.44, 110.21 168.43 M109.44 1.99 C111.71 43.71, 111.81 92.29, 109.76 170.24 M109.21 169.22 C77.04 172.28, 46.75 171.08, 2.36 166.06 M110.74 168.84 C81.26 173.1, 51.39 170.58, 0.11 170.78 M2.94 173.29 C-0.5 101.83, -1.56 41.97, -0.89 1.79 M-0.1 169.53 C0.41 115.65, 1.77 63.03, -0.35 -0.48" stroke="#b2ad19" stroke-width="2" fill="none"></path></g><g transform="translate(25.65517241379348 559.2241379310346) rotate(0 41 21)"><text x="41" y="15" font-family="Virgil, Segoe UI Emoji" font-size="16.715927750410508px" fill="#000000" text-anchor="middle" style="white-space: pre;" direction="ltr">Zdażenie </text><text x="41" y="36" font-family="Virgil, Segoe UI Emoji" font-size="16.715927750410508px" fill="#000000" text-anchor="middle" style="white-space: pre;" direction="ltr">czasowe</text></g><g stroke-linecap="round" transform="translate(22.99466338259481 463.5) rotate(0 41.875 39.375)"><path d="M67.11 9.61 C73.39 13.48, 77.95 19.17, 80.36 26.36 C82.76 33.55, 83.97 45.04, 81.55 52.76 C79.13 60.47, 72.2 68.48, 65.83 72.66 C59.47 76.85, 51.3 77.85, 43.35 77.87 C35.4 77.89, 24.73 77.18, 18.14 72.77 C11.54 68.37, 6.63 59.12, 3.76 51.45 C0.9 43.79, -0.83 34.04, 0.92 26.78 C2.68 19.52, 7.55 12.53, 14.27 7.89 C20.99 3.25, 32.8 -0.49, 41.23 -1.06 C49.66 -1.64, 59.13 2.25, 64.85 4.46 C70.56 6.68, 73.46 9.36, 75.51 12.23 C77.56 15.11, 78.23 20.92, 77.15 21.7 M73.42 11.94 C79.93 16.4, 82.32 25.23, 83.81 32.13 C85.31 39.03, 85.65 46.32, 82.4 53.36 C79.15 60.39, 71.29 70.09, 64.32 74.33 C57.36 78.58, 49.34 79.63, 40.63 78.84 C31.91 78.05, 19.04 74.51, 12.06 69.6 C5.08 64.69, 0.57 56.45, -1.25 49.39 C-3.07 42.33, -2.27 34.13, 1.12 27.23 C4.51 20.33, 12.55 12.1, 19.09 7.99 C25.64 3.87, 31.94 2.93, 40.4 2.52 C48.87 2.12, 64.34 4.43, 69.86 5.55 C75.38 6.67, 73.2 8.34, 73.51 9.24 C73.82 10.14, 72.33 9.8, 71.72 10.97" stroke="none" stroke-width="0" fill="#fab005"></path><path d="M19.53 5.81 C26.18 1.31, 37.04 -1.97, 44.76 -1.66 C52.48 -1.35, 59.84 2.94, 65.85 7.66 C71.87 12.37, 78.02 19.24, 80.84 26.64 C83.66 34.04, 85.13 44.94, 82.77 52.04 C80.41 59.14, 73.05 64.65, 66.67 69.23 C60.3 73.82, 52.28 78.92, 44.52 79.53 C36.76 80.15, 27.4 77.31, 20.1 72.93 C12.81 68.55, 3.62 60.19, 0.73 53.23 C-2.15 46.28, 0.16 38.41, 2.8 31.22 C5.43 24.04, 12.06 14.99, 16.55 10.14 C21.04 5.29, 25.82 3.73, 29.75 2.12 C33.68 0.5, 39.68 -0.34, 40.14 0.47 M70.1 10.21 C75.51 15.69, 79.06 26.6, 80.8 34.95 C82.55 43.29, 83.89 53.95, 80.58 60.29 C77.26 66.63, 69.01 69.98, 60.91 72.96 C52.82 75.94, 39.78 79.12, 32.03 78.16 C24.27 77.21, 19.33 72.51, 14.39 67.24 C9.46 61.96, 4.24 54.52, 2.42 46.54 C0.59 38.55, 0.3 26.21, 3.43 19.34 C6.55 12.48, 14.34 8.11, 21.17 5.36 C27.99 2.62, 36.2 2.31, 44.38 2.88 C52.57 3.46, 65.3 7.01, 70.3 8.82 C75.29 10.62, 73.55 13, 74.36 13.73 C75.17 14.46, 76.34 13.35, 75.18 13.2" stroke="#000000" stroke-width="2" fill="none"></path></g><g stroke-linecap="round"><g transform="translate(62.77244116037309 464.16666666666674) rotate(0 2.0617131759806853 17.381120080947824)"><path d="M2.55 2 C3.41 7.3, 4.02 26.67, 3.34 31.39 M0.49 0.61 C1.35 6.3, 1.8 28.92, 2.38 34.15" stroke="#000000" stroke-width="2" fill="none"></path></g></g><g stroke-linecap="round"><g transform="translate(84.77244116037309 511.16666666666674) rotate(0 -10.502011128887489 -5.259818172492089)"><path d="M0.72 -1.72 C-3.21 -4.37, -18.76 -11.99, -21.72 -14.04 M-2.34 3.52 C-5.61 1.18, -14.22 -8.03, -16.8 -10.43" stroke="#000000" stroke-width="2" fill="none"></path></g></g><g stroke-linecap="round"><g transform="translate(40.77244116037309 479.16666666666674) rotate(0 3.0830717987939806 2.73879958380013)"><path d="M2.45 0.42 C3.35 1.98, 4.95 5.93, 5.82 7.3 M0.34 -1.83 C0.72 -0.91, 1.96 1.94, 2.95 3" stroke="#000000" stroke-width="2" fill="none"></path></g></g><g stroke-linecap="round"><g transform="translate(29.77244116037309 517.1666666666667) rotate(0 6.811868916191315 -3.995546536482834)"><path d="M-2.39 0.2 C-0.22 -0.52, 7.99 -3.36, 10.46 -4.17 M1.5 -2.16 C4.84 -3.68, 14.47 -6.97, 16.02 -8.19" stroke="#000000" stroke-width="2" fill="none"></path></g></g><g stroke-linecap="round"><g transform="translate(56.77244116037309 540.1666666666667) rotate(0 0.7699793043734644 -8.049739787615863)"><path d="M0.38 1.31 C0.53 -1.27, -1.28 -10.4, -0.59 -13.66 M-2.87 -0.45 C-1.73 -3.94, 3.25 -14.75, 4.41 -17.41" stroke="#000000" stroke-width="2" fill="none"></path></g></g><g stroke-linecap="round"><g transform="translate(90.77244116037309 532.1666666666667) rotate(0 -7.235870887599958 -5.66361533407121)"><path d="M1.63 -0.26 C-1.32 -1.28, -11.56 -5.4, -14.97 -7.45 M-0.93 -2.87 C-4.32 -4.49, -14.1 -9.75, -16.1 -11.07" stroke="#000000" stroke-width="2" fill="none"></path></g></g><g stroke-linecap="round"><g transform="translate(101.77244116037309 496.16666666666674) rotate(0 -10.222265163026805 3.204091118012343)"><path d="M0.5 2.53 C-2.2 2.98, -15.36 5.49, -18.1 5.37 M-2.68 1.44 C-5.68 2.25, -18.52 0.71, -20.94 1.1" stroke="#000000" stroke-width="2" fill="none"></path></g></g><g stroke-linecap="round"><g transform="translate(81.77244116037309 472.16666666666674) rotate(0 -3.109970539100459 7.078573784828166)"><path d="M0.85 0.08 C0.24 2.17, -3.45 11.38, -4.54 13.98 M-2.13 -2.35 C-3.08 -0.09, -7.46 13.03, -7.07 16.51" stroke="#000000" stroke-width="2" fill="none"></path></g></g><g stroke-linecap="round" transform="translate(134.2724411603731 431.6666666666665) rotate(0 86.5 91.5)"><path d="M-1.79 2.94 L170.15 -1.91 L176.94 182.19 L-2.89 183.59" stroke="none" stroke-width="0" fill="#ade000"></path><path d="M-2.96 -2.65 C40.96 0.79, 80.83 1.87, 175.93 0.21 M0.51 -1.58 C60.67 -1.97, 121.37 0.39, 174.28 -1.76 M169.72 -0.51 C171.96 45.84, 171.43 86.46, 176.63 179.99 M173.92 0.53 C173.26 39.66, 171.62 82.01, 172.84 181.28 M171.73 181.72 C136.58 186.31, 103.25 182.46, 2 186.6 M173.36 183.76 C113.12 182.7, 51.78 183.16, -1.8 182.54 M-3.66 179.63 C-0.99 147.88, 4.29 108.43, -0.31 3.17 M1.99 181.83 C-0.26 116.59, -1.86 51.22, -0.55 1.31" stroke="#719300" stroke-width="2" fill="none"></path></g><g transform="translate(135.7724411603731 471.50000000000045) rotate(0 83 52.5)"><text x="83" y="25" font-family="Virgil, Segoe UI Emoji" font-size="28px" fill="#000000" text-anchor="middle" style="white-space: pre;" direction="ltr">Interfejs</text><text x="83" y="60" font-family="Virgil, Segoe UI Emoji" font-size="28px" fill="#000000" text-anchor="middle" style="white-space: pre;" direction="ltr">do pomiaru</text><text x="83" y="95" font-family="Virgil, Segoe UI Emoji" font-size="28px" fill="#000000" text-anchor="middle" style="white-space: pre;" direction="ltr">temperatury</text></g><g stroke-linecap="round" transform="translate(321.1057744937061 427.66666666666674) rotate(0 86.5 91.5)"><path d="M2.81 3.94 L175.37 -2.08 L169.49 179.51 L2.17 179.62" stroke="none" stroke-width="0" fill="#1ea4fd"></path><path d="M0.43 -2.93 C46.34 0.72, 98.31 -0.24, 173.82 0.75 M0.6 -1.78 C44.46 -0.54, 89.16 0.45, 174.46 1.91 M170.3 3.22 C174.66 52.29, 170.78 96.98, 171.44 186.69 M173.75 0.56 C175.59 70.45, 175.42 145.13, 171.98 181.28 M170.11 179.59 C123.17 186.33, 77.19 185.35, -1.3 180.98 M174.01 184.48 C103.78 183.95, 37.6 183.12, -0.95 181.73 M-1.48 182.36 C2.69 129.76, -2.7 73.68, 3.43 -2.31 M1.63 184.79 C-0.77 138.36, -0.62 95.17, 1.71 0.26" stroke="#1472b0" stroke-width="2" fill="none"></path></g><g transform="translate(321.7724411603722 475.4999999999998) rotate(0 84 35)"><text x="84" y="25" font-family="Virgil, Segoe UI Emoji" font-size="28px" fill="#000000" text-anchor="middle" style="white-space: pre;" direction="ltr">Zmierz</text><text x="84" y="60" font-family="Virgil, Segoe UI Emoji" font-size="28px" fill="#000000" text-anchor="middle" style="white-space: pre;" direction="ltr">temperaturę</text></g><g stroke-linecap="round" transform="translate(1352.272441160373 431.66666666666674) rotate(0 86.5 91.5)"><path d="M-3.58 -2.59 L172.1 3.38 L171.6 181.78 L2.23 179.29" stroke="none" stroke-width="0" fill="#1ea4fd"></path><path d="M3.39 -0.44 C58.57 3.69, 113.52 2.42, 172.54 -0.9 M-1.86 1.49 C64.03 2.03, 128.08 3.03, 173.16 1.47 M174.6 -2.68 C169.19 42.61, 171.55 77.84, 170.22 184.05 M173.33 0.05 C172.63 40.71, 171.49 77.99, 173.09 182.22 M175.54 183.49 C118.11 184.52, 70.31 185.16, -1.55 185.06 M171.36 184.32 C110.81 182.27, 45.03 185.56, -0.81 182.97 M3.9 180.81 C-0.09 125.22, -0.75 70.26, 0.31 -1.48 M0.9 184.88 C-3.4 135.76, -2.86 85.92, 1.8 -1.38" stroke="#1472b0" stroke-width="2" fill="none"></path></g><g transform="translate(1352.9391078270392 462.9999999999998) rotate(0 84 52.5)"><text x="84" y="25" font-family="Virgil, Segoe UI Emoji" font-size="28px" fill="#000000" text-anchor="middle" style="white-space: pre;" direction="ltr">Zmień</text><text x="84" y="60" font-family="Virgil, Segoe UI Emoji" font-size="28px" fill="#000000" text-anchor="middle" style="white-space: pre;" direction="ltr">temperaturę</text><text x="84" y="95" font-family="Virgil, Segoe UI Emoji" font-size="28px" fill="#000000" text-anchor="middle" style="white-space: pre;" direction="ltr">w pokoju</text></g><g stroke-linecap="round" transform="translate(19.77244116037309 10) rotate(0 466 30.166666666666742)"><path d="M2.23 -0.57 L930.6 -1.55 L932.27 57.74 L1.69 57.97" stroke="none" stroke-width="0" fill="#fab005"></path><path d="M0.37 -0.01 C345 -3.69, 690.32 -2.61, 931.77 0.64 M-0.14 0.38 C290.53 -1.67, 580.66 -2.21, 931.57 -0.22 M934.46 -3.54 C935.24 26.1, 930.54 45.8, 929.58 62.07 M931.08 -0.95 C930.53 24.87, 932.05 46.49, 933.87 60.83 M931.62 60.31 C692.64 62.36, 451.73 65.03, -1.53 59.02 M931.29 59.66 C656 67.01, 381.38 66.16, 0.28 60.64 M-0.9 57.59 C3.75 37.49, -3.14 17.03, 2.49 -2.47 M-1.42 60.52 C-0.59 47.03, 2.87 34.28, 0.81 -0.22" stroke="#000000" stroke-width="2" fill="none"></path></g><g transform="translate(252.7724411603731 12.666666666667197) rotate(0 228 22.5)"><text x="228" y="32" font-family="Virgil, Segoe UI Emoji" font-size="36px" fill="#000000" text-anchor="middle" style="white-space: pre;" direction="ltr">Zarządzenie temperaturą</text></g><g stroke-linecap="round" transform="translate(18.77244116037309 350.9999999999999) rotate(0 959.0000000000005 33.16666666666674)"><path d="M-0.64 -3.68 L1916.12 -1.69 L1914.38 64.46 L3.11 62.51" stroke="none" stroke-width="0" fill="#fab005"></path><path d="M1.58 -0.17 C560.72 -5.73, 1122.03 -7.39, 1917.04 -0.13 M-0.26 0.66 C698.48 -9.89, 1398.57 -9.38, 1918.24 -0.63 M1914.93 -3.41 C1920.88 18.42, 1919.25 33.77, 1918.34 69.9 M1916.83 -0.16 C1916.35 22.69, 1918.47 45.53, 1916.91 66.59 M1919.21 65.28 C1329.33 61.4, 743.06 61.58, 0.7 65.94 M1917.29 65.96 C1291.23 67.42, 663.07 67.47, -0.43 66.54 M-3.02 63.84 C-2.73 47.16, 0.97 37.21, 2.74 -1.49 M0.02 65.48 C1.11 39.12, 0.36 16.53, -0.62 -1.23" stroke="#000000" stroke-width="2" fill="none"></path></g><g transform="translate(693.2724411603731 355.6666666666673) rotate(0 330.5 22.5)"><text x="330.5" y="32" font-family="Virgil, Segoe UI Emoji" font-size="36px" fill="#000000" text-anchor="middle" style="white-space: pre;" direction="ltr">Mierzenie temperatury i powiadomienia</text></g></svg>