<svg version="1.1" xmlns="http://www.w3.org/2000/svg" viewBox="0 0 3610.9893267651887 1122.966608340679" width="3610.9893267651887" height="1122.966608340679">
  <!-- svg-source:excalidraw -->
  
  <defs>
    <style>
      @font-face {
        font-family: "Virgil";
        src: url("https://excalidraw.com/Virgil.woff2");
      }
      @font-face {
        font-family: "Cascadia";
        src: url("https://excalidraw.com/Cascadia.woff2");
      }
    </style>
  </defs>
  <rect x="0" y="0" width="3610.9893267651887" height="1122.966608340679" fill="#ffffff"></rect><g stroke-linecap="round" transform="translate(3344.0100114054358 643.3281874369691) rotate(0 86.5 91.5)"><path d="M2.97 -1.08 L170.45 -1.26 L169.78 186.67 L-3.71 185.98" stroke="none" stroke-width="0" fill="#ff8300"></path><path d="M-2.8 -2.36 C32.68 0.79, 69.85 -0.3, 170.43 2.99 M-0.89 1.72 C41.28 0.98, 85.63 1.17, 173.69 0.27 M173.54 3.12 C171.98 64.02, 172.74 136.77, 176.96 183.07 M171.23 1.47 C170.26 41, 171.99 84.66, 173.19 181.43 M170.43 185.35 C124.34 183.25, 70.71 185.95, -0.38 183.58 M173.9 182.16 C118.24 181.45, 67.84 182.13, -0.83 183.34 M2.56 184.4 C1.73 120.06, 0.18 58.73, 3.64 -0.87 M-1.45 182 C1.68 113.57, 0.7 45.77, 1.13 -0.92" stroke="#cc6800" stroke-width="2" fill="none"></path></g><g transform="translate(3349.245285607655 672.9009180432149) rotate(6.650200316659098 84 52.5)"><text x="84" y="25" font-family="Virgil, Segoe UI Emoji" font-size="28px" fill="#000000" text-anchor="middle" style="white-space: pre;" direction="ltr">Zmieniono</text><text x="84" y="60" font-family="Virgil, Segoe UI Emoji" font-size="28px" fill="#000000" text-anchor="middle" style="white-space: pre;" direction="ltr">temperaturę</text><text x="84" y="95" font-family="Virgil, Segoe UI Emoji" font-size="28px" fill="#000000" text-anchor="middle" style="white-space: pre;" direction="ltr">na grzejniku</text></g><g stroke-linecap="round" transform="translate(2094.2102550239833 429.12314495821533) rotate(0 92.33333333333348 91.5)"><path d="M-0.59 -1.85 L184.76 0.56 L184.7 181.11 L2.01 184.48" stroke="none" stroke-width="0" fill="#fcd1eb"></path><path d="M-2.01 2.1 C55.4 1.45, 118.95 1.86, 181.36 -3.55 M0.08 1.87 C41.55 1.1, 80.62 2.97, 186.04 1.07 M181.17 -2.12 C186.07 66.33, 182.63 138.57, 183.62 183.38 M183.01 0.64 C182.91 67.1, 183.63 138.3, 184.78 182.75 M181.54 181.52 C120.43 179.77, 54.73 183.43, -1.58 179.71 M183.38 181.38 C116.64 183.91, 51.12 184.79, 1.68 183.63 M-3.41 182.68 C2.52 122.6, -0.51 58.31, -1.9 -0.51 M-0.58 183.05 C1.6 120.08, 1.15 57.58, 0.7 -1.2" stroke="#af91a3" stroke-width="2" fill="none"></path></g><g transform="translate(2104.7102550239842 479.62314495821533) rotate(355.2533665234956 83 35)"><text x="83" y="25" font-family="Virgil, Segoe UI Emoji" font-size="28px" fill="#000000" text-anchor="middle" style="white-space: pre;" direction="ltr">Czujnik </text><text x="83" y="60" font-family="Virgil, Segoe UI Emoji" font-size="28px" fill="#000000" text-anchor="middle" style="white-space: pre;" direction="ltr">temperatury</text></g><g stroke-linecap="round" transform="translate(3416.3226600985217 804.6428571428605) rotate(0 92.33333333333348 91.5)"><path d="M3.58 2.35 L187.72 0.39 L185.49 186 L2.25 186.29" stroke="none" stroke-width="0" fill="#fcd1eb"></path><path d="M-1.13 2.84 C74.7 6.03, 141.28 4.7, 181.35 -1.46 M1.47 -0.89 C46.26 -0.96, 93.77 0.79, 183.4 0.15 M186.95 0.79 C180.65 66.64, 185.69 127.88, 181.32 179.88 M184.81 -0.21 C188.1 41.48, 185.57 83.95, 184.09 182.45 M185.58 185.04 C129.62 181.84, 69.32 181.31, 3.98 181.23 M185.97 184.93 C136.27 183.68, 84.08 182.38, -1.61 184.85 M0.54 181.94 C-4.92 138.9, -1.44 97.64, 0 3.36 M-1.48 183.63 C0.47 120.66, 2.54 60.02, 0.63 1.58" stroke="#af91a3" stroke-width="2" fill="none"></path></g><g transform="translate(3433.87454118414 879.4885900177532) rotate(355.2533665234956 74.5 17.5)"><text x="74.5" y="25" font-family="Virgil, Segoe UI Emoji" font-size="28px" fill="#000000" text-anchor="middle" style="white-space: pre;" direction="ltr">Termostat</text></g><g stroke-linecap="round" transform="translate(3130.7988505747126 430.2619047619088) rotate(0 92.33333333333348 91.5)"><path d="M3.27 -1.45 L180.97 -1.2 L185.98 183.71 L1.87 186.62" stroke="none" stroke-width="0" fill="#fcd1eb"></path><path d="M3.58 2.35 C59.93 -2.52, 114.58 0.09, 186.92 3.29 M-0.56 -1.92 C67.23 0.04, 136.16 -3.03, 182.72 1.81 M183.79 1.48 C180.84 61.01, 179.72 130.13, 187.62 180.81 M183.4 0.82 C183.76 65.96, 181.98 133.73, 186.08 182.12 M186.23 184.65 C124.98 182.26, 72.56 182.64, -0.91 180.69 M184.85 184.96 C125.59 184.04, 69.88 186.97, -1.52 183.71 M-2.12 184.71 C-0.22 133.92, -1.1 83.99, -1.21 -0.33 M1.41 181.43 C0.69 128.66, 1.13 70.77, 1.64 0.73" stroke="#af91a3" stroke-width="2" fill="none"></path></g><g transform="translate(3167.350731660331 499.39335192251565) rotate(3.9781394656115285 55.5 17.5)"><text x="55.5" y="25" font-family="Virgil, Segoe UI Emoji" font-size="28px" fill="#000000" text-anchor="middle" style="white-space: pre;" direction="ltr">Backend</text></g><g stroke-linecap="round" transform="translate(2564.713285401269 150.92914364400258) rotate(342.9971473612426 211.96568710701786 83.70063109455288)"><path d="M-2.9 -1.99 L422.29 -1.78 L420.31 167.09 L2.26 165.55" stroke="none" stroke-width="0" fill="#e6c310"></path><path d="M-2.01 1.88 C106.09 0.25, 209.99 -2.94, 424.44 -0.65 M-0.07 -0.64 C97.1 3.19, 195.7 3.27, 423.02 -0.43 M423.05 2.98 C426.33 44.15, 427.36 88.35, 425.76 163.76 M422.08 -0.96 C427.22 54.46, 426.58 103.55, 423.33 168.82 M422.92 167.5 C335.14 163.95, 243.11 163.73, -2.04 166.8 M424.26 167.69 C324.98 170.7, 224.1 170.87, 0.84 167.47 M-3.56 169.2 C-0.8 107.99, 2.08 53.3, -3.74 -3.11 M-0.78 165.78 C-1.94 108.27, -1.61 47, -1.37 1.5" stroke="#99820a" stroke-width="2" fill="none"></path></g><g transform="translate(2679.067861397176 171.57421918299997) rotate(341.01434330681053 57 22.5)"><text x="57" y="32" font-family="Virgil, Segoe UI Emoji" font-size="36px" fill="#000000" text-anchor="middle" style="white-space: pre;" direction="ltr">Pomiar</text></g><g transform="translate(2655.5228195585278 207.81305562892885) rotate(341.065305896788 115.5 25)"><text x="115.5" y="18" font-family="Virgil, Segoe UI Emoji" font-size="20px" fill="#000000" text-anchor="middle" style="white-space: pre;" direction="ltr">Jednokrotne zmierzenie </text><text x="115.5" y="43" font-family="Virgil, Segoe UI Emoji" font-size="20px" fill="#000000" text-anchor="middle" style="white-space: pre;" direction="ltr">temperatury w pokoju</text></g><g stroke-linecap="round" transform="translate(3069.4116980996823 124.04025475511344) rotate(385.45860276284384 211.96568710701786 83.70063109455288)"><path d="M-1.78 -3.62 L423.62 2.26 L422.08 170.37 L-1.08 164.85" stroke="none" stroke-width="0" fill="#e6c310"></path><path d="M1.27 -1.08 C84.79 -0.68, 172.76 -2.66, 422.69 -1.83 M-0.68 0.79 C123.61 0.61, 247.99 1.06, 424.84 -0.42 M425.3 0.55 C429.23 48.38, 422.79 93.64, 427.06 164.71 M425.91 0.03 C420.9 34.14, 423.74 67.72, 425.4 165.77 M424.13 165.75 C317.06 167.04, 209.63 167.73, 1.24 169 M423.83 167.55 C283.59 172.64, 143.19 172.27, -0.44 166.49 M-1.66 168.08 C-0.09 128.33, -4.61 99.31, 1.4 -1.69 M1.82 166.97 C4.2 122.37, 4.22 78.63, -1 -0.82" stroke="#99820a" stroke-width="2" fill="none"></path></g><g transform="translate(3209.2960977008715 127.90544840552502) rotate(383.4757987084117 69.5 22.5)"><text x="69.5" y="32" font-family="Virgil, Segoe UI Emoji" font-size="36px" fill="#000000" text-anchor="middle" style="white-space: pre;" direction="ltr">Badanie</text></g><g transform="translate(3078.064082336741 186.2683708298) rotate(383.52676129838915 195.5 37.5)"><text x="195.5" y="18" font-family="Virgil, Segoe UI Emoji" font-size="20px" fill="#000000" text-anchor="middle" style="white-space: pre;" direction="ltr">Badanie składa się z 10 pomiarów </text><text x="195.5" y="43" font-family="Virgil, Segoe UI Emoji" font-size="20px" fill="#000000" text-anchor="middle" style="white-space: pre;" direction="ltr">i zawiera w sobie informacje na temat </text><text x="195.5" y="68" font-family="Virgil, Segoe UI Emoji" font-size="20px" fill="#000000" text-anchor="middle" style="white-space: pre;" direction="ltr">średniej, mediany i błędu standardowego</text></g><g stroke-linecap="round" transform="translate(2294.194845524159 430.06628267506346) rotate(0 86.5 91.5)"><path d="M2.26 -1.85 L175.97 -1.08 L170.45 181.74 L-3.22 186.67" stroke="none" stroke-width="0" fill="#ff8300"></path><path d="M0.96 -1.24 C59.55 0.79, 121.24 2.87, 170.56 -1.37 M-1.74 -0.82 C39.89 3.69, 80.77 1.53, 174.49 -0.24 M174.83 -3.64 C174.04 64.3, 170.81 118.66, 171.07 184.34 M172.4 1.42 C171.29 74.48, 171.43 145.07, 173.09 183.75 M169.12 181.85 C116.92 185.31, 69.02 184.21, 1.11 186.94 M174.6 183.13 C123.63 182.39, 70.72 181.45, 0.9 181.9 M-3.74 179.89 C1.94 137.09, -2.31 86.8, -3.24 -1.53 M-1.37 184.5 C-0.66 110.45, -0.03 39.01, -1.81 -0.16" stroke="#cc6800" stroke-width="2" fill="none"></path></g><g transform="translate(2298.001548297807 472.4961561384524) rotate(6.650200316659098 84 52.5)"><text x="84" y="25" font-family="Virgil, Segoe UI Emoji" font-size="28px" fill="#000000" text-anchor="middle" style="white-space: pre;" direction="ltr">Zmierzono </text><text x="84" y="60" font-family="Virgil, Segoe UI Emoji" font-size="28px" fill="#000000" text-anchor="middle" style="white-space: pre;" direction="ltr">temperaturę</text><text x="84" y="95" font-family="Virgil, Segoe UI Emoji" font-size="28px" fill="#000000" text-anchor="middle" style="white-space: pre;" direction="ltr">pokoju</text></g><g stroke-linecap="round" transform="translate(3160.5908592396872 784.308814152308) rotate(0 160.62779580828055 164.3288970941855)"><path d="M157.78 3.67 L317.55 167.98 L160.68 331.64 L-0.87 165.94" stroke="none" stroke-width="0" fill="#e000b1" fill-rule="evenodd"></path><path d="M158.93 -1.16 C194.99 42.48, 233.84 76.73, 319.87 163.49 M162.27 -0.21 C222.34 64.53, 284.82 128.77, 319.71 165.23 M319.61 166.14 C262.16 224.41, 195.79 285.21, 163.42 325.64 M321.34 165.64 C259.32 223.44, 199.32 284.22, 160.51 327.57 M161.94 332.01 C100.79 271.28, 43.55 214.77, 0.23 166.53 M161.77 327.72 C121.14 284.26, 80.87 240.12, -1.32 166.09 M-2.75 163.7 C58.22 110.05, 111.61 53.18, 163.55 -2.47 M-1.54 164.87 C42.4 124.14, 82.99 83.18, 159.92 -0.54" stroke="#ad0088" stroke-width="2" fill="none"></path></g><g transform="translate(3215.2331877460483 890.3599807927147) rotate(0 111.3416666666667 58.2940663176265)"><text x="111.34166666666661" y="20.14703315881325" font-family="Virgil, Segoe UI Emoji" font-size="23.317626527050596px" fill="#000000" text-anchor="middle" style="white-space: pre;" direction="ltr">Całkowita blokada </text><text x="111.34166666666661" y="49.2940663176265" font-family="Virgil, Segoe UI Emoji" font-size="23.317626527050596px" fill="#000000" text-anchor="middle" style="white-space: pre;" direction="ltr">grzejnika? Co z </text><text x="111.34166666666661" y="78.44109947643975" font-family="Virgil, Segoe UI Emoji" font-size="23.317626527050596px" fill="#000000" text-anchor="middle" style="white-space: pre;" direction="ltr">zabezpieczeniem </text><text x="111.34166666666661" y="107.588132635253" font-family="Virgil, Segoe UI Emoji" font-size="23.317626527050596px" fill="#000000" text-anchor="middle" style="white-space: pre;" direction="ltr">antyzamarzeniowym</text></g><g stroke-linecap="round" transform="translate(534.551988381301 109.13771124649293) rotate(0 92.33333333333326 91.5)"><path d="M-3.71 2.98 L184.34 2.98 L183.8 183.94 L-0.54 185.93" stroke="none" stroke-width="0" fill="#fcd1eb"></path><path d="M-2.57 2.99 C51.83 -2.21, 106.58 -0.52, 188.11 -1.58 M0.69 0.27 C52.75 1.36, 100.88 0.72, 186.23 -1.35 M188.63 0.07 C180.07 36.78, 185.74 72.43, 187.6 179.73 M184.85 -1.57 C184.82 44.18, 184.27 90.96, 185.84 184.52 M184.29 183.58 C123.77 189.83, 62.61 188.44, -1.67 179.54 M183.84 183.34 C146.4 179.1, 105.17 182.25, 0.7 182.15 M3.64 182.13 C5.95 132.54, 5.97 84.64, -1.99 -1.65 M1.13 182.08 C4.8 135.71, 2.04 88.86, -1.61 1.84" stroke="#af91a3" stroke-width="2" fill="none"></path></g><g transform="translate(565.1038694669185 183.98344412138567) rotate(355.2533665234956 61.5 17.5)"><text x="61.5" y="25" font-family="Virgil, Segoe UI Emoji" font-size="28px" fill="#000000" text-anchor="middle" style="white-space: pre;" direction="ltr">Facebook</text></g><g stroke-linecap="round" transform="translate(752.4119522743192 110.8043779131599) rotate(0 86.5 91.5)"><path d="M-0.32 2.98 L172.13 0.94 L172.46 185.93 L-1.77 180.73" stroke="none" stroke-width="0" fill="#ff8300"></path><path d="M-2.27 -3.47 C44.36 -4.37, 95.43 -4.16, 172.12 2.98 M1.4 0.91 C47.99 -0.2, 101.18 -1.82, 171.15 -0.96 M170.17 -1.21 C179.47 57.5, 179.55 118.84, 171.08 183.19 M172.98 -1.94 C172.77 60.51, 174.52 125.11, 173.62 183.55 M173.26 186.19 C104.33 185.3, 33.45 180.04, -3.56 184.8 M173.71 181.13 C129.04 184.87, 88.89 182.74, -0.78 181.38 M2.98 180.26 C-0.32 132.19, -5.32 85.54, -1.78 -3.62 M1.48 182.46 C-3.35 128.9, -3.68 77.9, -1.85 1.49" stroke="#cc6800" stroke-width="2" fill="none"></path></g><g transform="translate(761.7452856076536 166.35199696077848) rotate(6.650200316659098 79.5 35)"><text x="79.5" y="25" font-family="Virgil, Segoe UI Emoji" font-size="28px" fill="#000000" text-anchor="middle" style="white-space: pre;" direction="ltr">Zalogowano</text><text x="79.5" y="60" font-family="Virgil, Segoe UI Emoji" font-size="28px" fill="#000000" text-anchor="middle" style="white-space: pre;" direction="ltr">użytkownika</text></g><g stroke-linecap="round" transform="translate(3344.697666560035 438.47104457982596) rotate(0 86.5 91.5)"><path d="M-0.87 0.94 L172.46 2.93 L171.23 180.73 L1.86 181.68" stroke="none" stroke-width="0" fill="#ff8300"></path><path d="M-1.64 -1.78 C68.28 1.43, 128.8 5.99, 172.52 1.37 M-1.82 0.27 C55.83 -2.93, 106.68 -2.54, 173.67 1.98 M175.84 -3.55 C173.34 51.95, 168.49 110.62, 174.51 183.37 M172.43 -1.28 C174.13 42.07, 173.58 81.65, 174.97 182.81 M173.27 184.8 C116.92 182.3, 60.63 187.57, -2.2 181.34 M171.45 184.28 C118.88 178.91, 62.57 178.14, -0.76 184.82 M3.01 180.1 C-4.72 130.44, -4.51 77.55, -0.31 2.26 M-1.28 182.37 C-4.33 138.4, -4.57 91.61, -0.16 1.49" stroke="#cc6800" stroke-width="2" fill="none"></path></g><g transform="translate(3339.3796796428833 441.8082840176114) rotate(6.650200316659098 96.5 87.5)"><text x="96.5" y="25" font-family="Virgil, Segoe UI Emoji" font-size="28px" fill="#000000" text-anchor="middle" style="white-space: pre;" direction="ltr">Wysłano</text><text x="96.5" y="60" font-family="Virgil, Segoe UI Emoji" font-size="28px" fill="#000000" text-anchor="middle" style="white-space: pre;" direction="ltr">powiadomienie</text><text x="96.5" y="95" font-family="Virgil, Segoe UI Emoji" font-size="28px" fill="#000000" text-anchor="middle" style="white-space: pre;" direction="ltr">o </text><text x="96.5" y="130" font-family="Virgil, Segoe UI Emoji" font-size="28px" fill="#000000" text-anchor="middle" style="white-space: pre;" direction="ltr">nieodpowiedniej</text><text x="96.5" y="165" font-family="Virgil, Segoe UI Emoji" font-size="28px" fill="#000000" text-anchor="middle" style="white-space: pre;" direction="ltr">temperaturze</text></g><g stroke-linecap="round" transform="translate(2356.0519883813004 99.80437791315944) rotate(0 86.5 91.5)"><path d="M-0.54 2.93 L171.23 -2.27 L174.86 181.68 L-2.21 184.56" stroke="none" stroke-width="0" fill="#ff8300"></path><path d="M3.44 -1.58 C36 4.52, 73.28 2.91, 173.55 2.8 M1.56 -1.35 C57.95 -1.43, 120.28 1.51, 173.03 -1.41 M175.93 -3.27 C173.68 49.56, 177.11 99.12, 169.86 182.95 M174.18 1.52 C172.57 37.69, 173.92 74.09, 173.29 183.13 M171.33 179.54 C103.73 186.36, 39.38 182.9, 0.68 184.41 M173.7 182.15 C136.51 183.6, 100.82 187.04, -0.44 184.49 M-1.99 181.35 C-4.53 137.01, -3.06 100.52, -1.85 2.97 M-1.61 184.84 C0.48 134.54, 2.18 84.58, -0.44 0.47" stroke="#cc6800" stroke-width="2" fill="none"></path></g><g transform="translate(2363.498727261929 118.44983912565112) rotate(6.650200316659098 84 70)"><text x="84" y="25" font-family="Virgil, Segoe UI Emoji" font-size="28px" fill="#000000" text-anchor="middle" style="white-space: pre;" direction="ltr">Użytkownik</text><text x="84" y="60" font-family="Virgil, Segoe UI Emoji" font-size="28px" fill="#000000" text-anchor="middle" style="white-space: pre;" direction="ltr">ustawił</text><text x="84" y="95" font-family="Virgil, Segoe UI Emoji" font-size="28px" fill="#000000" text-anchor="middle" style="white-space: pre;" direction="ltr">temperaturę</text><text x="84" y="130" font-family="Virgil, Segoe UI Emoji" font-size="28px" fill="#000000" text-anchor="middle" style="white-space: pre;" direction="ltr">docelową</text></g><g stroke-linecap="round" transform="translate(10 126.11904761904884) rotate(0 54.74466338259447 84.83333333333337)"><path d="M-1.91 2.21 L110.43 -2.31 L113.49 173.16 L3.79 170.21" stroke="none" stroke-width="0" fill="#fbf425"></path><path d="M-3.58 2.1 C40.45 0.48, 81.06 -0.94, 108.69 0.7 M-1.14 -1.66 C26.14 0.22, 55.11 -1.36, 110.98 0.32 M106.61 2.05 C109.31 47.28, 104.36 91, 106.81 170.66 M110.32 -0.73 C112.14 37.25, 110.51 78.34, 109.9 170.41 M105.66 170.91 C72.38 169.41, 34.46 169.78, -2.1 168.98 M108.95 167.82 C71.92 170.65, 31.44 171.93, -1.66 168.4 M1.8 166.25 C-2.09 108.32, 0.6 47.37, -1.32 2.98 M1.63 170.99 C2.52 116.8, 2.98 66.17, -1.45 -1.24" stroke="#b2ad19" stroke-width="2" fill="none"></path></g><g stroke-linecap="round" transform="translate(51.78981937602475 144.50656814450053) rotate(0 16.29802955665025 20.477011494252906)"><path d="M1.24 10.35 C1.24 10.35, 1.24 10.35, 1.24 10.35 M1.24 10.35 C1.24 10.35, 1.24 10.35, 1.24 10.35 M1.94 18.95 C5.95 11.74, 13.68 8.69, 21.34 -1.81 M2.3 20.1 C8.63 13.81, 16.17 2.99, 22.14 -0.11 M6.82 27.53 C14.15 19.97, 14.2 19.55, 28.02 8.06 M5.79 28.93 C11.2 23.17, 14.66 17.98, 25.35 7.03 M9.4 41.81 C18.06 31.99, 23.61 17.62, 30.55 6.55 M8.74 38.91 C16.66 28.56, 26.92 21.51, 33.15 11.92 M13.8 46.03 C19 33.31, 31.82 24.5, 32.64 19.43 M15.97 43.88 C20.33 35.51, 26.14 27.76, 33.22 21.59" stroke="#0000" stroke-width="1" fill="none"></path><path d="M20.03 0.46 C23.37 1.05, 28.23 4.38, 30.26 8.36 C32.29 12.33, 32.85 20.08, 32.2 24.3 C31.55 28.53, 29.17 30.63, 26.35 33.7 C23.53 36.78, 18.75 42.16, 15.26 42.74 C11.77 43.31, 7.64 40.02, 5.42 37.15 C3.2 34.28, 2.65 29.97, 1.93 25.53 C1.21 21.09, -0.26 14.72, 1.1 10.5 C2.46 6.29, 5.48 0.94, 10.07 0.24 C14.66 -0.46, 24.93 4.33, 28.63 6.31 C32.33 8.28, 32.64 12.19, 32.27 12.11 M18.4 1.87 C21.86 2.12, 26.31 5.16, 28.42 8.03 C30.54 10.89, 30.68 14.51, 31.07 19.07 C31.46 23.62, 32.76 31.53, 30.76 35.38 C28.75 39.23, 23.04 42.29, 19.04 42.18 C15.03 42.07, 10.27 37.25, 6.72 34.71 C3.17 32.17, -1.46 30.52, -2.26 26.96 C-3.07 23.4, -0.07 17.24, 1.89 13.34 C3.85 9.45, 6.7 5.79, 9.51 3.59 C12.32 1.39, 16.65 0.43, 18.74 0.12 C20.82 -0.19, 21.56 1.45, 22.01 1.73" stroke="#000000" stroke-width="2" fill="none"></path></g><g stroke-linecap="round"><g transform="translate(68.26413907496067 186.84739775262096) rotate(0 -2.2901546620743147 18.647802564982157)"><path d="M1.47 0.81 C1.06 7.65, -2.63 32.61, -3.65 38.51 M-1.17 -1.21 C-1.88 5.05, -5.05 27.73, -6.05 34.44" stroke="#000000" stroke-width="2" fill="none"></path></g></g><g stroke-linecap="round"><g transform="translate(35.62490185770935 262.4039341195303) rotate(0 14.398612190844347 -20.86300411028185)"><path d="M0.81 -0.3 C6.4 -7.45, 26.34 -34.87, 30.99 -41.42 M-2.19 -2.94 C3.4 -9.86, 24.9 -32.95, 29.69 -38.5" stroke="#000000" stroke-width="2" fill="none"></path></g></g><g stroke-linecap="round"><g transform="translate(83.60015743644158 261.23327624194803) rotate(0 -11.888177087951703 -19.0544944460309)"><path d="M-0.3 1.73 C-3.97 -5.04, -17.45 -32.81, -20.53 -39.84 M-3.92 0.21 C-8.21 -6.21, -20.74 -30.15, -23.47 -36.52" stroke="#000000" stroke-width="2" fill="none"></path></g></g><g stroke-linecap="round"><g transform="translate(67.38516458348909 186.21611686935512) rotate(0 -13.639373840920598 9.20467117347971)"><path d="M1.73 -1.3 C-2.81 2.03, -21.66 16.36, -26.47 19.71 M-0.77 4.16 C-5.81 6.61, -24.21 12.04, -29.01 14.97" stroke="#000000" stroke-width="2" fill="none"></path></g></g><g stroke-linecap="round"><g transform="translate(72.60445841286719 184.33421697914218) rotate(0 8.786772979719444 16.76967876401443)"><path d="M-1.3 -0.56 C1.89 4.8, 15.66 27.61, 18.88 33.9 M3.19 -3.33 C6.08 2.24, 14.77 30.86, 16.9 36.87" stroke="#000000" stroke-width="2" fill="none"></path></g></g><g transform="translate(19.611658456485202 274.8908045977021) rotate(0 43.04351395730703 10.447454844006586)"><text x="43.04351395730706" y="14.894909688013136" font-family="Virgil, Segoe UI Emoji" font-size="16.715927750410508px" fill="#000000" text-anchor="middle" style="white-space: pre;" direction="ltr">Użytkownik</text></g><g stroke-linecap="round" transform="translate(340.82266009852196 112.7857142857149) rotate(0 86.5 91.5)"><path d="M-1.69 -2.85 L171.09 -2.54 L175.54 180.11 L3.58 185.43" stroke="none" stroke-width="0" fill="#1ea4fd"></path><path d="M-1.04 -0.52 C63.14 -1.25, 119.18 -0.96, 171.25 -3.15 M-1.72 1.49 C41.45 -1.02, 82.05 -0.43, 171.38 0.11 M175.72 -1.82 C178.48 70.91, 172.36 147.37, 169.82 183.27 M172.91 -0.23 C175.87 61.59, 174.57 123.27, 173.32 184.26 M170.01 185.42 C132.47 180.37, 83.88 181.06, 0.74 184.35 M173.07 181.13 C130.01 186.41, 86.78 186.48, 0.62 183.09 M-3.11 186.86 C2.01 138.28, -0.88 88.47, -3.79 -1.47 M-0.68 184.94 C3.22 114.56, 2.76 48.55, 0.41 -1.08" stroke="#1472b0" stroke-width="2" fill="none"></path></g><g transform="translate(346.4893267651894 180.6190476190484) rotate(0 77 17.5)"><text x="77" y="25" font-family="Virgil, Segoe UI Emoji" font-size="28px" fill="#000000" text-anchor="middle" style="white-space: pre;" direction="ltr">Zaloguj się</text></g><g stroke-linecap="round" transform="translate(150.23932676518825 111.11904761904862) rotate(0 86.5 91.5)"><path d="M-1.12 1.22 L173.01 3.22 L176.5 185.69 L3.59 185.7" stroke="none" stroke-width="0" fill="#ade000"></path><path d="M-3.72 1.17 C61.83 -0.02, 113.81 -0.82, 171.79 -2.7 M0.16 0.08 C61.24 -2.16, 125.96 -1.39, 172.74 1.51 M170.81 0.37 C172.16 58.29, 175.03 119, 170.38 186.48 M171.14 0.28 C177.67 70.65, 174.5 138.82, 173.36 183.81 M176.92 185.61 C119.7 181.18, 59.39 180.13, -0.24 185.53 M171.7 181.32 C107.97 183.72, 42.35 185.02, -1.7 182.03 M-3.46 183.48 C0.97 115.68, 1.23 50.6, 1.87 -1.92 M1.25 182.5 C0.54 134.77, -1.11 91.69, 0.31 -0.86" stroke="#719300" stroke-width="2" fill="none"></path></g><g transform="translate(175.73932676518848 165.95238095238187) rotate(0 63 35)"><text x="63" y="25" font-family="Virgil, Segoe UI Emoji" font-size="28px" fill="#000000" text-anchor="middle" style="white-space: pre;" direction="ltr">Strona </text><text x="63" y="60" font-family="Virgil, Segoe UI Emoji" font-size="28px" fill="#000000" text-anchor="middle" style="white-space: pre;" direction="ltr">logowania</text></g><g transform="translate(533.322660098522 23.619047619048388) rotate(0 207 22.5)"><text x="207" y="32" font-family="Virgil, Segoe UI Emoji" font-size="36px" fill="#000000" text-anchor="middle" style="white-space: pre;" direction="ltr">Logowanie i rejestracja</text></g><g stroke-linecap="round" transform="translate(754.155993431855 311.1190476190478) rotate(0 86.5 91.5)"><path d="M-2.3 -1.01 L169.27 -3.9 L170.61 185.13 L-3.55 182.22" stroke="none" stroke-width="0" fill="#ff8300"></path><path d="M-1.19 -3.53 C37.39 -0.02, 77.54 1.87, 176.37 -0.86 M0.72 -1.77 C40.56 -2.61, 79.08 -3.3, 174.63 -0.71 M169.35 2.97 C175.64 51.41, 177.62 96.53, 169.26 182.7 M173.81 -1.23 C173.94 48.71, 177.87 95.28, 172.57 184.65 M172.29 185.67 C118.72 186.58, 66.87 181.99, -1.91 179.45 M174.35 184.4 C121.74 182.72, 67.93 184.45, -1.22 183.37 M-3.84 186.07 C-0.48 147.95, 1.08 105.74, 2.41 0.92 M0.72 184.71 C2.6 117.33, -0.56 53.27, 1.48 0.2" stroke="#cc6800" stroke-width="2" fill="none"></path></g><g transform="translate(754.9893267651898 366.66666666666663) rotate(6.650200316659098 88 35)"><text x="88" y="25" font-family="Virgil, Segoe UI Emoji" font-size="28px" fill="#000000" text-anchor="middle" style="white-space: pre;" direction="ltr">Nieznaleziono</text><text x="88" y="60" font-family="Virgil, Segoe UI Emoji" font-size="28px" fill="#000000" text-anchor="middle" style="white-space: pre;" direction="ltr">użytkownika</text></g><g stroke-linecap="round" transform="translate(952.822660098522 311.11904761904805) rotate(0 204.5 91.5)"><path d="M-3.39 3.73 L407.26 2.39 L405.23 183.13 L-0.7 184.62" stroke="none" stroke-width="0" fill="#e7b8ff"></path><path d="M-1.32 1.18 C110.44 3.97, 224.45 3.87, 407.31 0.38 M-0.41 -0.54 C162.2 1.07, 325.42 0.58, 409.9 -0.56 M410.02 -3.89 C413.35 65.65, 412.09 134.06, 405.03 184.89 M409.84 -0.81 C406.07 54.51, 407 110.56, 407.22 184.01 M409.4 182.73 C262.23 179.68, 113.61 179.92, 0.42 184.12 M410 183.84 C285.75 186.22, 163.01 186.46, -0.05 182.71 M0.2 184.99 C2.22 133.46, 2.01 92.78, -3.84 1.21 M1.4 181.02 C-2.17 128.02, -3.73 69.46, -1.66 0.43" stroke="#b893cc" stroke-width="2" fill="none"></path></g><g transform="translate(1252.4893267651894 327.9523809523814) rotate(0 46.5 17.5)"><text x="46.5" y="25" font-family="Virgil, Segoe UI Emoji" font-size="28px" fill="#000000" text-anchor="middle" style="white-space: pre;" direction="ltr">gdy &lt;–</text></g><g transform="translate(980.3226600985224 439.61904761904805) rotate(0 41 17.5)"><text x="41" y="25" font-family="Virgil, Segoe UI Emoji" font-size="28px" fill="#000000" text-anchor="middle" style="white-space: pre;" direction="ltr">&lt;– to</text></g><g transform="translate(974.822660098522 364.9523809523813) rotate(0 185 35)"><text x="185" y="25" font-family="Virgil, Segoe UI Emoji" font-size="28px" fill="#000000" text-anchor="middle" style="white-space: pre;" direction="ltr">gdy użytkownik nie istnieje </text><text x="185" y="60" font-family="Virgil, Segoe UI Emoji" font-size="28px" fill="#000000" text-anchor="middle" style="white-space: pre;" direction="ltr">to zaproponuj rejestrację</text></g><g stroke-linecap="round" transform="translate(345.82266009852174 509.45238095238153) rotate(0 86.50000000000011 91.5)"><path d="M-3.65 3.06 L172.99 -0.8 L170.94 184.24 L-0.09 183.29" stroke="none" stroke-width="0" fill="#1ea4fd"></path><path d="M2.93 2.59 C50.68 0.83, 109.95 -1.99, 173.53 -1.85 M-1.16 -0.82 C44.63 2.04, 91.34 4.42, 174.19 1.98 M171.89 3.72 C168.82 52.94, 175.8 105.37, 171.8 180.87 M174.86 -0.6 C170.97 68.27, 168.8 135.25, 174.81 181.5 M173.47 180.34 C116.05 181.15, 60.34 184.55, 1.23 181.07 M171.47 183.82 C139.33 183.79, 105.25 182.75, -0.64 183 M-0.81 186.93 C-1.71 118.3, -0.83 54.12, -3.62 -0.74 M1.54 183.53 C0.78 145.16, 1.86 102.6, -1.47 0.7" stroke="#1472b0" stroke-width="2" fill="none"></path></g><g transform="translate(347.9893267651887 577.285714285715) rotate(0 80.50000000000011 35)"><text x="80.5" y="25" font-family="Virgil, Segoe UI Emoji" font-size="28px" fill="#000000" text-anchor="middle" style="white-space: pre;" direction="ltr">Zarejestruj</text><text x="80.5" y="60" font-family="Virgil, Segoe UI Emoji" font-size="28px" fill="#000000" text-anchor="middle" style="white-space: pre;" direction="ltr">się</text></g><g stroke-linecap="round" transform="translate(159.15599343185454 507.78571428571456) rotate(0 86.5 91.5)"><path d="M3.68 2.03 L176.81 3.6 L171.54 182.67 L3.06 180.9" stroke="none" stroke-width="0" fill="#ade000"></path><path d="M3.97 0.55 C35.84 0.51, 72.73 -2.05, 173.02 -2.1 M-1.09 1.27 C51.13 0.45, 103.63 -0.89, 174.25 -0.54 M176.64 3.38 C172.59 43.38, 172.51 78.18, 170.18 181.47 M174.74 0.21 C177.31 37.73, 177.54 78.6, 174.98 181.24 M175.58 184.78 C107.29 183.46, 46.52 188.18, 3.46 181.55 M171.81 182.7 C129.33 185.4, 87.74 185.61, -0.75 183.79 M-0.93 185.51 C-2.86 149.6, -4.77 107.49, 1.41 0.53 M0.27 182.82 C-1.55 143.64, -2.35 102.42, 0.2 -1.27" stroke="#719300" stroke-width="2" fill="none"></path></g><g transform="translate(176.15599343185454 562.6190476190476) rotate(0 71.5 35)"><text x="71.5" y="25" font-family="Virgil, Segoe UI Emoji" font-size="28px" fill="#000000" text-anchor="middle" style="white-space: pre;" direction="ltr">Strona </text><text x="71.5" y="60" font-family="Virgil, Segoe UI Emoji" font-size="28px" fill="#000000" text-anchor="middle" style="white-space: pre;" direction="ltr">rejestracji</text></g><g stroke-linecap="round" transform="translate(543.3226600985206 514.4523809523811) rotate(0 92.33333333333326 91.5)"><path d="M-3.94 2.75 L188.13 1.81 L182.44 185.87 L1.39 184.29" stroke="none" stroke-width="0" fill="#fcd1eb"></path><path d="M-0.28 -1.73 C46.09 2.09, 100.63 6.95, 183.06 -2.17 M-0.18 -0.57 C53.11 -0.51, 110.77 1.06, 184.33 -1.97 M183.94 -1.29 C187.06 47.89, 184.88 98.49, 186.88 180.88 M186.28 0.12 C182.48 35.72, 183.73 75.6, 184.56 182.92 M186.54 185.17 C112.34 185.24, 45.1 182.15, 2.25 183.22 M183.15 183.99 C134.65 184.17, 84.59 181.17, -1.91 182.75 M3.15 184.21 C-5.24 113.48, -1.87 50.54, -3.72 -2.79 M-1.07 183.7 C3.84 127.78, 4.25 74.49, -0.14 0.66" stroke="#af91a3" stroke-width="2" fill="none"></path></g><g transform="translate(573.874541184138 589.2981138272738) rotate(355.2533665234956 61.5 17.5)"><text x="61.5" y="25" font-family="Virgil, Segoe UI Emoji" font-size="28px" fill="#000000" text-anchor="middle" style="white-space: pre;" direction="ltr">Facebook</text></g><g stroke-linecap="round" transform="translate(752.4893267651876 514.452380952381) rotate(0 86.5 91.5)"><path d="M0.63 1.47 L173.58 1.57 L170.29 182.18 L-1.92 183.39" stroke="none" stroke-width="0" fill="#ff8300"></path><path d="M1.31 -3.94 C68.9 3.71, 134.11 -1.98, 175.87 1.39 M-0.9 1.69 C56.41 -0.67, 116.75 0.22, 172.43 0.46 M170.65 1.04 C171.62 39.5, 169.83 80.92, 169.49 184.02 M173.08 0.46 C171.11 64.64, 172.01 126.98, 171.02 182.95 M175.48 185.6 C138.3 187.77, 103.43 186.01, -0.16 181.56 M174.17 181.85 C136.66 180.39, 100.66 181.56, 0.29 181.1 M2.72 182.16 C-5.68 128.91, -5.25 80.82, 1.23 -3.03 M0.44 181.38 C-2.82 127, -3.94 73.84, -0.28 0.53" stroke="#cc6800" stroke-width="2" fill="none"></path></g><g transform="translate(759.9893267651889 586.6666666666664) rotate(6.650200316659098 77 25)"><text x="77" y="18" font-family="Virgil, Segoe UI Emoji" font-size="20px" fill="#000000" text-anchor="middle" style="white-space: pre;" direction="ltr">Zarejestrowano</text><text x="77" y="43" font-family="Virgil, Segoe UI Emoji" font-size="20px" fill="#000000" text-anchor="middle" style="white-space: pre;" direction="ltr">użytkownika</text></g><g stroke-linecap="round"><g transform="translate(1373.9893267651871 389.28571428571456) rotate(0 -520.1228914081576 216.605631500644)"><path d="M-1.33 -0.57 C16.78 20.09, 195.49 53.33, 107.12 121.27 C18.76 189.21, -327.15 357.68, -531.51 407.08 C-735.87 456.47, -1016.58 432.77, -1119.04 417.65 C-1221.5 402.53, -1142.35 332.68, -1146.27 316.37 M3.15 -3.35 C21.21 16.71, 195.43 48.14, 106.04 116.95 C16.64 185.76, -329.24 360.15, -533.24 409.5 C-737.23 458.85, -1016.53 428.6, -1117.94 413.06 C-1219.35 397.51, -1136.95 332.04, -1141.7 316.23" stroke="#000000" stroke-width="2" fill="none"></path></g><g transform="translate(1373.9893267651871 389.28571428571456) rotate(0 -520.1228914081576 216.605631500644)"><path d="M-1145.42 349.12 C-1141.51 338.99, -1144.41 332.78, -1137.91 314.66 M-1145.59 344.71 C-1143.07 338.18, -1145.66 331.55, -1140.93 314.94" stroke="#000000" stroke-width="2" fill="none"></path></g><g transform="translate(1373.9893267651871 389.28571428571456) rotate(0 -520.1228914081576 216.605631500644)"><path d="M-1163.94 340.27 C-1155.63 332.49, -1153.97 328.46, -1137.91 314.66 M-1164.1 335.86 C-1157.16 331.16, -1155.49 326.57, -1140.93 314.94" stroke="#000000" stroke-width="2" fill="none"></path></g></g><g stroke-linecap="round" transform="translate(20.911330049259732 512.7857142857149) rotate(0 54.74466338259447 84.83333333333337)"><path d="M0.91 1.62 L106.01 -3.82 L113.24 166.12 L-0.93 170.98" stroke="none" stroke-width="0" fill="#fbf425"></path><path d="M-1.49 3.3 C29.15 1.39, 55.6 4.54, 106.12 -2.95 M-1.01 0.71 C21.65 -0.98, 45.9 -1.79, 109.93 1.58 M108.02 1.56 C112.36 60.93, 114.2 116.38, 106.53 168.35 M109.94 -1.95 C107.56 39.98, 107.46 80.54, 110.81 169.03 M106.47 165.8 C67.3 172.66, 30.27 174.87, 2.14 168.31 M108.58 170.09 C69.29 172.3, 29.79 169.5, 1.21 170.28 M-3.67 165.75 C-4.56 120.43, -2.54 77.4, -0.35 0.64 M-1.26 168.68 C-3.12 103.51, -2.88 36.45, 0.45 0.53" stroke="#b2ad19" stroke-width="2" fill="none"></path></g><g stroke-linecap="round" transform="translate(62.701149425284484 531.1732348111666) rotate(0 16.29802955665025 20.47701149425285)"><path d="M7.24 3.64 C7.24 3.64, 7.24 3.64, 7.24 3.64 M7.24 3.64 C7.24 3.64, 7.24 3.64, 7.24 3.64 M3.14 21.18 C9.25 15.63, 13.37 11.47, 17.01 -3.23 M4.75 20.09 C11.31 10.76, 17.62 4.8, 21.19 0.12 M6.74 31.76 C9.58 20.97, 21.21 13.07, 28.88 1.82 M4.77 32.48 C11.33 23.16, 19.3 11.74, 28.53 6.29 M12.33 34.25 C14.21 35.87, 18.95 31.51, 29.63 11.45 M9.01 36.42 C14.95 30.66, 20.58 26.4, 32.58 13.82 M12.39 42.22 C24.7 33.21, 24.4 25.56, 35.9 24.58 M14.36 42.95 C22.5 38.19, 23.58 33.45, 35.23 19.15" stroke="#0000" stroke-width="1" fill="none"></path><path d="M18.4 -1.65 C21.55 -1.8, 23.71 0.23, 25.99 3.69 C28.27 7.14, 31.57 14.29, 32.06 19.07 C32.54 23.86, 30.91 28.89, 28.91 32.41 C26.91 35.93, 23.12 39.17, 20.07 40.2 C17.01 41.23, 13.58 40.08, 10.6 38.59 C7.62 37.1, 3.7 34.81, 2.18 31.27 C0.66 27.73, 0.61 22, 1.5 17.35 C2.39 12.69, 2.94 5.14, 7.51 3.33 C12.08 1.53, 24.7 3.48, 28.91 6.5 C33.12 9.52, 33.37 21.48, 32.75 21.45 M13.08 1.76 C16 0.19, 16.32 -0.91, 19.27 0.36 C22.22 1.64, 28.41 5.09, 30.79 9.43 C33.18 13.78, 34.44 21.53, 33.57 26.43 C32.7 31.33, 28.78 35.97, 25.56 38.83 C22.33 41.68, 17.92 44.51, 14.21 43.54 C10.5 42.57, 5.71 36.17, 3.3 32.98 C0.88 29.8, -0.61 27.87, -0.28 24.44 C0.05 21, 3.13 16.41, 5.28 12.35 C7.44 8.29, 11.39 1.41, 12.65 0.07 C13.92 -1.26, 12.89 4.06, 12.86 4.33" stroke="#000000" stroke-width="2" fill="none"></path></g><g stroke-linecap="round"><g transform="translate(79.17546912422063 573.5140644192868) rotate(0 -2.06612275356224 17.879971477981485)"><path d="M2.31 0.16 C2.12 6.2, -3.23 29.5, -3.9 35.21 M0.11 -2.22 C-0.24 4.25, -5.99 31.57, -6.44 37.98" stroke="#000000" stroke-width="2" fill="none"></path></g></g><g stroke-linecap="round"><g transform="translate(46.536231906969306 649.0706007861961) rotate(0 15.01711075189121 -21.570803282944155)"><path d="M0.16 -0.56 C4.95 -7.35, 23.23 -31.53, 27.68 -38.47 M-3.2 -3.33 C2.61 -11.14, 27.29 -36.44, 33.23 -42.59" stroke="#000000" stroke-width="2" fill="none"></path></g></g><g stroke-linecap="round"><g transform="translate(94.51148748570154 647.8999429086136) rotate(0 -9.73701879088992 -18.94490803062837)"><path d="M-0.56 -1.57 C-3.87 -8.54, -14.12 -34.92, -17.57 -41.64 M-4.3 3.75 C-8.05 -2.96, -17.04 -31.96, -18.92 -39.29" stroke="#000000" stroke-width="2" fill="none"></path></g></g><g stroke-linecap="round"><g transform="translate(78.29649463274905 572.882783536021) rotate(0 -12.746643560759708 9.868834265333021)"><path d="M-1.57 1.65 C-6.31 4.6, -23.77 14.33, -28.27 17.16 M2.77 0.08 C-1.12 3.37, -18.83 16.11, -23.14 19.66" stroke="#000000" stroke-width="2" fill="none"></path></g></g><g stroke-linecap="round"><g transform="translate(83.51578846212738 571.000883645808) rotate(0 10.349159089324985 16.162504163539893)"><path d="M1.65 -2.36 C4.46 3.32, 13.63 26, 16.32 32.48 M-0.9 2.53 C2.84 8.6, 18.84 29.82, 21.6 34.68" stroke="#000000" stroke-width="2" fill="none"></path></g></g><g transform="translate(30.522988505744934 661.5574712643677) rotate(0 43.04351395730703 10.447454844006586)"><text x="43.04351395730706" y="14.894909688013136" font-family="Virgil, Segoe UI Emoji" font-size="16.715927750410508px" fill="#000000" text-anchor="middle" style="white-space: pre;" direction="ltr">Użytkownik</text></g><g stroke-linecap="round" transform="translate(1604.5779967159262 106.45238095238051) rotate(0 54.744663382594354 84.83333333333337)"><path d="M2.06 -2.55 L106.84 -1.18 L111.72 168.9 L-0.33 167.58" stroke="none" stroke-width="0" fill="#fbf425"></path><path d="M1.99 1.97 C40.09 1.46, 78.36 0.08, 109.38 2.15 M1.22 -1.85 C35.55 0.42, 74.21 1.29, 110.18 -1.08 M111.92 1.78 C109.59 39.1, 103.33 81.23, 110.49 165.76 M108.86 0.43 C108.97 53.56, 111.45 103.12, 109.48 169.21 M112.74 170.56 C77.26 168.51, 47.46 166, 3.69 168.42 M108.83 171.2 C71.5 171.13, 35.25 168.63, 1.52 168.34 M1.42 170.9 C1.65 122.13, -2.89 74.45, 3.97 -3.02 M1.25 169.35 C1.88 128.35, 3.24 88.11, 1.05 1.37" stroke="#b2ad19" stroke-width="2" fill="none"></path></g><g stroke-linecap="round" transform="translate(1646.367816091951 124.8399014778322) rotate(0 16.298029556650135 20.477011494252906)"><path d="M3.65 7.15 C3.65 7.15, 3.65 7.15, 3.65 7.15 M3.65 7.15 C3.65 7.15, 3.65 7.15, 3.65 7.15 M4.49 17.79 C9.11 18.51, 13.54 8.07, 15.57 1.41 M1.43 20.29 C6.71 15.65, 14.85 7.15, 19.1 2.24 M7.08 29.68 C12.84 23.02, 21.12 15.33, 27.91 2.5 M7.14 28.36 C14.27 21.83, 20.99 9.27, 26.23 3.68 M9.94 36.6 C19.82 32.88, 23.35 24.68, 30.07 11.47 M8.88 38.4 C16.69 25.67, 27.27 19.12, 33.35 9.83 M10.97 40.34 C24.49 31.47, 28.58 28.81, 36.45 19.98 M14.1 43.6 C23.82 35.55, 31.39 25.7, 37.9 17.16" stroke="#0000" stroke-width="1" fill="none"></path><path d="M15.02 0.07 C18.28 -0.29, 23.45 1.94, 26.45 4.26 C29.44 6.58, 31.98 10.21, 32.98 13.98 C33.97 17.76, 34.29 22.83, 32.43 26.9 C30.57 30.97, 25.21 36.09, 21.84 38.41 C18.47 40.72, 15.23 41.95, 12.22 40.79 C9.22 39.64, 6.09 35.37, 3.83 31.48 C1.57 27.59, -1.27 21.43, -1.35 17.43 C-1.43 13.44, -1.69 9.15, 3.34 7.52 C8.37 5.88, 24.03 5.31, 28.83 7.62 C33.63 9.93, 32.21 21.31, 32.11 21.38 M4.27 8.09 C6.02 3.91, 8.96 -0.81, 12.44 -1.66 C15.92 -2.5, 22.33 0.85, 25.17 3.04 C28 5.23, 28.4 7.78, 29.44 11.48 C30.49 15.18, 32.12 21.38, 31.43 25.25 C30.74 29.13, 27.61 32.02, 25.3 34.74 C23 37.46, 20.99 41.43, 17.61 41.57 C14.22 41.72, 7.6 39.01, 4.98 35.6 C2.36 32.2, 1.8 25.72, 1.9 21.13 C1.99 16.55, 5.18 10.43, 5.55 8.1 C5.92 5.76, 4.15 6.96, 4.12 7.14" stroke="#000000" stroke-width="2" fill="none"></path></g><g stroke-linecap="round"><g transform="translate(1662.8421357908871 167.18073108595286) rotate(0 -0.8500449656860383 17.285745451446473)"><path d="M1.38 -0.3 C0.91 5.28, -1.05 28.73, -1.72 34.9 M-1.31 -2.93 C-2.11 2.84, -2.61 30.39, -3.08 37.51" stroke="#000000" stroke-width="2" fill="none"></path></g></g><g stroke-linecap="round"><g transform="translate(1630.2028985736358 242.73726745286217) rotate(0 14.422884725356425 -21.245996933666618)"><path d="M-0.3 1.62 C4.03 -5.19, 22.46 -32.75, 27.37 -39.46 M-3.91 0.03 C1.19 -7.8, 27.55 -36.89, 32.76 -44.11" stroke="#000000" stroke-width="2" fill="none"></path></g></g><g stroke-linecap="round"><g transform="translate(1678.178154152368 241.56660957528015) rotate(0 -9.412212441612382 -18.041518769859465)"><path d="M1.62 -1.88 C-1.7 -8.39, -15.34 -33.31, -18.56 -39.36 M-0.94 3.27 C-4.71 -2.73, -17.48 -28.04, -20.44 -35.77" stroke="#000000" stroke-width="2" fill="none"></path></g></g><g stroke-linecap="round"><g transform="translate(1661.9631612994156 166.549450202687) rotate(0 -12.982182784050565 9.638384652261038)"><path d="M-1.88 0.66 C-6.16 3.84, -22.16 17.39, -25.98 20.73 M2.3 -1.45 C-2.34 0.77, -23.54 13.64, -28.26 16.53" stroke="#000000" stroke-width="2" fill="none"></path></g></g><g stroke-linecap="round"><g transform="translate(1667.182455128794 164.66755031247408) rotate(0 8.73237982820524 16.81676939681813)"><path d="M0.66 -0.07 C3.7 6.28, 16.7 30.54, 19.89 36.22 M-2.43 -2.58 C0.23 3.08, 14.93 25.29, 18.47 31.81" stroke="#000000" stroke-width="2" fill="none"></path></g></g><g transform="translate(1614.1896551724114 255.2241379310342) rotate(0 43.04351395730714 10.447454844006586)"><text x="43.04351395730706" y="14.894909688013136" font-family="Virgil, Segoe UI Emoji" font-size="16.715927750410508px" fill="#000000" text-anchor="middle" style="white-space: pre;" direction="ltr">Użytkownik</text></g><g stroke-linecap="round" transform="translate(1740.822660098521 101.78571428571422) rotate(0 86.5 91.5)"><path d="M2.17 3.09 L175.75 1.35 L175.49 182.15 L2.87 181.84" stroke="none" stroke-width="0" fill="#ade000"></path><path d="M-1.46 2.62 C55.14 -2.07, 106.24 2.22, 175.61 2.82 M1.2 0.42 C55.27 0.84, 114.11 -1.95, 171.71 -1.41 M175.28 -2.84 C168.33 45.76, 173.67 86.03, 171.76 185.1 M172.3 1.35 C177.27 71.99, 173.6 144.59, 171.99 182.87 M175.06 179.15 C108.44 178.55, 43.94 180.59, 0.36 186.2 M174.61 184.76 C118.51 180.58, 64.23 180.94, -0.51 184.66 M-2.76 181.29 C5.47 116.35, 1.82 50.95, 1.04 -1.55 M-0.74 183.3 C0.14 122.23, 1.67 62.26, -0.65 -0.91" stroke="#719300" stroke-width="2" fill="none"></path></g><g transform="translate(1737.322660098521 108.6190476190477) rotate(0 90 87.5)"><text x="90" y="25" font-family="Virgil, Segoe UI Emoji" font-size="28px" fill="#000000" text-anchor="middle" style="white-space: pre;" direction="ltr">Panel </text><text x="90" y="60" font-family="Virgil, Segoe UI Emoji" font-size="28px" fill="#000000" text-anchor="middle" style="white-space: pre;" direction="ltr">kontroli</text><text x="90" y="95" font-family="Virgil, Segoe UI Emoji" font-size="28px" fill="#000000" text-anchor="middle" style="white-space: pre;" direction="ltr">temperatury</text><text x="90" y="130" font-family="Virgil, Segoe UI Emoji" font-size="28px" fill="#000000" text-anchor="middle" style="white-space: pre;" direction="ltr">w </text><text x="90" y="165" font-family="Virgil, Segoe UI Emoji" font-size="28px" fill="#000000" text-anchor="middle" style="white-space: pre;" direction="ltr">pomieszczeniu</text></g><g stroke-linecap="round" transform="translate(1946.822660098521 95.78571428571445) rotate(0 86.5 91.5)"><path d="M2.39 -2.48 L173.73 -2.48 L171.84 186.25 L1.04 179.36" stroke="none" stroke-width="0" fill="#1ea4fd"></path><path d="M-1.74 -2.86 C43.8 1.86, 92.42 6.23, 170.1 -1.08 M1.68 -0.43 C40.07 2.96, 80.48 3.51, 171.66 1.8 M171.17 -1.89 C171.26 43.54, 173.47 85.81, 169.54 186.91 M173.86 -0.21 C172.72 53.51, 173.17 102.2, 172.58 181.22 M171.69 182.22 C136.45 182.59, 91.89 179.07, -2.42 180.4 M174.99 183.49 C121.22 184.2, 69.43 181.57, 0.08 181.19 M0.69 186.21 C4.17 122.31, -0.02 59.92, -0.34 -0.44 M-0.66 184.35 C-1.57 137.66, -2.37 95.82, -1.65 0.01" stroke="#1472b0" stroke-width="2" fill="none"></path></g><g transform="translate(1941.4893267651885 117.61904761904748) rotate(0 90 70)"><text x="90" y="25" font-family="Virgil, Segoe UI Emoji" font-size="28px" fill="#000000" text-anchor="middle" style="white-space: pre;" direction="ltr">Ustaw </text><text x="90" y="60" font-family="Virgil, Segoe UI Emoji" font-size="28px" fill="#000000" text-anchor="middle" style="white-space: pre;" direction="ltr">temperaturę</text><text x="90" y="95" font-family="Virgil, Segoe UI Emoji" font-size="28px" fill="#000000" text-anchor="middle" style="white-space: pre;" direction="ltr">w </text><text x="90" y="130" font-family="Virgil, Segoe UI Emoji" font-size="28px" fill="#000000" text-anchor="middle" style="white-space: pre;" direction="ltr">pomieszczeniu</text></g><g stroke-linecap="round" transform="translate(2144.989326765188 95.78571428571422) rotate(0 92.33333333333348 91.5)"><path d="M-2.84 0.75 L186.58 -2.68 L186.12 183.03 L3.18 185.13" stroke="none" stroke-width="0" fill="#fcd1eb"></path><path d="M3.98 0.69 C64.17 -1.8, 135.2 5.9, 187.84 -0.74 M1.14 -0.02 C64.7 2.08, 130.1 1.29, 183.13 1.04 M181.1 0.72 C190.81 68.98, 187.54 135.8, 186.66 186.08 M185.91 -0.09 C184.13 56.03, 185.02 112.16, 184.35 184.49 M183.23 182.31 C139.56 184.08, 97.7 188.42, 3.11 182.64 M186.25 183.67 C141.61 181.6, 98.91 183.19, 0.39 183.03 M1.03 180.37 C4.57 130.22, -1.87 66.07, -2.89 3.91 M-1.29 183.2 C-2.26 115.74, -1.29 47.96, 1.31 1.91" stroke="#af91a3" stroke-width="2" fill="none"></path></g><g transform="translate(2178.541207850805 164.91716144632096) rotate(3.9781394656115285 58.5 17.5)"><text x="58.5" y="25" font-family="Virgil, Segoe UI Emoji" font-size="28px" fill="#000000" text-anchor="middle" style="white-space: pre;" direction="ltr">Frontend</text></g><g stroke-linecap="round" transform="translate(2496.822660098521 433.7857142857142) rotate(0 204.5 91.5)"><path d="M3.69 -2.53 L412.84 2.22 L412.17 182.77 L-2.82 184.89" stroke="none" stroke-width="0" fill="#e7b8ff"></path><path d="M-1.87 -0.34 C113.66 0.14, 226.7 -0.46, 410.95 0.11 M0.46 -0.96 C120.07 1.14, 240.67 2.96, 408.7 -0.69 M412.15 1.85 C407.75 61.19, 409.96 112.33, 412.69 181.07 M409.55 1.91 C407.56 63.32, 410.94 125.61, 407.76 183.01 M408.09 180.8 C275.24 184.47, 143.62 185.67, -1.57 184.63 M408.75 182.74 C302.46 179.3, 197.48 180.17, 0.96 183.95 M2.57 180.21 C2.14 125.03, 1.28 69.07, 1.43 2.98 M-0.78 184.11 C3.58 117.51, 4.23 51.12, 1.39 -0.13" stroke="#b893cc" stroke-width="2" fill="none"></path></g><g transform="translate(2786.489326765188 578.6190476190475) rotate(0 46.5 17.5)"><text x="46.5" y="25" font-family="Virgil, Segoe UI Emoji" font-size="28px" fill="#000000" text-anchor="middle" style="white-space: pre;" direction="ltr">gdy &lt;–</text></g><g transform="translate(2522.3226600985217 574.2857142857142) rotate(0 41 17.5)"><text x="41" y="25" font-family="Virgil, Segoe UI Emoji" font-size="28px" fill="#000000" text-anchor="middle" style="white-space: pre;" direction="ltr">&lt;– to</text></g><g transform="translate(2527.322660098521 475.61904761904725) rotate(0 182.5 35)"><text x="182.5" y="25" font-family="Virgil, Segoe UI Emoji" font-size="28px" fill="#000000" text-anchor="middle" style="white-space: pre;" direction="ltr">Jeśli temperatura zmieniła</text><text x="182.5" y="60" font-family="Virgil, Segoe UI Emoji" font-size="28px" fill="#000000" text-anchor="middle" style="white-space: pre;" direction="ltr">się, wyślij powiadomienie</text></g><g stroke-linecap="round" transform="translate(1591.5779967159262 436.45238095238096) rotate(0 54.744663382594354 84.83333333333337)"><path d="M-2.47 -2.85 L110.45 -0.62 L110.32 173.48 L-0.73 168.76" stroke="none" stroke-width="0" fill="#fbf425"></path><path d="M3.23 -1.9 C32.41 -0.84, 71.15 -2.65, 113.49 -2.16 M0.48 0.45 C36.75 0.4, 76.02 2.82, 109.24 0.94 M112.41 0.68 C115.4 45.62, 110.5 97.44, 110.21 168.43 M109.44 1.99 C111.71 43.71, 111.81 92.29, 109.76 170.24 M109.21 169.22 C77.04 172.28, 46.75 171.08, 2.36 166.06 M110.74 168.84 C81.26 173.1, 51.39 170.58, 0.11 170.78 M2.94 173.29 C-0.5 101.83, -1.56 41.97, -0.89 1.79 M-0.1 169.53 C0.41 115.65, 1.77 63.03, -0.35 -0.48" stroke="#b2ad19" stroke-width="2" fill="none"></path></g><g transform="translate(1607.2331691297197 559.2241379310346) rotate(0 41 21)"><text x="41" y="15" font-family="Virgil, Segoe UI Emoji" font-size="16.715927750410508px" fill="#000000" text-anchor="middle" style="white-space: pre;" direction="ltr">Zdażenie </text><text x="41" y="36" font-family="Virgil, Segoe UI Emoji" font-size="16.715927750410508px" fill="#000000" text-anchor="middle" style="white-space: pre;" direction="ltr">czasowe</text></g><g stroke-linecap="round" transform="translate(1604.572660098521 463.5) rotate(0 41.875 39.375)"><path d="M67.11 9.61 C73.39 13.48, 77.95 19.17, 80.36 26.36 C82.76 33.55, 83.97 45.04, 81.55 52.76 C79.13 60.47, 72.2 68.48, 65.83 72.66 C59.47 76.85, 51.3 77.85, 43.35 77.87 C35.4 77.89, 24.73 77.18, 18.14 72.77 C11.54 68.37, 6.63 59.12, 3.76 51.45 C0.9 43.79, -0.83 34.04, 0.92 26.78 C2.68 19.52, 7.55 12.53, 14.27 7.89 C20.99 3.25, 32.8 -0.49, 41.23 -1.06 C49.66 -1.64, 59.13 2.25, 64.85 4.46 C70.56 6.68, 73.46 9.36, 75.51 12.23 C77.56 15.11, 78.23 20.92, 77.15 21.7 M73.42 11.94 C79.93 16.4, 82.32 25.23, 83.81 32.13 C85.31 39.03, 85.65 46.32, 82.4 53.36 C79.15 60.39, 71.29 70.09, 64.32 74.33 C57.36 78.58, 49.34 79.63, 40.63 78.84 C31.91 78.05, 19.04 74.51, 12.06 69.6 C5.08 64.69, 0.57 56.45, -1.25 49.39 C-3.07 42.33, -2.27 34.13, 1.12 27.23 C4.51 20.33, 12.55 12.1, 19.09 7.99 C25.64 3.87, 31.94 2.93, 40.4 2.52 C48.87 2.12, 64.34 4.43, 69.86 5.55 C75.38 6.67, 73.2 8.34, 73.51 9.24 C73.82 10.14, 72.33 9.8, 71.72 10.97" stroke="none" stroke-width="0" fill="#fab005"></path><path d="M19.53 5.81 C26.18 1.31, 37.04 -1.97, 44.76 -1.66 C52.48 -1.35, 59.84 2.94, 65.85 7.66 C71.87 12.37, 78.02 19.24, 80.84 26.64 C83.66 34.04, 85.13 44.94, 82.77 52.04 C80.41 59.14, 73.05 64.65, 66.67 69.23 C60.3 73.82, 52.28 78.92, 44.52 79.53 C36.76 80.15, 27.4 77.31, 20.1 72.93 C12.81 68.55, 3.62 60.19, 0.73 53.23 C-2.15 46.28, 0.16 38.41, 2.8 31.22 C5.43 24.04, 12.06 14.99, 16.55 10.14 C21.04 5.29, 25.82 3.73, 29.75 2.12 C33.68 0.5, 39.68 -0.34, 40.14 0.47 M70.1 10.21 C75.51 15.69, 79.06 26.6, 80.8 34.95 C82.55 43.29, 83.89 53.95, 80.58 60.29 C77.26 66.63, 69.01 69.98, 60.91 72.96 C52.82 75.94, 39.78 79.12, 32.03 78.16 C24.27 77.21, 19.33 72.51, 14.39 67.24 C9.46 61.96, 4.24 54.52, 2.42 46.54 C0.59 38.55, 0.3 26.21, 3.43 19.34 C6.55 12.48, 14.34 8.11, 21.17 5.36 C27.99 2.62, 36.2 2.31, 44.38 2.88 C52.57 3.46, 65.3 7.01, 70.3 8.82 C75.29 10.62, 73.55 13, 74.36 13.73 C75.17 14.46, 76.34 13.35, 75.18 13.2" stroke="#000000" stroke-width="2" fill="none"></path></g><g stroke-linecap="round"><g transform="translate(1644.3504378762993 464.16666666666674) rotate(0 2.0617131759806853 17.381120080947824)"><path d="M2.55 2 C3.41 7.3, 4.02 26.67, 3.34 31.39 M0.49 0.61 C1.35 6.3, 1.8 28.92, 2.38 34.15" stroke="#000000" stroke-width="2" fill="none"></path></g></g><g stroke-linecap="round"><g transform="translate(1666.3504378762993 511.16666666666674) rotate(0 -10.502011128887489 -5.259818172492089)"><path d="M0.72 -1.72 C-3.21 -4.37, -18.76 -11.99, -21.72 -14.04 M-2.34 3.52 C-5.61 1.18, -14.22 -8.03, -16.8 -10.43" stroke="#000000" stroke-width="2" fill="none"></path></g></g><g stroke-linecap="round"><g transform="translate(1622.3504378762993 479.16666666666674) rotate(0 3.0830717987939806 2.73879958380013)"><path d="M2.45 0.42 C3.35 1.98, 4.95 5.93, 5.82 7.3 M0.34 -1.83 C0.72 -0.91, 1.96 1.94, 2.95 3" stroke="#000000" stroke-width="2" fill="none"></path></g></g><g stroke-linecap="round"><g transform="translate(1611.3504378762993 517.1666666666667) rotate(0 6.811868916191315 -3.995546536482834)"><path d="M-2.39 0.2 C-0.22 -0.52, 7.99 -3.36, 10.46 -4.17 M1.5 -2.16 C4.84 -3.68, 14.47 -6.97, 16.02 -8.19" stroke="#000000" stroke-width="2" fill="none"></path></g></g><g stroke-linecap="round"><g transform="translate(1638.3504378762993 540.1666666666667) rotate(0 0.7699793043734644 -8.049739787615863)"><path d="M0.38 1.31 C0.53 -1.27, -1.28 -10.4, -0.59 -13.66 M-2.87 -0.45 C-1.73 -3.94, 3.25 -14.75, 4.41 -17.41" stroke="#000000" stroke-width="2" fill="none"></path></g></g><g stroke-linecap="round"><g transform="translate(1672.3504378762993 532.1666666666667) rotate(0 -7.235870887599958 -5.66361533407121)"><path d="M1.63 -0.26 C-1.32 -1.28, -11.56 -5.4, -14.97 -7.45 M-0.93 -2.87 C-4.32 -4.49, -14.1 -9.75, -16.1 -11.07" stroke="#000000" stroke-width="2" fill="none"></path></g></g><g stroke-linecap="round"><g transform="translate(1683.3504378762993 496.16666666666674) rotate(0 -10.222265163026805 3.204091118012343)"><path d="M0.5 2.53 C-2.2 2.98, -15.36 5.49, -18.1 5.37 M-2.68 1.44 C-5.68 2.25, -18.52 0.71, -20.94 1.1" stroke="#000000" stroke-width="2" fill="none"></path></g></g><g stroke-linecap="round"><g transform="translate(1663.3504378762993 472.16666666666674) rotate(0 -3.109970539100459 7.078573784828166)"><path d="M0.85 0.08 C0.24 2.17, -3.45 11.38, -4.54 13.98 M-2.13 -2.35 C-3.08 -0.09, -7.46 13.03, -7.07 16.51" stroke="#000000" stroke-width="2" fill="none"></path></g></g><g stroke-linecap="round" transform="translate(1715.8504378762993 431.6666666666665) rotate(0 86.5 91.5)"><path d="M-1.79 2.94 L170.15 -1.91 L176.94 182.19 L-2.89 183.59" stroke="none" stroke-width="0" fill="#ade000"></path><path d="M-2.96 -2.65 C40.96 0.79, 80.83 1.87, 175.93 0.21 M0.51 -1.58 C60.67 -1.97, 121.37 0.39, 174.28 -1.76 M169.72 -0.51 C171.96 45.84, 171.43 86.46, 176.63 179.99 M173.92 0.53 C173.26 39.66, 171.62 82.01, 172.84 181.28 M171.73 181.72 C136.58 186.31, 103.25 182.46, 2 186.6 M173.36 183.76 C113.12 182.7, 51.78 183.16, -1.8 182.54 M-3.66 179.63 C-0.99 147.88, 4.29 108.43, -0.31 3.17 M1.99 181.83 C-0.26 116.59, -1.86 51.22, -0.55 1.31" stroke="#719300" stroke-width="2" fill="none"></path></g><g transform="translate(1717.3504378762993 471.50000000000045) rotate(0 83 52.5)"><text x="83" y="25" font-family="Virgil, Segoe UI Emoji" font-size="28px" fill="#000000" text-anchor="middle" style="white-space: pre;" direction="ltr">Interfejs</text><text x="83" y="60" font-family="Virgil, Segoe UI Emoji" font-size="28px" fill="#000000" text-anchor="middle" style="white-space: pre;" direction="ltr">do pomiaru</text><text x="83" y="95" font-family="Virgil, Segoe UI Emoji" font-size="28px" fill="#000000" text-anchor="middle" style="white-space: pre;" direction="ltr">temperatury</text></g><g stroke-linecap="round" transform="translate(1902.6837712096324 427.66666666666674) rotate(0 86.5 91.5)"><path d="M2.81 3.94 L175.37 -2.08 L169.49 179.51 L2.17 179.62" stroke="none" stroke-width="0" fill="#1ea4fd"></path><path d="M0.43 -2.93 C46.34 0.72, 98.31 -0.24, 173.82 0.75 M0.6 -1.78 C44.46 -0.54, 89.16 0.45, 174.46 1.91 M170.3 3.22 C174.66 52.29, 170.78 96.98, 171.44 186.69 M173.75 0.56 C175.59 70.45, 175.42 145.13, 171.98 181.28 M170.11 179.59 C123.17 186.33, 77.19 185.35, -1.3 180.98 M174.01 184.48 C103.78 183.95, 37.6 183.12, -0.95 181.73 M-1.48 182.36 C2.69 129.76, -2.7 73.68, 3.43 -2.31 M1.63 184.79 C-0.77 138.36, -0.62 95.17, 1.71 0.26" stroke="#1472b0" stroke-width="2" fill="none"></path></g><g transform="translate(1903.3504378762984 475.4999999999998) rotate(0 84 35)"><text x="84" y="25" font-family="Virgil, Segoe UI Emoji" font-size="28px" fill="#000000" text-anchor="middle" style="white-space: pre;" direction="ltr">Zmierz</text><text x="84" y="60" font-family="Virgil, Segoe UI Emoji" font-size="28px" fill="#000000" text-anchor="middle" style="white-space: pre;" direction="ltr">temperaturę</text></g><g stroke-linecap="round" transform="translate(2933.850437876299 431.66666666666674) rotate(0 86.5 91.5)"><path d="M-3.58 -2.59 L172.1 3.38 L171.6 181.78 L2.23 179.29" stroke="none" stroke-width="0" fill="#1ea4fd"></path><path d="M3.39 -0.44 C58.57 3.69, 113.52 2.42, 172.54 -0.9 M-1.86 1.49 C64.03 2.03, 128.08 3.03, 173.16 1.47 M174.6 -2.68 C169.19 42.61, 171.55 77.84, 170.22 184.05 M173.33 0.05 C172.63 40.71, 171.49 77.99, 173.09 182.22 M175.54 183.49 C118.11 184.52, 70.31 185.16, -1.55 185.06 M171.36 184.32 C110.81 182.27, 45.03 185.56, -0.81 182.97 M3.9 180.81 C-0.09 125.22, -0.75 70.26, 0.31 -1.48 M0.9 184.88 C-3.4 135.76, -2.86 85.92, 1.8 -1.38" stroke="#1472b0" stroke-width="2" fill="none"></path></g><g transform="translate(2938.017104542965 440.4999999999998) rotate(0 80.5 87.5)"><text x="80.5" y="25" font-family="Virgil, Segoe UI Emoji" font-size="28px" fill="#000000" text-anchor="middle" style="white-space: pre;" direction="ltr">Sprawdź</text><text x="80.5" y="60" font-family="Virgil, Segoe UI Emoji" font-size="28px" fill="#000000" text-anchor="middle" style="white-space: pre;" direction="ltr">czy temp.</text><text x="80.5" y="95" font-family="Virgil, Segoe UI Emoji" font-size="28px" fill="#000000" text-anchor="middle" style="white-space: pre;" direction="ltr">mieści się </text><text x="80.5" y="130" font-family="Virgil, Segoe UI Emoji" font-size="28px" fill="#000000" text-anchor="middle" style="white-space: pre;" direction="ltr">w zadanych</text><text x="80.5" y="165" font-family="Virgil, Segoe UI Emoji" font-size="28px" fill="#000000" text-anchor="middle" style="white-space: pre;" direction="ltr">wartościach</text></g><g stroke-linecap="round" transform="translate(1601.3504378762993 10) rotate(0 466 30.166666666666742)"><path d="M2.23 -0.57 L930.6 -1.55 L932.27 57.74 L1.69 57.97" stroke="none" stroke-width="0" fill="#fab005"></path><path d="M0.37 -0.01 C345 -3.69, 690.32 -2.61, 931.77 0.64 M-0.14 0.38 C290.53 -1.67, 580.66 -2.21, 931.57 -0.22 M934.46 -3.54 C935.24 26.1, 930.54 45.8, 929.58 62.07 M931.08 -0.95 C930.53 24.87, 932.05 46.49, 933.87 60.83 M931.62 60.31 C692.64 62.36, 451.73 65.03, -1.53 59.02 M931.29 59.66 C656 67.01, 381.38 66.16, 0.28 60.64 M-0.9 57.59 C3.75 37.49, -3.14 17.03, 2.49 -2.47 M-1.42 60.52 C-0.59 47.03, 2.87 34.28, 0.81 -0.22" stroke="#000000" stroke-width="2" fill="none"></path></g><g transform="translate(1834.3504378762993 12.666666666667197) rotate(0 228 22.5)"><text x="228" y="32" font-family="Virgil, Segoe UI Emoji" font-size="36px" fill="#000000" text-anchor="middle" style="white-space: pre;" direction="ltr">Zarządzenie temperaturą</text></g><g stroke-linecap="round" transform="translate(1600.3504378762993 350.9999999999999) rotate(0 959.0000000000005 33.16666666666674)"><path d="M-0.64 -3.68 L1916.12 -1.69 L1914.38 64.46 L3.11 62.51" stroke="none" stroke-width="0" fill="#fab005"></path><path d="M1.58 -0.17 C560.72 -5.73, 1122.03 -7.39, 1917.04 -0.13 M-0.26 0.66 C698.48 -9.89, 1398.57 -9.38, 1918.24 -0.63 M1914.93 -3.41 C1920.88 18.42, 1919.25 33.77, 1918.34 69.9 M1916.83 -0.16 C1916.35 22.69, 1918.47 45.53, 1916.91 66.59 M1919.21 65.28 C1329.33 61.4, 743.06 61.58, 0.7 65.94 M1917.29 65.96 C1291.23 67.42, 663.07 67.47, -0.43 66.54 M-3.02 63.84 C-2.73 47.16, 0.97 37.21, 2.74 -1.49 M0.02 65.48 C1.11 39.12, 0.36 16.53, -0.62 -1.23" stroke="#000000" stroke-width="2" fill="none"></path></g><g transform="translate(2274.850437876299 355.6666666666673) rotate(0 330.5 22.5)"><text x="330.5" y="32" font-family="Virgil, Segoe UI Emoji" font-size="36px" fill="#000000" text-anchor="middle" style="white-space: pre;" direction="ltr">Mierzenie temperatury i powiadomienia</text></g><g stroke-linecap="round" transform="translate(155.0171045429679 321.4058524173023) rotate(0 157 83.09414758269719)"><path d="M-1.3 -2.3 C92.86 -1.77, 187.14 -2.29, 312.54 -1.41 M-1.36 -1.04 C106.43 -0.36, 211.37 -0.42, 314.9 -1.32 M316.07 -1.13 C312.93 46.31, 317.82 98.19, 315.26 170.11 M312.1 -1.41 C312.37 39.08, 313.58 77.11, 315.49 166.77 M316.63 164.97 C223.71 166.66, 139.78 165.13, 2.71 165.89 M313.39 166.2 C199.4 163.25, 85.2 163.84, 1.21 167.13 M1.3 164.66 C3.96 103.5, -0.15 36.46, -2.98 -2.77 M-1.36 167.97 C2.32 112.64, 4.45 57.04, 0.97 -0.71" stroke="#000000" stroke-width="2" fill="none"></path></g><g transform="translate(234.01710454296767 343.83333333333246) rotate(0 81 17.5)"><text x="81" y="25" font-family="Virgil, Segoe UI Emoji" font-size="28px" fill="#000000" text-anchor="middle" style="white-space: pre;" direction="ltr">Zaloguj się!</text></g><g transform="translate(290.6837712096344 380.3333333333329) rotate(0 24.666666666666742 52.857142857143)"><text x="24.666666666666753" y="73.71428571428605" font-family="Virgil, Segoe UI Emoji" font-size="84.57142857142884px" fill="#000000" text-anchor="middle" style="white-space: pre;" direction="ltr">F</text></g></svg>