<svg version="1.1" xmlns="http://www.w3.org/2000/svg" viewBox="0 0 1148.0000000000018 203" width="1148.0000000000018" height="203">
  <!-- svg-source:excalidraw -->
  
  <defs>
    <style>
      @font-face {
        font-family: "Virgil";
        src: url("https://excalidraw.com/Virgil.woff2");
      }
      @font-face {
        font-family: "Cascadia";
        src: url("https://excalidraw.com/Cascadia.woff2");
      }
    </style>
  </defs>
  <rect x="0" y="0" width="1148.0000000000018" height="203" fill="#ffffff"></rect><g stroke-linecap="round" transform="translate(10 10) rotate(0 92.33333333333348 91.5)"><path d="M1.06 -3.58 L182.23 -3.46 L188.01 183.7 L-2.74 185.77" stroke="none" stroke-width="0" fill="#fcd1eb"></path><path d="M2.49 2.06 C51.17 0.18, 92.39 -0.18, 186.28 -2.92 M1.51 1.64 C60.49 3.43, 122.49 2.42, 186.02 1.68 M181.12 2.46 C191.32 44.73, 190.91 94.73, 182.64 184.76 M185.88 -0.86 C185.15 43.78, 185.86 93.38, 185.79 182.08 M184.3 185.45 C138.24 185.76, 95.16 185.67, -1.04 180.78 M183.16 183.79 C112.15 180.55, 40.35 179.35, 1.58 181.93 M-0.17 185.47 C1 112.68, 3 46.65, -1.77 -1.74 M-0.75 181.17 C0.34 121.91, 0.86 65.96, 0.3 1.37" stroke="#af91a3" stroke-width="2" fill="none"></path></g><g transform="translate(40.551881085617424 84.84573287489275) rotate(355.2533665234956 61.5 17.5)"><text x="61.5" y="25" font-family="Virgil, Segoe UI Emoji" font-size="28px" fill="#000000" text-anchor="middle" style="white-space: pre;" direction="ltr">Facebook</text></g><g stroke-linecap="round" transform="translate(245.83333333333394 10) rotate(0 92.33333333333348 91.5)"><path d="M3.69 1.72 L183.96 0.56 L185.53 179.35 L-2.04 184.27" stroke="none" stroke-width="0" fill="#fcd1eb"></path><path d="M2.24 -1.84 C34.68 -2.81, 77.34 -3.79, 187.11 -2.11 M-0.52 -1.11 C56.54 0.11, 108.17 -1.28, 185.46 0.6 M187.84 -2.14 C191.45 48.85, 189.45 101.34, 187.14 182.26 M183.78 -0.87 C186.31 51.33, 186.62 104.21, 182.84 181.24 M185.27 185.74 C146.37 182.49, 103.52 182.61, 3.34 183.7 M184.56 181.03 C143.32 183.6, 101.08 180.43, 1.36 182.55 M-0.99 183.71 C2.28 135.02, 2.37 92.36, 2.57 1.47 M1.81 181.07 C-1.77 126.19, -3.66 68.59, 1.72 -0.1" stroke="#af91a3" stroke-width="2" fill="none"></path></g><g transform="translate(279.38521441895136 79.13144716060651) rotate(3.9781394656115285 58.5 17.5)"><text x="58.5" y="25" font-family="Virgil, Segoe UI Emoji" font-size="28px" fill="#000000" text-anchor="middle" style="white-space: pre;" direction="ltr">Frontend</text></g><g stroke-linecap="round" transform="translate(481.6666666666674 10) rotate(0 92.33333333333326 91.5)"><path d="M3.14 1.33 L186.33 2.35 L185.4 180.92 L1.88 185.31" stroke="none" stroke-width="0" fill="#fcd1eb"></path><path d="M-0.21 -3.94 C45.6 4, 89.43 -2.32, 187.39 -0.91 M-0.49 0.35 C44.6 1.13, 89.68 2.12, 185.95 0.73 M188.29 -3.86 C191.99 57.88, 188.2 114.16, 188.1 182.81 M184.95 0.43 C184.41 70.78, 186.87 144.55, 186.04 181.35 M187.99 186.91 C113.29 180.73, 49.5 178.25, 1.45 180.21 M183.42 182.59 C147.64 184.44, 109.26 186.24, -0.01 184.49 M3.68 184.61 C1.66 125.3, 0.44 73.44, 1.58 2.11 M0.29 181.04 C-2.28 142.8, -4.05 105.96, 0.07 -0.01" stroke="#af91a3" stroke-width="2" fill="none"></path></g><g transform="translate(492.16666666666924 60.5) rotate(355.2533665234956 83 35)"><text x="83" y="25" font-family="Virgil, Segoe UI Emoji" font-size="28px" fill="#000000" text-anchor="middle" style="white-space: pre;" direction="ltr">Czujnik </text><text x="83" y="60" font-family="Virgil, Segoe UI Emoji" font-size="28px" fill="#000000" text-anchor="middle" style="white-space: pre;" direction="ltr">temperatury</text></g><g stroke-linecap="round" transform="translate(717.5000000000014 10) rotate(0 92.33333333333326 91.5)"><path d="M-0.61 2.5 L185.21 -2.2 L187.05 183.99 L-2.86 180.11" stroke="none" stroke-width="0" fill="#fcd1eb"></path><path d="M-0.16 3.44 C72.29 3.77, 146.69 -0.63, 185.23 0.86 M0.95 1.38 C36.91 0.16, 76.06 -2.99, 186.33 1.95 M183.27 1.45 C182.86 34.4, 188.44 78.11, 182.17 182.18 M186.07 -0.01 C185.43 68.28, 183.88 135.33, 186.51 183.81 M183.62 184.58 C124.29 179.71, 62.52 179.62, 0.58 179.09 M184.66 183.07 C126.41 181.87, 68.83 181.13, 1.17 183.37 M2.28 179.1 C-3.8 134.63, -3.08 91.04, -0.65 2.12 M-0.04 182.69 C-3.26 113.38, -1.73 45.7, -0.27 1.16" stroke="#af91a3" stroke-width="2" fill="none"></path></g><g transform="translate(754.0518810856206 79.13144716060697) rotate(3.9781394656115285 55.5 17.5)"><text x="55.5" y="25" font-family="Virgil, Segoe UI Emoji" font-size="28px" fill="#000000" text-anchor="middle" style="white-space: pre;" direction="ltr">Backend</text></g><g stroke-linecap="round" transform="translate(953.3333333333348 10) rotate(0 92.33333333333348 91.5)"><path d="M3.77 3.01 L186.17 3.87 L182.92 183.32 L3.95 184.92" stroke="none" stroke-width="0" fill="#fcd1eb"></path><path d="M-3.58 2.83 C46.91 -1.36, 97.25 -1.33, 181.31 -2.92 M1.57 0.66 C56.14 1.19, 110.98 -1.03, 185.61 1.16 M181.67 -1.36 C179.89 64.7, 183.22 133.79, 186.12 183.19 M184.11 -0.39 C184.91 54.24, 185.25 108.72, 185.92 183.27 M181.81 180.11 C140.12 182.51, 93.67 184.34, -2.55 186.22 M185.28 181.84 C118.37 186.66, 50.71 185.46, 1.48 184.6 M-0.52 186.58 C1.43 135.55, 3.46 86.11, -1.35 2.69 M-1.83 181.89 C-0.27 132.25, 0.88 81.78, -0.36 0.96" stroke="#af91a3" stroke-width="2" fill="none"></path></g><g transform="translate(970.8852144189523 84.84573287489263) rotate(355.2533665234956 74.5 17.5)"><text x="74.5" y="25" font-family="Virgil, Segoe UI Emoji" font-size="28px" fill="#000000" text-anchor="middle" style="white-space: pre;" direction="ltr">Termostat</text></g></svg>