<svg version="1.1" xmlns="http://www.w3.org/2000/svg" viewBox="0 0 638.1124050745377 209.85304551797879" width="638.1124050745377" height="209.85304551797879">
  <!-- svg-source:excalidraw -->
  
  <defs>
    <style>
      @font-face {
        font-family: "Virgil";
        src: url("https://excalidraw.com/Virgil.woff2");
      }
      @font-face {
        font-family: "Cascadia";
        src: url("https://excalidraw.com/Cascadia.woff2");
      }
    </style>
  </defs>
  <rect x="0" y="0" width="638.1124050745377" height="209.85304551797879" fill="#ffffff"></rect><g stroke-linecap="round" transform="translate(10 10) rotate(0 92.33333333333337 91.5)"><path d="M-0.59 -1.85 L184.76 0.56 L184.7 181.11 L2.01 184.48" stroke="none" stroke-width="0" fill="#fcd1eb"></path><path d="M-2.01 2.1 C55.4 1.45, 118.95 1.86, 181.36 -3.55 M0.08 1.87 C41.55 1.1, 80.62 2.97, 186.04 1.07 M181.17 -2.12 C186.07 66.33, 182.63 138.57, 183.62 183.38 M183.01 0.64 C182.91 67.1, 183.63 138.3, 184.78 182.75 M181.54 181.52 C120.43 179.77, 54.73 183.43, -1.58 179.71 M183.38 181.38 C116.64 183.91, 51.12 184.79, 1.68 183.63 M-3.41 182.68 C2.52 122.6, -0.51 58.31, -1.9 -0.51 M-0.58 183.05 C1.6 120.08, 1.15 57.58, 0.7 -1.2" stroke="#af91a3" stroke-width="2" fill="none"></path></g><g transform="translate(20.500000000000455 60.5) rotate(355.2533665234956 83 35)"><text x="83" y="25" font-family="Virgil, Segoe UI Emoji" font-size="28px" fill="#000000" text-anchor="middle" style="white-space: pre;" direction="ltr">Czujnik </text><text x="83" y="60" font-family="Virgil, Segoe UI Emoji" font-size="28px" fill="#000000" text-anchor="middle" style="white-space: pre;" direction="ltr">temperatury</text></g><g stroke-linecap="round" transform="translate(443.445738407871 16.853045517978785) rotate(0 92.33333333333337 91.5)"><path d="M3.58 2.35 L187.72 0.39 L185.49 186 L2.25 186.29" stroke="none" stroke-width="0" fill="#fcd1eb"></path><path d="M-1.13 2.84 C74.7 6.03, 141.28 4.7, 181.35 -1.46 M1.47 -0.89 C46.26 -0.96, 93.77 0.79, 183.4 0.15 M186.95 0.79 C180.65 66.64, 185.69 127.88, 181.32 179.88 M184.81 -0.21 C188.1 41.48, 185.57 83.95, 184.09 182.45 M185.58 185.04 C129.62 181.84, 69.32 181.31, 3.98 181.23 M185.97 184.93 C136.27 183.68, 84.08 182.38, -1.61 184.85 M0.54 181.94 C-4.92 138.9, -1.44 97.64, 0 3.36 M-1.48 183.63 C0.47 120.66, 2.54 60.02, 0.63 1.58" stroke="#af91a3" stroke-width="2" fill="none"></path></g><g transform="translate(460.9976194934886 91.69877839287142) rotate(355.2533665234956 74.5 17.5)"><text x="74.5" y="25" font-family="Virgil, Segoe UI Emoji" font-size="28px" fill="#000000" text-anchor="middle" style="white-space: pre;" direction="ltr">Termostat</text></g><g stroke-linecap="round" transform="translate(220.58859555072854 11.138759803693802) rotate(0 92.33333333333337 91.5)"><path d="M3.27 -1.45 L180.97 -1.2 L185.98 183.71 L1.87 186.62" stroke="none" stroke-width="0" fill="#fcd1eb"></path><path d="M3.58 2.35 C59.93 -2.52, 114.58 0.09, 186.92 3.29 M-0.56 -1.92 C67.23 0.04, 136.16 -3.03, 182.72 1.81 M183.79 1.48 C180.84 61.01, 179.72 130.13, 187.62 180.81 M183.4 0.82 C183.76 65.96, 181.98 133.73, 186.08 182.12 M186.23 184.65 C124.98 182.26, 72.56 182.64, -0.91 180.69 M184.85 184.96 C125.59 184.04, 69.88 186.97, -1.52 183.71 M-2.12 184.71 C-0.22 133.92, -1.1 83.99, -1.21 -0.33 M1.41 181.43 C0.69 128.66, 1.13 70.77, 1.64 0.73" stroke="#af91a3" stroke-width="2" fill="none"></path></g><g transform="translate(257.1404766363464 80.27020696430066) rotate(3.9781394656115285 55.5 17.5)"><text x="55.5" y="25" font-family="Virgil, Segoe UI Emoji" font-size="28px" fill="#000000" text-anchor="middle" style="white-space: pre;" direction="ltr">Backend</text></g></svg>