<svg version="1.1" xmlns="http://www.w3.org/2000/svg" viewBox="0 0 939.666666666667 203" width="939.666666666667" height="203">
  <!-- svg-source:excalidraw -->
  
  <defs>
    <style>
      @font-face {
        font-family: "Virgil";
        src: url("https://excalidraw.com/Virgil.woff2");
      }
      @font-face {
        font-family: "Cascadia";
        src: url("https://excalidraw.com/Cascadia.woff2");
      }
    </style>
  </defs>
  <rect x="0" y="0" width="939.666666666667" height="203" fill="#ffffff"></rect><g stroke-linecap="round" transform="translate(10 10) rotate(0 86.5 91.5)"><path d="M-1.33 -1.9 L171.26 1.19 L171.11 185.47 L-0.48 185.3" stroke="none" stroke-width="0" fill="#ade000"></path><path d="M-0.24 -0.33 C38.56 1.76, 78.59 4.77, 171.23 1.8 M1.54 -1.67 C38.15 3.57, 75.6 1.58, 173.65 1.27 M176.29 -2.84 C172.07 39.85, 172.91 75.54, 175.07 185.99 M171.88 0.09 C172.61 70.35, 172.41 142.63, 174.32 183.73 M173.2 180.89 C114.09 177.93, 44.8 179.3, -1.58 186.18 M171.63 184.39 C123.94 181.93, 79.15 182.38, -1.51 182.54 M-2.84 179.57 C-3.2 145.77, -4.13 109.05, 0.71 3.38 M-1.34 183.64 C1.02 138.23, 0.78 88.99, -1.01 -1.86" stroke="#719300" stroke-width="2" fill="none"></path></g><g transform="translate(35.5 64.83333333333303) rotate(0 63 35)"><text x="63" y="25" font-family="Virgil, Segoe UI Emoji" font-size="28px" fill="#000000" text-anchor="middle" style="white-space: pre;" direction="ltr">Strona </text><text x="63" y="60" font-family="Virgil, Segoe UI Emoji" font-size="28px" fill="#000000" text-anchor="middle" style="white-space: pre;" direction="ltr">logowania</text></g><g stroke-linecap="round" transform="translate(256.55555555555566 10) rotate(0 86.5 91.5)"><path d="M-1.75 -1.42 L170.51 0.47 L174.07 180.74 L3.9 182.41" stroke="none" stroke-width="0" fill="#ade000"></path><path d="M2.35 -0.53 C55.34 3.36, 107.94 2.51, 170.91 0.2 M-1.36 -0.94 C41.98 4.41, 85.05 4.18, 172.35 -1.37 M175.94 0.99 C167.42 66.67, 166.53 136.37, 176.41 180.16 M171.47 0.06 C171.4 40.88, 170.08 77.61, 172.19 181.66 M171.73 179.35 C113.53 181.56, 56.76 183.38, -1.74 184.19 M174.15 184.99 C128.49 183.16, 85.4 183.15, 1.96 182.24 M2.76 185.16 C1.76 142.71, 0.53 106.7, -2 2.35 M1.91 181.56 C1.55 140.94, 2.27 101.24, 0.78 -1.28" stroke="#719300" stroke-width="2" fill="none"></path></g><g transform="translate(273.55555555555566 64.83333333333303) rotate(0 71.5 35)"><text x="71.5" y="25" font-family="Virgil, Segoe UI Emoji" font-size="28px" fill="#000000" text-anchor="middle" style="white-space: pre;" direction="ltr">Strona </text><text x="71.5" y="60" font-family="Virgil, Segoe UI Emoji" font-size="28px" fill="#000000" text-anchor="middle" style="white-space: pre;" direction="ltr">rejestracji</text></g><g stroke-linecap="round" transform="translate(506.6111111111113 10) rotate(0 86.5 91.5)"><path d="M3.7 -1.84 L174.44 0.09 L171.1 182.59 L3.95 181.51" stroke="none" stroke-width="0" fill="#ade000"></path><path d="M3.92 -1.53 C53.08 -4.6, 111.9 1.78, 175.16 -1.56 M-1 1.17 C38.33 0.16, 81.51 3.04, 171.56 -0.22 M174.56 -2.55 C172.16 44.27, 171.41 91.85, 174.07 180.74 M173.49 0.15 C172.74 74.02, 173.99 144.12, 171.09 181.76 M171.52 181.51 C108.53 180.79, 42.28 184.48, 0.35 184.18 M174.86 184.48 C126.32 186.97, 80.52 185.23, 1.18 181.75 M1.66 179.89 C4.64 135.35, 4.56 81.79, -1.49 -0.61 M-1.83 181.58 C0.88 109.6, 3.86 37.85, 0.38 -0.39" stroke="#719300" stroke-width="2" fill="none"></path></g><g transform="translate(503.1111111111113 16.833333333333485) rotate(0 90 87.5)"><text x="90" y="25" font-family="Virgil, Segoe UI Emoji" font-size="28px" fill="#000000" text-anchor="middle" style="white-space: pre;" direction="ltr">Panel </text><text x="90" y="60" font-family="Virgil, Segoe UI Emoji" font-size="28px" fill="#000000" text-anchor="middle" style="white-space: pre;" direction="ltr">kontroli</text><text x="90" y="95" font-family="Virgil, Segoe UI Emoji" font-size="28px" fill="#000000" text-anchor="middle" style="white-space: pre;" direction="ltr">temperatury</text><text x="90" y="130" font-family="Virgil, Segoe UI Emoji" font-size="28px" fill="#000000" text-anchor="middle" style="white-space: pre;" direction="ltr">w </text><text x="90" y="165" font-family="Virgil, Segoe UI Emoji" font-size="28px" fill="#000000" text-anchor="middle" style="white-space: pre;" direction="ltr">pomieszczeniu</text></g><g stroke-linecap="round" transform="translate(756.666666666667 10) rotate(0 86.5 91.5)"><path d="M2.61 -1.03 L174.04 2.18 L172.9 181.32 L2.88 179.02" stroke="none" stroke-width="0" fill="#ade000"></path><path d="M0.66 0.43 C33.92 -3.81, 69.87 -4.91, 169.35 1.1 M-1.51 1.69 C55.27 2.46, 107.12 2.03, 174.48 -0.69 M169.85 -3.43 C172.37 62.57, 172.48 132.87, 174.68 180.12 M171.55 -1.35 C170.6 46.64, 170.67 94.83, 174.22 182.08 M171.16 184.44 C117.95 184.3, 62.29 190.15, -1.49 182.5 M173.88 182.89 C104.97 182.86, 34.41 180.65, 0.87 182.83 M-1.81 181.93 C0.27 112.06, -1 40.05, 0.48 -2.81 M-0.46 181.57 C2.22 119.69, 4.42 59.06, -1.16 -0.65" stroke="#719300" stroke-width="2" fill="none"></path></g><g transform="translate(758.166666666667 49.83333333333394) rotate(0 83 52.5)"><text x="83" y="25" font-family="Virgil, Segoe UI Emoji" font-size="28px" fill="#000000" text-anchor="middle" style="white-space: pre;" direction="ltr">Interfejs</text><text x="83" y="60" font-family="Virgil, Segoe UI Emoji" font-size="28px" fill="#000000" text-anchor="middle" style="white-space: pre;" direction="ltr">do pomiaru</text><text x="83" y="95" font-family="Virgil, Segoe UI Emoji" font-size="28px" fill="#000000" text-anchor="middle" style="white-space: pre;" direction="ltr">temperatury</text></g></svg>