<svg version="1.1" xmlns="http://www.w3.org/2000/svg" viewBox="0 0 194.1666666666672 260" width="194.1666666666672" height="260">
  <!-- svg-source:excalidraw -->
  
  <defs>
    <style>
      @font-face {
        font-family: "Virgil";
        src: url("https://excalidraw.com/Virgil.woff2");
      }
      @font-face {
        font-family: "Cascadia";
        src: url("https://excalidraw.com/Cascadia.woff2");
      }
    </style>
  </defs>
  <rect x="0" y="0" width="194.1666666666672" height="260" fill="#ffffff"></rect><g stroke-linecap="round" transform="translate(10 67) rotate(0 86.5 91.5)"><path d="M1 3.55 L174.12 1.08 L174.56 186.79 L-0.49 180.78" stroke="none" stroke-width="0" fill="#ade000"></path><path d="M1 -2.75 C65.82 1.41, 128.08 -4.65, 173.14 -1.33 M-0.19 -1.78 C36.59 -0.82, 70.08 -1.51, 173.63 -0.64 M172.25 -1.86 C176.66 45.96, 171.09 90.93, 170.66 181.75 M173.61 -1.79 C172.39 44.14, 172.61 90.5, 173.31 181.72 M172.91 183.28 C107.21 178.61, 48.69 182.53, -0.94 179.08 M174.81 182.54 C128.18 183.58, 84.21 182.91, 1.69 184 M1.17 186.56 C0.58 120.1, -0.99 51.35, 2.14 -3.52 M-1.23 183.42 C-1.65 110.17, -0.81 36.99, -1.41 -0.8" stroke="#719300" stroke-width="2" fill="none"></path></g><g transform="translate(49 10) rotate(0 47.5 17.5)"><text x="47.5" y="25" font-family="Virgil, Segoe UI Emoji" font-size="28px" fill="#000000" text-anchor="middle" style="white-space: pre;" direction="ltr">WIDOK</text></g><g transform="translate(29.5 41.5) rotate(0 65.5 12.5)"><text x="65.5" y="18" font-family="Virgil, Segoe UI Emoji" font-size="20px" fill="#000000" text-anchor="middle" style="white-space: pre;" direction="ltr">VIEW MODEL</text></g><g transform="translate(16.166666666667197 88.5) rotate(0 84 70)"><text x="84" y="25" font-family="Virgil, Segoe UI Emoji" font-size="28px" fill="#000000" text-anchor="middle" style="white-space: pre;" direction="ltr">To co </text><text x="84" y="60" font-family="Virgil, Segoe UI Emoji" font-size="28px" fill="#000000" text-anchor="middle" style="white-space: pre;" direction="ltr">potrzebne</text><text x="84" y="95" font-family="Virgil, Segoe UI Emoji" font-size="28px" fill="#000000" text-anchor="middle" style="white-space: pre;" direction="ltr">do podjęcia </text><text x="84" y="130" font-family="Virgil, Segoe UI Emoji" font-size="28px" fill="#000000" text-anchor="middle" style="white-space: pre;" direction="ltr">decyzji</text></g></svg>